<svg xmlns="http://www.w3.org/2000/svg" viewBox="0 0 22.5 22.5"><defs><style>.cls-1{fill:none;stroke:#fff;stroke-miterlimit:10;}.cls-2{fill:#fff;}</style></defs><g id="Layer_2" data-name="Layer 2"><g id="Layer_1-2" data-name="Layer 1"><circle class="cls-1" cx="11.25" cy="11.25" r="10.75"/><path class="cls-2" d="M10.07,13.52v-.2a3.27,3.27,0,0,1,1.44-2.65,2.9,2.9,0,0,0,1.21-2.4,2,2,0,0,0-2.08-2,2.2,2.2,0,0,0-2.3,2.12H7.55a3,3,0,0,1,3.11-2.86,2.69,2.69,0,0,1,2.9,2.74,3.6,3.6,0,0,1-1.55,3,2.64,2.64,0,0,0-1.15,2.17v.11Zm0,3.26V14.89h.79v1.89Z"/></g></g></svg>