<svg xmlns="http://www.w3.org/2000/svg" xmlns:xlink="http://www.w3.org/1999/xlink" viewBox="0 0 653.04 942.33"><defs><style>.cls-1{fill:none;}.cls-2{isolation:isolate;}.cls-10,.cls-3{mix-blend-mode:multiply;}.cls-4{clip-path:url(#clip-path);}.cls-5{fill:#eb46a9;}.cls-6{fill:#f1993b;}.cls-7{fill:#fbe24c;}.cls-8{fill:#85cbb0;}.cls-9{clip-path:url(#clip-path-3);}.cls-10{fill:#fff;}</style><clipPath id="clip-path" transform="translate(134.31 150.86)"><rect class="cls-1" width="698.23" height="756"/></clipPath><clipPath id="clip-path-3" transform="translate(134.31 150.86)"><path class="cls-1" d="M137.65,234.53a54.85,54.85,0,0,0,4.42,7.08c1,1.45,3.65,5.74,3.65,5.74a19,19,0,0,0,.79,4.1A48.77,48.77,0,0,1,148,258a56.77,56.77,0,0,0,2.49,7.19,6.16,6.16,0,0,0,2.07,2.77c2.1,1.35,4.31.12,6,.05s5.3.66,6.84.13a7.47,7.47,0,0,0,2.42-1.31c1-.51,3-3.14,4-4.59s3.31-3.92,4.39-6.07c.56-1.11.77-3.4,1.84-4.78s2.87-5.54,3.69-7,2.22-2,.84-3.15-3.79,0-5,.83c-2,1.44-3.31,4.24-4.49,5.93s-1.66,2.56-2.65-.06,1.16-10.1,1.65-12.45,2-8.35,2.39-10,1.18-4.27-1.55-5-3.45,4.39-3.91,5.57-1.18,4.15-1.64,5.51-1.95,7.8-3.31,7.71-.74-5.27-.73-7.11-.15-5.84-.32-7.25-.21-3.8-.25-5.27-.69-3.24-2.66-3.19-2.11,1.65-2.15,2.45,0,3.81,0,5.1-.19,4.8-.32,6.77-.2,6.52-.1,7.93-1.12,2-1.68,1-3.3-8.15-3.7-9.56-1.17-4.58-2-6.95-2.09-2.83-3.24-2.37a2.29,2.29,0,0,0-1.53,2.49c.15,1,1.67,5.55,2.05,7.51a80.06,80.06,0,0,0,2.21,7.75c.6,1.7.9,4,.24,4.42s-1.89-1.49-3-2.82-3.82-5.12-5.17-7.3-2.82-2.2-3.61-1.81S136.93,232.77,137.65,234.53Zm-106.42,201c2.48-.31,3.38-2.67,4.66-3.84s4.49-2.9,5.33-4.3a7.54,7.54,0,0,0,1-2.55c.41-1,.27-4.33.11-6.09s0-5.13-.53-7.47c-.29-1.21-1.6-3.1-1.66-4.85s-1.37-6.09-1.66-7.71.4-3-1.39-3-2.91,2.43-3.28,3.84c-.63,2.4.19,5.37.37,7.42s.38,3-2.06,1.66-5.61-8.48-6.74-10.6-3.84-7.68-4.57-9.16-1.84-4-4.4-2.84.18,5.58.58,6.78,1.76,3.94,2.29,5.28,3.51,7.22,2.41,8-3.95-3.56-5.12-5-3.87-4.37-4.9-5.34S9.07,393.11,8.09,392s-2.61-2-4.09-.73-.55,2.63-.06,3.26,2.47,2.9,3.28,3.91,2.94,3.79,4.1,5.39,4,5.12,5,6.14.43,2.24-.63,1.86-7.76-4.12-9-4.94-3.83-2.76-6-4-3.42-.84-4,.26a2.33,2.33,0,0,0,.43,2.9c.75.65,4.85,3.17,6.4,4.43A79.08,79.08,0,0,0,10.2,415c1.55.93,3.28,2.51,3,3.24s-2.4.07-4.07-.25-6.22-1.48-8.66-2.28-3.57.13-3.93.93.1,2.05,1.78,2.94a54.39,54.39,0,0,0,7.94,2.58c1.71.45,6.48,2.05,6.48,2.05A19.2,19.2,0,0,0,16,426.83a51.68,51.68,0,0,1,5.35,4.05,57.66,57.66,0,0,0,6.52,3.91A6.2,6.2,0,0,0,31.23,435.57ZM-4.7,260.4c-.83.28-1.46,1.45-1,3.3a56.3,56.3,0,0,0,3.42,7.6c.82,1.58,2.84,6.19,2.84,6.19a19.55,19.55,0,0,0,.22,4.17,51.45,51.45,0,0,1,.6,6.67,58.61,58.61,0,0,0,1.48,7.46,6.27,6.27,0,0,0,1.68,3c1.9,1.62,4.25.71,6,.87s5.17,1.37,6.76,1.06a7.69,7.69,0,0,0,2.57-1c1-.39,3.39-2.72,4.59-4s3.81-3.44,5.17-5.42c.7-1,1.23-3.27,2.47-4.49s3.6-5.1,4.61-6.41,2.47-1.71,1.26-3-3.76-.53-5.06.15c-2.19,1.15-3.84,3.74-5.24,5.26s-2,2.31-2.62-.41,2.52-9.86,3.32-12.12,3.11-8,3.71-9.54,1.75-4.07-.84-5.16-4,3.88-4.64,5-1.73,3.95-2.37,5.24-3,7.46-4.33,7.19,0-5.32.25-7.15.64-5.8.66-7.22.31-3.79.47-5.26-.25-3.3-2.21-3.52-2.31,1.35-2.45,2.14-.49,3.78-.69,5-.83,4.73-1.23,6.67-1.08,6.43-1.18,7.84-1.37,1.82-1.8.79-2.16-8.52-2.37-10-.53-4.69-1.08-7.16-1.68-3.09-2.89-2.8a2.33,2.33,0,0,0-1.86,2.27c0,1,.91,5.73,1,7.72a80.43,80.43,0,0,0,1.14,8c.36,1.77.35,4.12-.36,4.41s-1.67-1.73-2.56-3.18-3.09-5.6-4.13-7.94S-3.86,260.13-4.7,260.4ZM113.18,108c-.76.15-1.3-2-1.89-3.62s-1.94-6.09-2.51-8.59-2-3-2.82-2.88-1.71,1.13-1.61,3a56,56,0,0,0,1.88,8.13c.5,1.7,1.59,6.62,1.59,6.62a19.27,19.27,0,0,0-.59,4.13,49.29,49.29,0,0,1-.72,6.67,58.32,58.32,0,0,0,0,7.6,6.13,6.13,0,0,0,1.06,3.29c1.55,2,4,1.51,5.69,2s4.81,2.35,6.43,2.36a7.47,7.47,0,0,0,2.71-.46c1.09-.17,3.85-2,5.27-3s4.41-2.64,6.13-4.32c.89-.87,1.84-3,3.3-3.92s4.52-4.31,5.76-5.4,2.76-1.19,1.82-2.71-3.58-1.24-5-.83c-2.38.7-4.5,2.93-6.17,4.14s-2.39,1.88-2.48-.91,4.38-9.18,5.61-11.24,4.6-7.25,5.49-8.64,2.51-3.66.17-5.23-4.69,3-5.51,4-2.47,3.54-3.35,4.68-4.37,6.74-5.64,6.21,1-5.22,1.63-7,1.75-5.57,2-6.95,1-3.67,1.48-5.08.4-3.28-1.48-3.88-2.53.88-2.82,1.62-1.21,3.62-1.66,4.83-1.73,4.48-2.5,6.3-2.31,6.1-2.68,7.46-1.7,1.53-1.92.43-.46-8.78-.39-10.24.39-4.71.33-7.24-1.05-3.36-2.29-3.3A2.33,2.33,0,0,0,115.32,88c-.17,1-.22,5.79-.5,7.76a80.1,80.1,0,0,0-.43,8.05C114.4,105.56,113.93,107.86,113.18,108ZM55.2,294.8c-.68,2.4,1.14,4.15,1.72,5.78s.92,5.27,1.88,6.59a7.49,7.49,0,0,0,2,1.92c.78.78,3.89,1.94,5.56,2.48s4.73,2,7.1,2.42c1.22.21,3.47-.26,5.11.36s6.14,1.12,7.75,1.49,2.59,1.53,3.26-.12-1.1-3.64-2.26-4.53c-2-1.51-5-1.91-7-2.55s-2.94-.83-.73-2.55,10-1.86,12.39-2.07,8.57-.54,10.22-.64,4.43-.12,4.33-2.94-5.21-2-6.47-2.11-4.31.09-5.75.05-8,.42-8.34-.91,4.82-2.25,6.58-2.78,5.54-1.85,6.84-2.43,3.57-1.31,5-1.78,2.89-1.62,2.27-3.48-2.2-1.53-3-1.33-3.64,1.14-4.88,1.49-4.64,1.24-6.56,1.69-6.3,1.71-7.62,2.22-2.23-.48-1.47-1.31,6.83-5.54,8-6.33,4-2.46,6-4,2.1-2.82,1.32-3.79a2.32,2.32,0,0,0-2.84-.74c-.89.44-4.81,3.23-6.57,4.17a77.92,77.92,0,0,0-6.76,4.38c-1.46,1.07-3.59,2-4.16,1.52s.87-2.24,1.82-3.66,3.78-5.15,5.47-7.08,1.28-3.34.68-4-1.93-.71-3.4.49a54.47,54.47,0,0,0-5.47,6.3c-1.09,1.4-4.42,5.18-4.42,5.18a19.1,19.1,0,0,0-3.69,1.95,50,50,0,0,1-5.81,3.34A59.27,59.27,0,0,0,57.23,292,6.18,6.18,0,0,0,55.2,294.8ZM131.87,318a57.36,57.36,0,0,0-3.74,6.63,6.17,6.17,0,0,0-.7,3.38c.38,2.47,2.77,3.31,4,4.56s3,4.41,4.43,5.21a7.78,7.78,0,0,0,2.58.95c1,.38,4.34.15,6.08-.05s5.14-.12,7.46-.73c1.21-.32,3.06-1.67,4.8-1.78s6.06-1.53,7.68-1.86,3,.32,2.92-1.46-2.51-2.85-3.93-3.19c-2.42-.56-5.36.34-7.41.57s-3,.45-1.71-2,8.33-5.83,10.42-7,7.58-4,9-4.81,4-1.94,2.72-4.46-5.57.32-6.76.76-3.89,1.86-5.22,2.42-7.13,3.7-8,2.62,3.46-4,4.85-5.25,4.27-4,5.21-5,2.72-2.68,3.8-3.68,2-2.67.62-4.11-2.64-.49-3.26,0-2.83,2.54-3.82,3.38-3.71,3-5.28,4.24-5,4.17-6,5.18-2.23.48-1.88-.58,3.92-7.87,4.71-9.1,2.66-3.9,3.85-6.13.75-3.44-.36-4a2.32,2.32,0,0,0-2.89.5c-.63.77-3,4.94-4.26,6.52a77.75,77.75,0,0,0-4.34,6.78c-.88,1.58-2.42,3.35-3.16,3.1s-.13-2.39.15-4.08,1.31-6.25,2-8.7-.22-3.58-1-3.91-2,.14-2.9,1.85a56,56,0,0,0-2.37,8c-.41,1.73-1.88,6.54-1.88,6.54a19.35,19.35,0,0,0-2.55,3.3A48.77,48.77,0,0,1,131.87,318Zm17.4-141.57c-.71.29-1.66-1.73-2.55-3.19s-3.09-5.6-4.13-7.94-2.49-2.56-3.33-2.28-1.46,1.44-1,3.29a54,54,0,0,0,3.42,7.61c.81,1.57,2.84,6.18,2.84,6.18a19.32,19.32,0,0,0,.21,4.17,48.3,48.3,0,0,1,.6,6.68,59.31,59.31,0,0,0,1.48,7.46,6.31,6.31,0,0,0,1.68,3c1.9,1.62,4.25.7,6,.87s5.16,1.37,6.76,1.06a7.33,7.33,0,0,0,2.57-1c1-.38,3.39-2.71,4.59-4s3.81-3.44,5.17-5.42c.71-1,1.23-3.26,2.48-4.48s3.59-5.11,4.6-6.42,2.48-1.7,1.26-3-3.76-.52-5,.15c-2.2,1.15-3.85,3.75-5.25,5.26s-2,2.31-2.61-.41,2.51-9.86,3.32-12.12,3.11-8,3.71-9.54,1.75-4.07-.84-5.16-4,3.88-4.64,5-1.73,4-2.37,5.24-3,7.46-4.33,7.19,0-5.32.25-7.15.64-5.8.66-7.22.31-3.79.47-5.26-.25-3.3-2.2-3.52-2.32,1.35-2.46,2.14-.49,3.78-.69,5-.83,4.73-1.23,6.67-1.09,6.43-1.18,7.84-1.38,1.82-1.81.79-2.15-8.53-2.36-10-.53-4.7-1.08-7.17-1.68-3.09-2.89-2.79a2.31,2.31,0,0,0-1.85,2.27c0,1,.9,5.72,1,7.71s.78,6.21,1.14,8S150,176.15,149.27,176.44Zm-7.2-194.72c1,1.44,3.65,5.74,3.65,5.74a19,19,0,0,0,.79,4.1A48.77,48.77,0,0,1,148-1.91a56.77,56.77,0,0,0,2.49,7.19,6.21,6.21,0,0,0,2.07,2.77c2.1,1.34,4.31.11,6,0s5.3.66,6.84.14a7.47,7.47,0,0,0,2.42-1.31c1-.51,3-3.15,4-4.59s3.31-3.92,4.39-6.07c.56-1.11.77-3.4,1.84-4.78s2.87-5.54,3.69-7,2.22-2,.84-3.15-3.79,0-5,.83c-2,1.44-3.31,4.23-4.49,5.92s-1.66,2.57-2.65,0,1.16-10.11,1.65-12.46,2-8.34,2.39-9.95,1.18-4.27-1.55-5-3.45,4.39-3.91,5.57-1.18,4.15-1.64,5.51-1.95,7.79-3.31,7.71-.74-5.27-.73-7.11-.15-5.84-.32-7.25-.21-3.8-.25-5.28-.69-3.23-2.66-3.18-2.11,1.65-2.15,2.45,0,3.81,0,5.1-.19,4.8-.32,6.77-.2,6.52-.1,7.93-1.12,2-1.68,1-3.3-8.15-3.7-9.55-1.17-4.58-2-6.95S148.1-39.46,147-39a2.31,2.31,0,0,0-1.53,2.5c.15,1,1.67,5.55,2.05,7.51a79.85,79.85,0,0,0,2.21,7.74c.6,1.71.9,4,.24,4.42s-1.89-1.48-3-2.81-3.82-5.12-5.17-7.3-2.82-2.2-3.61-1.81-1.25,1.63-.53,3.39A55.54,55.54,0,0,0,142.07-18.28Zm-10.67,91c1.25,1.32,3,4.42,4.43,5.22a7.35,7.35,0,0,0,2.58.94c1,.39,4.34.16,6.08,0s5.14-.12,7.46-.73c1.21-.32,3.06-1.68,4.8-1.79s6.06-1.52,7.68-1.85,3,.32,2.92-1.47-2.51-2.85-3.93-3.18c-2.42-.56-5.36.33-7.41.56s-3,.46-1.71-2,8.33-5.83,10.42-7,7.58-4,9-4.81,4-1.94,2.72-4.46-5.57.32-6.76.75-3.89,1.86-5.22,2.43-7.13,3.7-8,2.62,3.46-4.05,4.85-5.26,4.27-4,5.21-5,2.72-2.68,3.8-3.69,2-2.66.62-4.1-2.64-.49-3.26,0-2.83,2.55-3.82,3.39-3.71,3-5.28,4.24-5,4.17-6,5.18-2.23.48-1.88-.58,3.92-7.87,4.71-9.1,2.66-3.91,3.85-6.14.75-3.43-.36-4a2.33,2.33,0,0,0-2.89.51c-.63.76-3,4.93-4.26,6.51a79.42,79.42,0,0,0-4.34,6.79c-.88,1.58-2.42,3.35-3.16,3.1s-.13-2.39.15-4.08,1.31-6.25,2-8.71-.22-3.57-1-3.9-2,.14-2.9,1.85a56,56,0,0,0-2.37,8c-.41,1.73-1.88,6.54-1.88,6.54a18.93,18.93,0,0,0-2.55,3.3,49.71,49.71,0,0,1-3.91,5.45,57.25,57.25,0,0,0-3.74,6.62,6.23,6.23,0,0,0-.7,3.39C127.81,70.59,130.2,71.43,131.4,72.68Zm43.69,299.44a59.18,59.18,0,0,0-5.63,5.1,6.18,6.18,0,0,0-1.73,3c-.42,2.46,1.58,4,2.32,5.57s1.48,5.14,2.56,6.35a8,8,0,0,0,2.15,1.71c.86.68,4.07,1.51,5.79,1.87s4.91,1.51,7.31,1.66c1.24.08,3.43-.63,5.12-.18s6.23.46,7.87.66,2.73,1.24,3.23-.47-1.48-3.5-2.72-4.26c-2.12-1.3-5.19-1.37-7.21-1.8s-3-.52-1-2.45,9.75-2.91,12.1-3.38,8.47-1.44,10.1-1.71,4.39-.59,4-3.38S214,379,212.69,379s-4.28.53-5.71.65-7.93,1.27-8.39,0,4.55-2.74,6.26-3.45,5.3-2.43,6.53-3.14,3.42-1.69,4.76-2.3,2.7-1.91,1.89-3.7-2.35-1.29-3.1-1-3.49,1.52-4.69,2-4.49,1.72-6.35,2.37-6.07,2.37-7.33,3-2.28-.25-1.61-1.15,6.21-6.23,7.34-7.15,3.75-2.87,5.59-4.6,1.79-3,.91-3.92a2.3,2.3,0,0,0-2.89-.42c-.84.52-4.45,3.72-6.1,4.83a77.53,77.53,0,0,0-6.26,5.07c-1.34,1.22-3.36,2.41-4,1.95s.63-2.31,1.42-3.82,3.22-5.53,4.69-7.62.92-3.46.25-4-2-.51-3.33.84a56.18,56.18,0,0,0-4.77,6.85c-.93,1.51-3.85,5.61-3.85,5.61a19.12,19.12,0,0,0-3.46,2.33A48.49,48.49,0,0,1,175.09,372.12Zm-13.84,91.14a7.69,7.69,0,0,0,2.57-1c1-.38,3.39-2.72,4.59-4s3.81-3.44,5.17-5.42c.71-1,1.23-3.26,2.48-4.48s3.59-5.11,4.6-6.42,2.48-1.7,1.26-3-3.76-.52-5,.15c-2.2,1.15-3.85,3.75-5.25,5.26s-2,2.32-2.61-.41,2.51-9.86,3.32-12.12,3.11-8,3.71-9.54,1.75-4.07-.84-5.16-4,3.88-4.64,5-1.73,3.94-2.37,5.23-3,7.46-4.33,7.19,0-5.32.25-7.14.64-5.81.66-7.23.31-3.79.47-5.26-.25-3.3-2.2-3.52-2.32,1.35-2.46,2.14-.49,3.78-.69,5-.83,4.73-1.23,6.67-1.09,6.43-1.18,7.84-1.38,1.82-1.81.79-2.15-8.52-2.36-10-.53-4.69-1.08-7.17-1.68-3.09-2.89-2.79a2.31,2.31,0,0,0-1.85,2.27c0,1,.9,5.72,1,7.72s.78,6.2,1.14,8,.34,4.12-.37,4.41-1.66-1.73-2.55-3.19-3.09-5.59-4.13-7.94-2.49-2.56-3.33-2.28-1.46,1.44-1,3.29a53.54,53.54,0,0,0,3.42,7.61c.81,1.57,2.84,6.19,2.84,6.19a19.23,19.23,0,0,0,.21,4.16,48.3,48.3,0,0,1,.6,6.68,59.31,59.31,0,0,0,1.48,7.46,6.31,6.31,0,0,0,1.68,3c1.9,1.62,4.25.7,6,.87S159.65,463.57,161.25,463.26Zm-4.11,53.15c.83-1.44,2.23-2,.84-3.16s-3.79,0-5,.84c-2,1.43-3.3,4.23-4.49,5.92s-1.65,2.56-2.64,0,1.15-10.11,1.64-12.46,2-8.35,2.39-9.95,1.18-4.28-1.54-5-3.45,4.39-3.92,5.57-1.18,4.14-1.64,5.51-2,7.79-3.31,7.7-.74-5.26-.73-7.11-.15-5.83-.32-7.24-.21-3.8-.25-5.28-.69-3.24-2.66-3.19-2.11,1.66-2.14,2.45,0,3.81,0,5.1-.18,4.8-.32,6.77-.2,6.52-.1,7.93-1.11,2-1.68,1-3.3-8.15-3.7-9.55-1.16-4.58-2-7-2.08-2.83-3.24-2.37a2.32,2.32,0,0,0-1.53,2.5c.15,1,1.68,5.55,2.06,7.5a76.57,76.57,0,0,0,2.2,7.75c.6,1.71.91,4,.24,4.42s-1.88-1.49-3-2.81-3.82-5.13-5.17-7.31-2.82-2.2-3.61-1.81-1.25,1.63-.53,3.4a55.48,55.48,0,0,0,4.43,7.07c1,1.45,3.65,5.75,3.65,5.75a19.31,19.31,0,0,0,.78,4.09,49.3,49.3,0,0,1,1.49,6.54,59,59,0,0,0,2.49,7.19,6.14,6.14,0,0,0,2.07,2.76c2.1,1.35,4.31.12,6,0s5.31.66,6.85.14a7.57,7.57,0,0,0,2.41-1.31c1-.52,3-3.15,4-4.59s3.31-3.93,4.39-6.07c.56-1.12.77-3.4,1.84-4.78S156.32,517.84,157.14,516.41ZM101,460.78a7.68,7.68,0,0,0,1.44-2.34c.58-.93,1-4.23,1.16-6s.9-5,.76-7.45c-.08-1.24-1-3.33-.8-5.06s-.3-6.24-.3-7.89.9-2.87-.86-3.15-3.29,1.89-3.89,3.22c-1,2.25-.74,5.32-.92,7.37s-.15,3.05-2.32,1.28-4.06-9.33-4.81-11.6S88,421,87.5,419.36s-1.11-4.28-3.83-3.55-.79,5.53-.6,6.78,1.05,4.18,1.34,5.59,2.22,7.72,1,8.33-3.28-4.19-4.19-5.79-3-5-3.9-6.11-2.09-3.18-2.86-4.44-2.23-2.45-3.9-1.43-1,2.49-.63,3.2,1.94,3.28,2.56,4.41,2.24,4.25,3.11,6,3.09,5.74,3.89,6.91,0,2.29-.94,1.73-6.94-5.4-8-6.41-3.3-3.38-5.25-5-3.22-1.4-4-.43a2.31,2.31,0,0,0-.08,2.93c.62.77,4.23,4,5.54,5.47a79.62,79.62,0,0,0,5.79,5.6c1.37,1.17,2.8,3,2.42,3.7s-2.37-.34-4-.95-5.87-2.52-8.13-3.73-3.54-.49-4,.24-.27,2,1.24,3.2a54.45,54.45,0,0,0,7.37,3.91c1.61.74,6,3.14,6,3.14a19.31,19.31,0,0,0,2.73,3.16,50.47,50.47,0,0,1,4.57,4.9,58.49,58.49,0,0,0,5.75,5,6.27,6.27,0,0,0,3.18,1.36c2.49.11,3.79-2.06,5.25-3S99.9,462,101,460.78ZM49.31,319.66c-.4-1.61-.93-4.33-3.68-3.72s-1,5.49-.88,6.75.87,4.23,1.1,5.65,1.89,7.8.64,8.36-3.1-4.32-3.94-6-2.84-5.1-3.65-6.27-1.95-3.27-2.67-4.56-2.12-2.55-3.84-1.59-1.1,2.44-.76,3.17,1.8,3.36,2.37,4.51,2.07,4.34,2.86,6.15,2.85,5.87,3.59,7.07-.06,2.28-1,1.69-6.7-5.69-7.71-6.75-3.16-3.51-5-5.21-3.16-1.54-4-.6a2.31,2.31,0,0,0-.19,2.92c.58.8,4.06,4.14,5.3,5.7s4.23,4.6,5.55,5.84,2.67,3.15,2.26,3.8-2.36-.44-3.93-1.11-5.76-2.77-8-4.08-3.53-.64-4,.07-.35,2,1.1,3.25A55.62,55.62,0,0,0,28,349c1.58.81,5.9,3.39,5.9,3.39a19.07,19.07,0,0,0,2.6,3.27,50.16,50.16,0,0,1,4.36,5.1,58.4,58.4,0,0,0,5.53,5.21,6.23,6.23,0,0,0,3.12,1.49c2.49.22,3.87-1.89,5.37-2.76s5-1.88,6.13-3.06a7.5,7.5,0,0,0,1.53-2.27c.62-.91,1.19-4.18,1.41-5.92s1.11-5,1.08-7.42c0-1.25-.9-3.37-.59-5.09s0-6.24,0-7.89,1-2.83-.72-3.19-3.36,1.75-4,3.05c-1.12,2.21-1,5.28-1.22,7.33s-.28,3-2.37,1.18-3.67-9.49-4.32-11.8S49.71,321.26,49.31,319.66Zm-49.72,182c-1.28,1.13-5,4-7.09,5.46s-2.08,2.91-1.66,3.68,1.68,1.18,3.41.39a54.56,54.56,0,0,0,6.89-4.7c1.41-1.08,5.59-3.88,5.59-3.88a19.34,19.34,0,0,0,4.07-.94,47.19,47.19,0,0,1,6.47-1.76,58.22,58.22,0,0,0,7.08-2.77A6.19,6.19,0,0,0,27,495c1.27-2.15-.05-4.31-.19-6s.45-5.33-.14-6.84a7.43,7.43,0,0,0-1.4-2.36c-.56-.95-3.27-2.87-4.75-3.82s-4.05-3.15-6.24-4.14c-1.13-.52-3.43-.64-4.85-1.65s-5.66-2.65-7.12-3.41S.23,464.58-.85,466s.14,3.79,1,4.95c1.51,2,4.36,3.12,6.09,4.24s2.63,1.55,0,2.65-10.14-.75-12.51-1.15-8.42-1.66-10-2-4.32-1-4.93,1.74,4.52,3.28,5.72,3.69,4.19,1,5.57,1.42,7.87,1.64,7.83,3-5.23.95-7.07,1-5.83.39-7.23.61-3.79.37-5.26.46-3.21.83-3.08,2.79,1.74,2,2.53,2,3.81-.18,5.1-.2,4.8,0,6.78,0,6.52-.06,7.92-.21,2,1,1.1,1.64-8,3.62-9.4,4.08-4.53,1.34-6.87,2.31-2.74,2.2-2.24,3.34a2.33,2.33,0,0,0,2.56,1.43c1-.2,5.48-1.9,7.42-2.36A79.73,79.73,0,0,0-2.12,499c1.68-.67,4-1.07,4.41-.42S.87,500.55-.41,501.68Zm180,105c-1.9,1.71-1.66,3.17-1.13,3.87s1.83.94,3.43-.09a55.34,55.34,0,0,0,6.16-5.63c1.24-1.26,5-4.62,5-4.62a19.5,19.5,0,0,0,3.89-1.51,48.84,48.84,0,0,1,6.16-2.65,58.37,58.37,0,0,0,6.62-3.74,6.24,6.24,0,0,0,2.35-2.54c.95-2.31-.66-4.26-1-6s-.31-5.34-1.11-6.76a7.46,7.46,0,0,0-1.72-2.14c-.68-.86-3.64-2.37-5.23-3.1s-4.46-2.55-6.77-3.22c-1.19-.35-3.48-.15-5-1s-6-1.82-7.53-2.37-2.39-1.82-3.26-.25.68,3.73,1.72,4.75c1.78,1.73,4.76,2.48,6.64,3.34s2.82,1.17.42,2.61-10.15.69-12.55.63-8.57-.45-10.22-.55-4.41-.39-4.64,2.42,4.94,2.6,6.19,2.85,4.29.41,5.71.61,8,.52,8.18,1.88-5,1.67-6.86,2-5.71,1.2-7.07,1.62-3.7.9-5.15,1.2-3.05,1.27-2.65,3.2,2,1.77,2.8,1.66,3.74-.72,5-.92,4.76-.69,6.72-.91,6.45-1,7.82-1.33,2.16.74,1.31,1.47-7.42,4.71-8.73,5.36-4.29,2-6.47,3.26-2.41,2.56-1.75,3.62a2.31,2.31,0,0,0,2.73,1c.94-.32,5.16-2.65,7-3.38a77.18,77.18,0,0,0,7.23-3.56c1.57-.9,3.8-1.62,4.3-1s-1.12,2.12-2.23,3.42S181.46,604.92,179.56,606.64ZM67.9,566.71c1.76-.53,5.53-1.86,6.83-2.43s3.57-1.32,5-1.79S82.59,560.88,82,559s-2.2-1.53-3-1.33-3.63,1.15-4.88,1.5-4.64,1.23-6.56,1.68-6.29,1.72-7.61,2.22-2.24-.48-1.48-1.3,6.83-5.54,8-6.34,4-2.45,6-4,2.1-2.82,1.32-3.79a2.31,2.31,0,0,0-2.83-.73c-.9.43-4.82,3.23-6.58,4.16a79.47,79.47,0,0,0-6.76,4.38c-1.45,1.07-3.59,2-4.15,1.52s.87-2.23,1.82-3.65,3.78-5.15,5.47-7.08,1.27-3.34.67-4-1.92-.72-3.4.49a55.58,55.58,0,0,0-5.47,6.3c-1.09,1.4-4.42,5.17-4.42,5.17a19.1,19.1,0,0,0-3.69,2,50,50,0,0,1-5.81,3.35A56.34,56.34,0,0,0,32.6,564a6.08,6.08,0,0,0-2,2.79c-.67,2.4,1.15,4.15,1.72,5.79s.93,5.26,1.88,6.58a7.62,7.62,0,0,0,2,1.93c.77.77,3.88,1.93,5.56,2.48s4.72,2,7.09,2.41c1.23.21,3.48-.25,5.11.37s6.14,1.11,7.75,1.48,2.59,1.53,3.27-.12-1.11-3.63-2.26-4.52c-2-1.52-5-1.92-7-2.56s-2.94-.83-.72-2.54,10-1.86,12.39-2.08,8.56-.54,10.21-.63,4.43-.13,4.33-2.94-5.21-2-6.47-2.11-4.31.08-5.75,0-8,.42-8.34-.91S66.13,567.23,67.9,566.71Zm52-217.44c-.06-2.53-1.05-3.36-2.29-3.3a2.33,2.33,0,0,0-2.26,1.87c-.17,1-.22,5.79-.5,7.76a80.1,80.1,0,0,0-.43,8c0,1.8-.46,4.1-1.21,4.25s-1.3-2-1.89-3.62-1.94-6.09-2.51-8.58-2-3-2.82-2.89-1.71,1.13-1.61,3a55.83,55.83,0,0,0,1.88,8.12c.5,1.71,1.59,6.62,1.59,6.62a19.27,19.27,0,0,0-.59,4.13,49.29,49.29,0,0,1-.72,6.67,58.32,58.32,0,0,0,0,7.6,6.13,6.13,0,0,0,1.06,3.29c1.55,2,4,1.52,5.69,2s4.81,2.35,6.43,2.36a7.89,7.89,0,0,0,2.71-.45c1.09-.18,3.85-2,5.27-3s4.41-2.64,6.13-4.32c.89-.87,1.84-3,3.3-3.92s4.52-4.31,5.76-5.4,2.76-1.19,1.82-2.71-3.58-1.24-5-.83c-2.38.7-4.5,2.93-6.17,4.14s-2.39,1.89-2.48-.91,4.38-9.18,5.61-11.24,4.6-7.25,5.49-8.64,2.51-3.66.17-5.23-4.69,3-5.51,4-2.47,3.54-3.35,4.68-4.37,6.74-5.64,6.21,1-5.22,1.63-7,1.75-5.56,2-6.95,1-3.67,1.48-5.07.4-3.29-1.48-3.88-2.53.87-2.82,1.62-1.21,3.61-1.66,4.82-1.73,4.48-2.5,6.3-2.31,6.1-2.68,7.46-1.7,1.53-1.92.43-.46-8.78-.39-10.24S119.93,351.8,119.87,349.27Zm99.35,172.3c-2.33-1.54-5-8.86-6-11.05s-3.29-7.93-3.91-9.46-1.55-4.15-4.19-3.15-.21,5.59.1,6.81,1.48,4,1.91,5.43,3,7.45,1.84,8.18-3.69-3.83-4.76-5.33-3.55-4.64-4.51-5.68-2.41-2.95-3.3-4.13-2.46-2.21-4-1-.73,2.57-.29,3.24,2.26,3.06,3,4.13,2.67,4,3.72,5.66,3.66,5.4,4.57,6.48.26,2.28-.76,1.82-7.45-4.66-8.61-5.56-3.62-3-5.73-4.43-3.35-1.08-4,0a2.31,2.31,0,0,0,.22,2.92c.7.71,4.62,3.51,6.07,4.88a79.43,79.43,0,0,0,6.33,5c1.49,1,3.1,2.74,2.79,3.44s-2.4-.1-4.05-.54-6.1-1.9-8.47-2.88-3.57-.12-4,.65-.06,2.06,1.56,3.06a54.42,54.42,0,0,0,7.73,3.13c1.68.58,6.33,2.51,6.33,2.51a18.81,18.81,0,0,0,3,2.86,50.09,50.09,0,0,1,5,4.42,58.57,58.57,0,0,0,6.23,4.36,6.2,6.2,0,0,0,3.31,1c2.49-.14,3.55-2.43,4.91-3.5s4.69-2.58,5.63-3.91a7.62,7.62,0,0,0,1.18-2.47c.48-1,.58-4.31.55-6.07s.37-5.12,0-7.49c-.2-1.23-1.37-3.21-1.31-5s-.93-6.17-1.11-7.82.61-2.94-1.17-3.05-3.08,2.22-3.55,3.61c-.79,2.34-.19,5.36-.16,7.42S221.56,523.11,219.22,521.57Zm18.45,75.11c1.64.77,4.41,3,6,3.26a7.88,7.88,0,0,0,2.75-.06c1.1,0,4.1-1.43,5.65-2.25s4.74-2,6.69-3.4c1-.73,2.24-2.66,3.82-3.4s5.09-3.62,6.48-4.52,2.9-.78,2.19-2.42-3.37-1.74-4.82-1.54c-2.45.35-4.87,2.26-6.7,3.22s-2.64,1.52-2.32-1.26,5.65-8.46,7.16-10.32,5.59-6.51,6.67-7.77,3-3.25.92-5.15-5.08,2.33-6,3.17-2.95,3.14-4,4.15-5.3,6-6.47,5.33,1.75-5,2.61-6.65,2.53-5.26,3-6.59,1.55-3.48,2.19-4.81.86-3.2-.91-4-2.63.5-3,1.2-1.71,3.4-2.33,4.54-2.35,4.18-3.38,5.87-3.16,5.7-3.72,7-1.9,1.27-2,.15.8-8.76,1.08-10.19,1.06-4.6,1.37-7.12-.56-3.47-1.8-3.59a2.32,2.32,0,0,0-2.5,1.52c-.31.94-1,5.7-1.61,7.62a79.79,79.79,0,0,0-1.58,7.89c-.25,1.79-1,4-1.81,4s-1-2.18-1.35-3.85-1.05-6.31-1.25-8.86-1.5-3.25-2.38-3.26-1.86.87-2,2.77a55.37,55.37,0,0,0,.69,8.32c.25,1.75.62,6.78.62,6.78a19.16,19.16,0,0,0-1.18,4,49.67,49.67,0,0,1-1.66,6.49,58.1,58.1,0,0,0-1.08,7.53,6.3,6.3,0,0,0,.58,3.41C233.57,596,236.1,596,237.67,596.68ZM74.07,514.47c1.82.29,5.79.72,7.21.77s3.79.36,5.25.55,3.31-.21,3.56-2.16-1.32-2.33-2.11-2.49-3.77-.54-5-.76-4.72-.9-6.64-1.33-6.42-1.18-7.83-1.29-1.8-1.41-.76-1.82,8.55-2,10-2.22,4.7-.46,7.18-1,3.12-1.64,2.84-2.85A2.32,2.32,0,0,0,85.49,498c-1,0-5.74.82-7.73.91a78.47,78.47,0,0,0-8,1c-1.78.34-4.13.29-4.41-.43s1.76-1.64,3.23-2.5,5.64-3,8-4,2.61-2.46,2.34-3.3-1.42-1.48-3.28-1A56,56,0,0,0,68,492c-1.58.79-6.22,2.74-6.22,2.74a19.63,19.63,0,0,0-4.17.16,49.36,49.36,0,0,1-6.69.5,58,58,0,0,0-7.48,1.37,6.18,6.18,0,0,0-3.05,1.64c-1.64,1.87-.76,4.24-.95,6s-1.45,5.14-1.16,6.75a7.4,7.4,0,0,0,.93,2.58c.36,1,2.66,3.43,3.93,4.64s3.39,3.86,5.35,5.26c1,.72,3.24,1.27,4.44,2.54s5.05,3.67,6.35,4.7,1.66,2.5,3,1.3.58-3.75-.07-5.06c-1.12-2.21-3.69-3.89-5.19-5.32s-2.28-2,.46-2.61,9.81,2.66,12.06,3.5,8,3.23,9.49,3.86,4,1.81,5.17-.77-3.82-4.08-4.92-4.71-3.92-1.79-5.2-2.45-7.41-3.1-7.12-4.44S72.25,514.17,74.07,514.47ZM25.67,137.85c-1.05-.38-7.76-4.13-9-4.94s-3.84-2.76-6-4-3.41-.83-4,.27a2.29,2.29,0,0,0,.43,2.89c.74.65,4.85,3.18,6.4,4.43A77.65,77.65,0,0,0,20.16,141c1.55.92,3.28,2.51,3,3.23s-2.4.07-4.08-.25-6.22-1.47-8.65-2.27-3.58.12-3.93.93.09,2.05,1.78,2.94a55.5,55.5,0,0,0,7.93,2.58c1.72.45,6.49,2.05,6.49,2.05A19.5,19.5,0,0,0,26,152.85a48.18,48.18,0,0,1,5.35,4,57.07,57.07,0,0,0,6.52,3.91,6.17,6.17,0,0,0,3.37.79c2.47-.32,3.37-2.68,4.66-3.85s4.49-2.9,5.33-4.29a7.9,7.9,0,0,0,1-2.55c.41-1,.26-4.34.11-6.09s0-5.13-.54-7.48c-.28-1.21-1.59-3.1-1.66-4.84s-1.36-6.09-1.65-7.72.4-3-1.39-3-2.91,2.43-3.28,3.85c-.63,2.4.19,5.36.37,7.42s.38,3-2.06,1.66-5.62-8.49-6.75-10.6-3.83-7.68-4.57-9.16-1.84-4-4.39-2.84.17,5.58.58,6.78,1.76,3.94,2.28,5.27,3.52,7.23,2.42,8-3.95-3.56-5.13-5-3.86-4.38-4.9-5.35S19,119.13,18.05,118s-2.62-2-4.09-.73-.55,2.62-.07,3.25,2.47,2.9,3.28,3.91,2.95,3.79,4.11,5.39,4,5.12,5,6.14S26.72,138.23,25.67,137.85ZM71,186c-1.6-.61-5.87-2.52-8.13-3.73s-3.54-.49-4,.24-.27,2,1.24,3.2a54.45,54.45,0,0,0,7.37,3.91c1.61.74,6,3.14,6,3.14a19.38,19.38,0,0,0,2.73,3.15,50.65,50.65,0,0,1,4.57,4.91,58.49,58.49,0,0,0,5.75,5,6.19,6.19,0,0,0,3.18,1.35c2.49.12,3.79-2.05,5.25-3s4.92-2.09,6-3.31a7.81,7.81,0,0,0,1.44-2.34c.58-.94,1-4.23,1.16-6s.9-5,.76-7.45c-.08-1.25-1-3.33-.8-5.06s-.3-6.24-.3-7.89.9-2.87-.86-3.15-3.29,1.89-3.89,3.22c-1,2.25-.74,5.31-.92,7.37s-.15,3-2.32,1.28-4.06-9.33-4.81-11.61-2.46-8.22-2.93-9.81-1.11-4.29-3.83-3.55-.79,5.53-.6,6.78,1.05,4.18,1.34,5.59,2.22,7.72,1,8.33-3.28-4.19-4.19-5.79-3-5-3.9-6.11-2.09-3.18-2.86-4.44-2.23-2.46-3.9-1.43-1,2.49-.63,3.2,1.94,3.28,2.56,4.41,2.24,4.25,3.11,6,3.09,5.74,3.89,6.91,0,2.29-.94,1.73-6.94-5.4-8-6.41-3.3-3.38-5.25-5-3.22-1.41-4-.43a2.31,2.31,0,0,0-.08,2.93c.62.77,4.23,4,5.54,5.47a79.62,79.62,0,0,0,5.79,5.6c1.37,1.17,2.8,3,2.42,3.7S72.61,186.64,71,186Zm21.34,47.9c1-.42,8.55-2,10-2.23s4.7-.46,7.18-1,3.11-1.63,2.83-2.84a2.31,2.31,0,0,0-2.24-1.89c-1,0-5.73.82-7.72.9a78.63,78.63,0,0,0-8,1c-1.77.33-4.12.28-4.4-.43s1.75-1.64,3.22-2.51,5.64-3,8-4,2.6-2.46,2.34-3.29-1.43-1.48-3.28-1A55.44,55.44,0,0,0,92.62,220c-1.59.8-6.23,2.75-6.23,2.75a19,19,0,0,0-4.17.16,49.3,49.3,0,0,1-6.68.49,57.63,57.63,0,0,0-7.48,1.38,6.2,6.2,0,0,0-3,1.63c-1.65,1.87-.76,4.24-1,6s-1.46,5.15-1.17,6.75a7.67,7.67,0,0,0,.93,2.58c.37,1,2.67,3.43,3.94,4.65s3.38,3.86,5.34,5.25c1,.72,3.25,1.28,4.45,2.54s5,3.67,6.34,4.7,1.67,2.5,3,1.31.58-3.75-.08-5.06c-1.11-2.21-3.69-3.9-5.18-5.33s-2.28-2,.45-2.6,9.82,2.66,12.07,3.5,7.95,3.23,9.48,3.85,4.05,1.81,5.18-.77-3.82-4.07-4.92-4.7-3.92-1.8-5.2-2.45-7.41-3.1-7.12-4.44,5.31.06,7.14.35,5.78.73,7.21.78,3.79.36,5.25.54,3.31-.2,3.55-2.15-1.31-2.33-2.1-2.49-3.77-.54-5-.76-4.72-.91-6.65-1.33-6.41-1.18-7.82-1.3S91.3,234.34,92.35,233.93ZM-52.63,209c-1.32-1.08-4.78-4.25-6.54-6.11s-3.21-1.58-3.9-1-.89,1.85.17,3.43a54.17,54.17,0,0,0,5.77,6c1.29,1.21,4.74,4.89,4.74,4.89a18.92,18.92,0,0,0,1.59,3.85,48.76,48.76,0,0,1,2.79,6.1,59.24,59.24,0,0,0,3.89,6.53,6.24,6.24,0,0,0,2.6,2.29c2.32.89,4.24-.76,5.92-1.18s5.33-.43,6.73-1.25a7.86,7.86,0,0,0,2.1-1.77c.84-.71,2.29-3.69,3-5.31s2.45-4.51,3.07-6.84c.32-1.2.07-3.48.84-5.05s1.68-6,2.19-7.58,1.77-2.43.19-3.26-3.72.76-4.72,1.83c-1.68,1.81-2.37,4.81-3.19,6.71s-1.1,2.84-2.6.48-.92-10.13-.91-12.53.26-8.58.31-10.23.29-4.43-2.52-4.59-2.49,5-2.7,6.25-.32,4.3-.49,5.73-.33,8-1.68,8.22-1.8-5-2.16-6.82-1.33-5.68-1.78-7-1-3.69-1.31-5.12-1.34-3-3.26-2.58-1.73,2-1.6,2.83.81,3.73,1,5,.79,4.73,1.06,6.69,1.13,6.42,1.51,7.78-.69,2.18-1.44,1.35-4.88-7.31-5.56-8.6-2.07-4.25-3.41-6.4-2.61-2.35-3.65-1.67a2.32,2.32,0,0,0-1,2.76c.34.93,2.76,5.09,3.53,6.93a78.37,78.37,0,0,0,3.73,7.14c.93,1.55,1.7,3.77,1.13,4.28S-51.3,210.07-52.63,209Zm68.17,4.56c-1.85.06-5.83.38-7.23.61s-3.79.36-5.27.46-3.2.82-3.07,2.79,1.73,2,2.53,2,3.81-.18,5.1-.21,4.8,0,6.77.05,6.53-.06,7.93-.22,2,1,1.09,1.64-8,3.62-9.39,4.08-4.53,1.35-6.87,2.32-2.75,2.19-2.24,3.33a2.3,2.3,0,0,0,2.55,1.43c1-.19,5.48-1.9,7.42-2.35A76.19,76.19,0,0,0,22.51,227c1.69-.66,4-1.06,4.41-.41s-1.41,1.94-2.69,3.07-5,4-7.09,5.45-2.09,2.91-1.67,3.68,1.68,1.19,3.42.4a56.46,56.46,0,0,0,6.89-4.71c1.41-1.07,5.59-3.87,5.59-3.87a19.38,19.38,0,0,0,4.06-1,49.32,49.32,0,0,1,6.48-1.75A61.29,61.29,0,0,0,49,225.15,6.3,6.3,0,0,0,51.67,223c1.26-2.15-.06-4.3-.19-6s.44-5.33-.14-6.85a7.71,7.71,0,0,0-1.41-2.36c-.55-.95-3.26-2.86-4.74-3.81s-4.06-3.15-6.25-4.15c-1.13-.51-3.42-.63-4.84-1.65s-5.66-2.64-7.12-3.4-2.12-2.14-3.19-.72.14,3.79,1,4.95c1.52,2,4.36,3.13,6.1,4.25s2.63,1.55,0,2.64-10.14-.75-12.51-1.14-8.42-1.67-10-2-4.32-1-4.94,1.74,4.53,3.27,5.73,3.69,4.19,1,5.57,1.42,7.86,1.63,7.83,3S17.38,213.5,15.54,213.56ZM-34.92,334.44c-1.66-.4-6.14-1.77-8.54-2.69s-3.57-.05-4,.74,0,2.05,1.64,3a55.34,55.34,0,0,0,7.8,3c1.69.54,6.38,2.37,6.38,2.37a19.73,19.73,0,0,0,3.1,2.79,49.45,49.45,0,0,1,5.15,4.3A59.39,59.39,0,0,0-17,352.15a6.31,6.31,0,0,0,3.33,1c2.48-.2,3.5-2.52,4.83-3.62s4.63-2.68,5.54-4A7.73,7.73,0,0,0-2.21,343c.46-1,.48-4.32.41-6.08s.26-5.12-.18-7.49c-.23-1.22-1.44-3.17-1.42-4.92s-1.07-6.15-1.28-7.79.54-3-1.24-3-3,2.29-3.47,3.68c-.74,2.37-.07,5.37,0,7.43s.23,3-2.14,1.56-5.19-8.75-6.22-10.92-3.46-7.85-4.12-9.37-1.65-4.11-4.25-3-.1,5.59.25,6.81,1.56,4,2,5.38,3.16,7.38,2,8.14-3.78-3.75-4.88-5.22-3.65-4.56-4.64-5.58-2.47-2.9-3.39-4.05-2.51-2.16-4.05-.93-.68,2.59-.22,3.25,2.33,3,3.09,4.06,2.75,3.93,3.84,5.58,3.78,5.31,4.71,6.38.32,2.26-.72,1.83-7.55-4.5-8.72-5.37-3.7-2.94-5.83-4.3-3.37-1-4,.07a2.32,2.32,0,0,0,.29,2.91c.72.69,4.7,3.41,6.18,4.73a80.2,80.2,0,0,0,6.44,4.84c1.51,1,3.16,2.67,2.87,3.38S-33.26,334.84-34.92,334.44Zm175,258.78c2.09-1.19,7.58-4,9-4.81s4-1.95,2.73-4.47-5.58.33-6.77.76-3.89,1.86-5.21,2.42-7.13,3.7-8,2.62,3.45-4,4.84-5.25,4.27-4,5.22-5,2.71-2.68,3.79-3.68,2-2.67.62-4.11-2.63-.48-3.25,0-2.84,2.55-3.82,3.38-3.72,3-5.28,4.25-5,4.17-6,5.17-2.24.49-1.88-.58,3.92-7.86,4.7-9.1,2.66-3.9,3.86-6.13.74-3.44-.37-4a2.3,2.3,0,0,0-2.88.51c-.64.76-3.05,4.93-4.26,6.51a77.07,77.07,0,0,0-4.35,6.78c-.88,1.58-2.42,3.35-3.15,3.11s-.13-2.4.14-4.08,1.31-6.26,2.05-8.71-.22-3.57-1-3.9-2,.14-2.89,1.85a53.16,53.16,0,0,0-2.37,8c-.41,1.72-1.89,6.54-1.89,6.54a18.93,18.93,0,0,0-2.55,3.3,50.68,50.68,0,0,1-3.91,5.45,58.77,58.77,0,0,0-3.74,6.62,6.3,6.3,0,0,0-.7,3.39c.39,2.46,2.77,3.3,4,4.55s3,4.41,4.43,5.22a7.68,7.68,0,0,0,2.58.94c1,.38,4.34.16,6.09,0s5.13-.12,7.46-.74c1.2-.31,3.05-1.67,4.8-1.78s6-1.52,7.67-1.86,3,.33,2.92-1.46-2.51-2.85-3.93-3.18c-2.41-.57-5.36.33-7.41.56s-3,.46-1.71-2S138,594.4,140.08,593.22Zm28.44,67.67c2-1.94,9.75-2.91,12.11-3.37s8.46-1.44,10.09-1.72,4.39-.59,4-3.38-5.39-1.45-6.66-1.41-4.27.54-5.71.65-7.93,1.27-8.39,0,4.56-2.75,6.26-3.46,5.3-2.43,6.54-3.14,3.41-1.68,4.75-2.3,2.71-1.91,1.89-3.7-2.35-1.29-3.1-1-3.49,1.53-4.69,2-4.48,1.71-6.35,2.36-6.07,2.38-7.33,3-2.27-.24-1.6-1.14,6.2-6.23,7.33-7.15,3.76-2.87,5.59-4.61,1.79-3,.92-3.91a2.32,2.32,0,0,0-2.9-.43c-.84.52-4.45,3.72-6.1,4.84a79.32,79.32,0,0,0-6.26,5.07c-1.33,1.21-3.35,2.41-4,1.95s.63-2.32,1.42-3.83,3.22-5.52,4.7-7.62.91-3.46.24-4-2-.51-3.32.85a56.17,56.17,0,0,0-4.78,6.84c-.93,1.51-3.85,5.61-3.85,5.61a19.12,19.12,0,0,0-3.46,2.33,49.25,49.25,0,0,1-5.42,3.94,56.93,56.93,0,0,0-5.64,5.11,6.22,6.22,0,0,0-1.73,3c-.42,2.46,1.58,4,2.32,5.57s1.48,5.14,2.57,6.35a7.48,7.48,0,0,0,2.15,1.71c.85.69,4.07,1.51,5.79,1.88s4.91,1.5,7.31,1.65c1.24.08,3.43-.62,5.12-.18s6.22.47,7.86.66,2.74,1.25,3.23-.47-1.47-3.49-2.72-4.25c-2.11-1.3-5.19-1.38-7.21-1.81S166.5,662.83,168.52,660.89Zm-16.29,50.24c-2.2,1.14-3.84,3.74-5.25,5.25s-2,2.32-2.61-.41,2.52-9.85,3.32-12.11,3.11-8,3.72-9.54,1.75-4.07-.85-5.17-4,3.89-4.63,5-1.74,4-2.38,5.24-3,7.46-4.33,7.18,0-5.31.25-7.14.64-5.8.67-7.22.3-3.8.47-5.26-.25-3.31-2.21-3.52-2.31,1.35-2.46,2.13-.48,3.78-.69,5.06-.83,4.73-1.23,6.66-1.08,6.43-1.18,7.84-1.37,1.83-1.8.79-2.16-8.52-2.37-10-.53-4.7-1.08-7.17-1.68-3.09-2.89-2.79a2.3,2.3,0,0,0-1.85,2.26c0,1,.91,5.73,1,7.72a77.61,77.61,0,0,0,1.13,8c.36,1.78.35,4.12-.37,4.42s-1.66-1.74-2.55-3.19-3.09-5.6-4.12-7.94-2.5-2.56-3.33-2.29-1.46,1.45-1,3.29a56.56,56.56,0,0,0,3.42,7.62c.82,1.57,2.84,6.18,2.84,6.18a18.88,18.88,0,0,0,.22,4.17,49.84,49.84,0,0,1,.59,6.68,57.09,57.09,0,0,0,1.49,7.45,6.17,6.17,0,0,0,1.68,3c1.89,1.62,4.25.7,6,.86s5.17,1.38,6.76,1.07a7.56,7.56,0,0,0,2.57-1c1-.38,3.39-2.71,4.59-4s3.81-3.44,5.17-5.42c.71-1,1.23-3.27,2.48-4.49S155,715.3,156,714s2.48-1.7,1.26-3S153.53,710.45,152.23,711.13Zm82.64,11.33c-1.64-.69-3.64,1.07-4.54,2.22-1.53,2-2,5-2.62,7s-.86,2.93-2.55.7-1.77-10-2-12.41-.46-8.57-.54-10.23-.08-4.43-2.9-4.35-2.06,5.19-2.17,6.45,0,4.31,0,5.75.35,8-1,8.33-2.2-4.84-2.71-6.61-1.8-5.55-2.36-6.86-1.29-3.58-1.74-5-1.59-2.9-3.46-2.3-1.55,2.18-1.36,3,1.11,3.64,1.45,4.89,1.19,4.65,1.62,6.58,1.66,6.31,2.15,7.63-.5,2.23-1.32,1.46-5.47-6.87-6.26-8.1-2.41-4.07-3.93-6.09-2.8-2.13-3.78-1.36a2.32,2.32,0,0,0-.76,2.83c.42.89,3.18,4.84,4.1,6.61a80.18,80.18,0,0,0,4.32,6.81c1,1.46,2,3.61,1.48,4.17s-2.23-.9-3.64-1.86-5.12-3.83-7-5.54-3.33-1.31-4-.71-.74,1.92.46,3.4a55.52,55.52,0,0,0,6.24,5.53c1.4,1.1,5.14,4.47,5.14,4.47a18.78,18.78,0,0,0,1.91,3.71,49.43,49.43,0,0,1,3.29,5.85,58.94,58.94,0,0,0,4.42,6.18,6.18,6.18,0,0,0,2.77,2.07c2.4.69,4.17-1.11,5.81-1.67s5.27-.87,6.6-1.81a7.48,7.48,0,0,0,1.94-1.94c.79-.78,2-3.87,2.54-5.54s2.05-4.7,2.48-7.07c.22-1.22-.22-3.48.41-5.11s1.18-6.12,1.56-7.73S236.52,723.15,234.87,722.46Zm23.59-71c-1.58-.83-3.71.76-4.71,1.83-1.69,1.81-2.37,4.81-3.19,6.71s-1.1,2.84-2.6.48-.92-10.13-.92-12.53.27-8.58.32-10.23.29-4.42-2.52-4.58-2.49,5-2.71,6.24-.31,4.3-.48,5.73-.33,8-1.69,8.22-1.79-5-2.15-6.81-1.33-5.69-1.78-7-1-3.68-1.32-5.12-1.33-3-3.25-2.58-1.73,2-1.6,2.83.8,3.73,1,5,.79,4.73,1.06,6.69,1.12,6.42,1.51,7.79-.69,2.18-1.44,1.34-4.88-7.31-5.56-8.6-2.07-4.25-3.41-6.4-2.62-2.35-3.66-1.66a2.32,2.32,0,0,0-1,2.75c.35.93,2.77,5.1,3.54,6.93a77.08,77.08,0,0,0,3.73,7.14c.93,1.55,1.7,3.77,1.13,4.28s-2.15-1.07-3.47-2.15-4.78-4.24-6.54-6.1-3.21-1.59-3.9-1-.9,1.85.17,3.43a56,56,0,0,0,5.76,6c1.3,1.21,4.74,4.88,4.74,4.88a19.14,19.14,0,0,0,1.6,3.85,50.24,50.24,0,0,1,2.79,6.1,58.32,58.32,0,0,0,3.89,6.53,6.14,6.14,0,0,0,2.59,2.29c2.33.9,4.24-.76,5.92-1.18s5.33-.42,6.73-1.25a7.47,7.47,0,0,0,2.1-1.77c.85-.7,2.29-3.69,3-5.31s2.44-4.51,3.07-6.83c.32-1.21.06-3.49.83-5.06s1.69-6,2.2-7.58S260.05,652.28,258.46,651.45Zm-140.22.09c1.25-1.09,2.76-1.19,1.82-2.71s-3.58-1.25-5-.84c-2.38.7-4.5,2.93-6.17,4.15s-2.4,1.88-2.49-.92S110.8,642,112,640s4.6-7.24,5.49-8.64,2.51-3.65.17-5.23-4.69,3-5.51,4-2.47,3.54-3.34,4.68-4.38,6.73-5.64,6.21,1-5.23,1.62-7,1.76-5.57,2.06-7,1-3.66,1.48-5.07.39-3.29-1.48-3.88-2.54.88-2.83,1.62-1.21,3.61-1.65,4.82-1.74,4.48-2.51,6.3-2.31,6.1-2.67,7.47-1.71,1.52-1.92.42-.47-8.78-.4-10.23.39-4.71.33-7.24-1-3.36-2.29-3.3a2.33,2.33,0,0,0-2.26,1.86c-.17,1-.22,5.79-.49,7.77a77.14,77.14,0,0,0-.44,8c0,1.81-.45,4.11-1.21,4.26s-1.3-2-1.89-3.62-1.94-6.09-2.51-8.59-2-3-2.82-2.89-1.71,1.14-1.6,3A54.68,54.68,0,0,0,81.6,636c.49,1.7,1.58,6.62,1.58,6.62a19.27,19.27,0,0,0-.59,4.13,50.51,50.51,0,0,1-.71,6.66,58.51,58.51,0,0,0,0,7.61A6.25,6.25,0,0,0,83,664.3c1.55,2,4,1.51,5.7,2s4.8,2.35,6.43,2.35a7.33,7.33,0,0,0,2.7-.45c1.09-.17,3.86-2,5.28-3s4.4-2.64,6.13-4.31c.88-.87,1.83-3,3.29-3.92S117,652.63,118.24,651.54ZM78.89,712c.24-1.73-.29-6.23-.3-7.89s.91-2.86-.86-3.15-3.28,1.89-3.89,3.22c-1,2.26-.74,5.32-.92,7.38s-.15,3-2.31,1.27-4.07-9.32-4.82-11.6-2.45-8.23-2.92-9.81-1.12-4.29-3.84-3.56-.79,5.53-.6,6.78,1.06,4.19,1.34,5.6,2.22,7.72,1,8.33-3.28-4.19-4.19-5.79-3.06-5-3.91-6.11-2.09-3.19-2.86-4.45-2.22-2.45-3.9-1.42-1,2.48-.63,3.19,1.94,3.29,2.56,4.42,2.24,4.24,3.12,6,3.09,5.75,3.88,6.92,0,2.28-.94,1.73-6.94-5.4-8-6.41-3.3-3.39-5.25-5-3.22-1.41-4-.43a2.31,2.31,0,0,0-.07,2.93c.62.77,4.23,4,5.54,5.46a77.48,77.48,0,0,0,5.78,5.6c1.38,1.18,2.81,3,2.42,3.71s-2.37-.35-4-.95-5.87-2.52-8.13-3.74-3.54-.49-4,.25-.26,2,1.24,3.2a56.9,56.9,0,0,0,7.38,3.91c1.61.74,6,3.14,6,3.14a19.38,19.38,0,0,0,2.73,3.15,48.35,48.35,0,0,1,4.57,4.91,58.49,58.49,0,0,0,5.75,5,6.27,6.27,0,0,0,3.18,1.35c2.5.11,3.79-2.06,5.25-3s4.93-2.09,6-3.32a7.76,7.76,0,0,0,1.43-2.34c.58-.93,1-4.22,1.16-6s.9-5.06.76-7.46C79.62,715.78,78.65,713.69,78.89,712Zm-41-80.62c.62-.91,1.19-4.18,1.42-5.92s1.11-5,1.07-7.42c0-1.24-.89-3.37-.59-5.09s0-6.24,0-7.89,1-2.83-.72-3.19-3.37,1.76-4,3.06c-1.13,2.21-1,5.28-1.23,7.32s-.28,3-2.37,1.18-3.67-9.49-4.32-11.79-2.1-8.33-2.51-9.93S23.74,587.34,21,588s-1,5.49-.88,6.75.87,4.22,1.1,5.64,1.89,7.81.64,8.36-3.1-4.32-3.94-6-2.84-5.1-3.64-6.27-2-3.27-2.67-4.56-2.12-2.54-3.84-1.58-1.1,2.44-.76,3.16,1.79,3.36,2.37,4.52,2.06,4.33,2.86,6.14,2.84,5.87,3.58,7.07-.06,2.29-1,1.69-6.7-5.69-7.71-6.74-3.15-3.52-5-5.21-3.16-1.55-4-.61a2.33,2.33,0,0,0-.19,2.93c.59.79,4.06,4.13,5.3,5.69a77.83,77.83,0,0,0,5.55,5.84c1.32,1.24,2.67,3.15,2.26,3.81s-2.36-.45-3.93-1.12-5.76-2.77-8-4.07-3.52-.64-4,.07-.35,2,1.11,3.25A54.23,54.23,0,0,0,3.38,621c1.57.81,5.9,3.4,5.9,3.4a19.24,19.24,0,0,0,2.59,3.27,50,50,0,0,1,4.36,5.09A57.27,57.27,0,0,0,21.76,638a6.23,6.23,0,0,0,3.13,1.48c2.48.22,3.86-1.89,5.36-2.76s5-1.87,6.13-3A7.6,7.6,0,0,0,37.91,631.34Zm371,37.9c-.28-1.21-1.59-3.1-1.65-4.84s-1.37-6.1-1.66-7.72.4-3-1.39-3-2.91,2.43-3.28,3.84c-.63,2.4.19,5.37.37,7.42s.38,3-2.06,1.66-5.61-8.48-6.75-10.6-3.83-7.68-4.57-9.16-1.84-4-4.39-2.84.18,5.58.58,6.78,1.76,3.94,2.29,5.28,3.51,7.22,2.41,8-3.95-3.56-5.13-5-3.86-4.37-4.9-5.34-2.6-2.78-3.58-3.88-2.61-2-4.09-.73-.55,2.62-.06,3.25,2.47,2.9,3.28,3.91,2.94,3.79,4.1,5.39,4,5.12,5,6.14.43,2.24-.63,1.86-7.76-4.12-9-4.94-3.84-2.76-6-4-3.42-.83-4,.26a2.32,2.32,0,0,0,.43,2.9c.75.65,4.85,3.17,6.4,4.43a79.08,79.08,0,0,0,6.67,4.51c1.55.93,3.28,2.51,3,3.24s-2.4.07-4.07-.25-6.22-1.47-8.66-2.28-3.57.13-3.93.93.09,2.06,1.78,2.94a54.39,54.39,0,0,0,7.94,2.58c1.71.46,6.48,2.06,6.48,2.06a18.87,18.87,0,0,0,3.24,2.63,50.58,50.58,0,0,1,5.34,4,58.67,58.67,0,0,0,6.53,3.91,6.28,6.28,0,0,0,3.36.79c2.48-.32,3.38-2.68,4.66-3.85s4.49-2.9,5.33-4.29a7.55,7.55,0,0,0,1-2.56c.41-1,.27-4.33.11-6.08S409.5,671.58,408.94,669.24ZM292.12,718c1.51-1.86,5.59-6.51,6.67-7.76s3-3.25.92-5.15-5.08,2.33-6,3.16-2.95,3.15-4,4.15-5.3,6-6.47,5.34,1.75-5,2.61-6.65,2.53-5.26,3-6.59,1.55-3.48,2.19-4.81.86-3.2-.91-4.05-2.63.5-3,1.2-1.71,3.4-2.33,4.53-2.36,4.19-3.38,5.88-3.16,5.7-3.72,7-1.9,1.27-2,.14.8-8.75,1.08-10.18,1.06-4.61,1.36-7.12-.55-3.47-1.79-3.59a2.31,2.31,0,0,0-2.5,1.52c-.31.94-1.05,5.7-1.61,7.61a80.55,80.55,0,0,0-1.58,7.9c-.25,1.79-1,4-1.81,4s-1-2.19-1.35-3.86-1-6.3-1.25-8.85-1.5-3.25-2.38-3.27-1.86.88-2,2.78a55.37,55.37,0,0,0,.69,8.32c.25,1.75.62,6.77.62,6.77a19.16,19.16,0,0,0-1.18,4,49.78,49.78,0,0,1-1.66,6.5,58.1,58.1,0,0,0-1.08,7.53,6.12,6.12,0,0,0,.58,3.41c1.25,2.16,3.77,2.07,5.34,2.8s4.42,3,6,3.25a7.75,7.75,0,0,0,2.75,0c1.09,0,4.1-1.44,5.65-2.26s4.74-2,6.68-3.39c1-.73,2.25-2.67,3.83-3.4s5.09-3.62,6.47-4.52,2.91-.78,2.2-2.42-3.37-1.75-4.82-1.54c-2.46.35-4.87,2.25-6.7,3.21s-2.64,1.53-2.33-1.25S290.6,719.91,292.12,718Zm247-7.06c-1.22-1.31-3.76-.53-5.06.15-2.2,1.14-3.84,3.74-5.25,5.25s-2,2.32-2.61-.41,2.52-9.85,3.32-12.11,3.11-8,3.72-9.54,1.75-4.07-.85-5.17-4,3.89-4.63,5-1.74,4-2.38,5.24-3,7.46-4.33,7.18,0-5.31.25-7.14.64-5.8.67-7.22.3-3.8.47-5.26-.25-3.31-2.21-3.52-2.31,1.35-2.46,2.13-.48,3.78-.69,5.06-.83,4.73-1.23,6.66-1.08,6.43-1.18,7.84-1.37,1.83-1.8.79-2.16-8.52-2.37-10-.53-4.7-1.08-7.17-1.68-3.09-2.89-2.79a2.3,2.3,0,0,0-1.85,2.26c0,1,.91,5.73,1,7.72a77.61,77.61,0,0,0,1.13,8c.36,1.78.35,4.12-.37,4.42s-1.66-1.74-2.55-3.19-3.09-5.6-4.12-7.94-2.5-2.56-3.33-2.29-1.46,1.45-1,3.29a56.56,56.56,0,0,0,3.42,7.62c.82,1.57,2.84,6.18,2.84,6.18a18.88,18.88,0,0,0,.22,4.17,49.84,49.84,0,0,1,.59,6.68,57.09,57.09,0,0,0,1.49,7.45,6.17,6.17,0,0,0,1.68,3c1.89,1.62,4.25.7,6,.86s5.17,1.38,6.76,1.07a7.56,7.56,0,0,0,2.57-1c1-.38,3.39-2.71,4.59-4s3.81-3.44,5.17-5.42c.71-1,1.23-3.27,2.48-4.49s3.59-5.1,4.6-6.41S540.32,712.29,539.11,711Zm-78.4,1c.24-1.73-.29-6.23-.3-7.89s.91-2.86-.86-3.15-3.28,1.89-3.89,3.22c-1,2.26-.74,5.32-.92,7.38s-.15,3-2.31,1.27-4.07-9.32-4.82-11.6-2.45-8.23-2.92-9.81-1.12-4.29-3.84-3.56-.79,5.53-.6,6.78,1.06,4.19,1.34,5.6,2.22,7.72,1,8.33-3.28-4.19-4.19-5.79-3.06-5-3.91-6.11-2.09-3.19-2.86-4.45-2.22-2.45-3.9-1.42-1,2.48-.63,3.19,1.94,3.29,2.56,4.42,2.24,4.24,3.12,6,3.09,5.75,3.88,6.92,0,2.28-.94,1.73-6.94-5.4-8-6.41-3.3-3.39-5.25-5-3.22-1.41-4-.43a2.31,2.31,0,0,0-.07,2.93c.62.77,4.23,4,5.54,5.46a77.48,77.48,0,0,0,5.78,5.6c1.38,1.18,2.81,3,2.42,3.71s-2.37-.35-4-.95-5.87-2.52-8.13-3.74-3.54-.49-4,.25-.26,2,1.24,3.2a56.9,56.9,0,0,0,7.38,3.91c1.61.74,6,3.14,6,3.14a19.38,19.38,0,0,0,2.73,3.15,48.35,48.35,0,0,1,4.57,4.91,58.49,58.49,0,0,0,5.75,5,6.27,6.27,0,0,0,3.18,1.35c2.5.11,3.79-2.06,5.25-3s4.93-2.09,6-3.32a7.76,7.76,0,0,0,1.43-2.34c.58-.93,1-4.22,1.16-6s.9-5.06.76-7.46C461.44,715.78,460.47,713.69,460.71,712ZM323.05,667.3c.62-.9,1.19-4.17,1.41-5.92s1.11-5,1.08-7.42c0-1.24-.9-3.36-.59-5.08s0-6.25,0-7.9,1-2.82-.72-3.18-3.36,1.75-4,3.05c-1.12,2.21-1,5.28-1.22,7.33s-.28,3-2.37,1.18-3.67-9.49-4.32-11.8-2.11-8.32-2.51-9.93-.93-4.33-3.68-3.71-1,5.49-.88,6.75.87,4.22,1.1,5.64,1.89,7.81.64,8.37-3.1-4.32-3.94-6-2.84-5.1-3.65-6.27-1.95-3.27-2.67-4.56-2.12-2.55-3.84-1.59-1.1,2.44-.76,3.16,1.8,3.36,2.37,4.52,2.07,4.34,2.86,6.15,2.85,5.86,3.59,7.07-.06,2.28-1,1.69-6.7-5.69-7.71-6.75-3.16-3.52-5-5.21-3.16-1.55-4-.6a2.31,2.31,0,0,0-.19,2.92c.58.8,4.06,4.14,5.3,5.7a79.62,79.62,0,0,0,5.55,5.83c1.32,1.24,2.67,3.16,2.26,3.81s-2.36-.44-3.93-1.12-5.76-2.76-8-4.07-3.53-.64-4,.07-.35,2,1.1,3.25a55.06,55.06,0,0,0,7.21,4.22c1.57.81,5.89,3.39,5.89,3.39a19.07,19.07,0,0,0,2.6,3.27,50,50,0,0,1,4.36,5.09,57.27,57.27,0,0,0,5.53,5.22A6.23,6.23,0,0,0,310,675.4c2.49.22,3.87-1.9,5.37-2.76s5-1.88,6.13-3.06A7.6,7.6,0,0,0,323.05,667.3Zm28,41.3c1.51-1.86,5.6-6.51,6.68-7.76s3-3.26.91-5.15-5.07,2.32-6,3.16-2.95,3.15-4,4.15-5.3,6-6.48,5.34,1.76-5,2.61-6.66,2.54-5.25,3-6.59,1.55-3.47,2.19-4.8.87-3.2-.91-4.06-2.63.51-3,1.2-1.72,3.41-2.33,4.54-2.36,4.18-3.38,5.87-3.16,5.71-3.72,7-1.91,1.26-2,.14.8-8.75,1.08-10.19,1.06-4.6,1.37-7.11-.56-3.47-1.79-3.6a2.33,2.33,0,0,0-2.51,1.52c-.31.95-1.05,5.71-1.6,7.62a77.28,77.28,0,0,0-1.59,7.9c-.24,1.79-1,4-1.81,4s-1-2.19-1.34-3.86-1.05-6.3-1.26-8.86-1.5-3.24-2.38-3.26-1.85.88-2,2.78a55.23,55.23,0,0,0,.7,8.31c.24,1.76.62,6.78.62,6.78a19.63,19.63,0,0,0-1.19,4,48.23,48.23,0,0,1-1.66,6.5,58.15,58.15,0,0,0-1.07,7.52,6.18,6.18,0,0,0,.57,3.41c1.25,2.16,3.78,2.08,5.35,2.81s4.42,3,6,3.25a7.56,7.56,0,0,0,2.74-.06c1.1,0,4.1-1.43,5.66-2.25s4.74-2,6.68-3.39c1-.73,2.24-2.67,3.83-3.41s5.08-3.61,6.47-4.51,2.9-.79,2.19-2.42-3.37-1.75-4.82-1.54c-2.45.35-4.87,2.25-6.69,3.21s-2.65,1.52-2.33-1.26S349.54,710.46,351.05,708.6ZM-14.1,571.69c1.81.18,5.17,1.38,6.77,1.07a7.56,7.56,0,0,0,2.56-1c1-.38,3.39-2.72,4.59-4s3.81-3.44,5.17-5.42c.71-1,1.23-3.26,2.48-4.48s3.59-5.11,4.6-6.42,2.48-1.7,1.26-3-3.76-.52-5.05.15c-2.2,1.15-3.85,3.75-5.25,5.26s-2,2.32-2.61-.41,2.51-9.86,3.32-12.12,3.1-8,3.71-9.54,1.75-4.07-.85-5.16-4,3.88-4.63,5-1.74,4-2.38,5.24-3,7.45-4.33,7.18,0-5.32.25-7.14.64-5.8.67-7.22.3-3.8.46-5.27-.25-3.3-2.2-3.52S-7.88,522.25-8,523s-.48,3.78-.69,5.06-.83,4.73-1.23,6.66-1.08,6.43-1.17,7.84-1.38,1.83-1.81.79-2.16-8.52-2.37-10-.53-4.7-1.08-7.17-1.68-3.09-2.89-2.79a2.3,2.3,0,0,0-1.85,2.27c0,1,.91,5.72,1,7.71a77.81,77.81,0,0,0,1.13,8c.36,1.77.35,4.11-.36,4.41s-1.66-1.73-2.55-3.19S-25,537-26,534.7s-2.5-2.56-3.33-2.28-1.46,1.44-1,3.29a55.25,55.25,0,0,0,3.43,7.61c.81,1.57,2.83,6.18,2.83,6.18a19.55,19.55,0,0,0,.22,4.17,48.3,48.3,0,0,1,.6,6.68,57.58,57.58,0,0,0,1.49,7.46,6.15,6.15,0,0,0,1.68,3C-18.18,572.45-15.82,571.53-14.1,571.69ZM-2.26,11.41C-1.44,13,.58,17.6.58,17.6A19.44,19.44,0,0,0,.8,21.76a51.61,51.61,0,0,1,.6,6.68A59,59,0,0,0,2.88,35.9a6.31,6.31,0,0,0,1.68,3c1.9,1.62,4.25.7,6,.87s5.17,1.37,6.76,1.06a7.33,7.33,0,0,0,2.57-1c1-.38,3.39-2.71,4.59-4s3.81-3.44,5.17-5.42c.7-1,1.23-3.27,2.47-4.49s3.6-5.1,4.61-6.41,2.47-1.71,1.26-3-3.76-.52-5.06.16c-2.19,1.14-3.84,3.74-5.24,5.26s-2,2.31-2.62-.42,2.52-9.85,3.32-12.11,3.11-8,3.71-9.54,1.75-4.08-.84-5.17-4,3.89-4.64,5-1.73,4-2.37,5.24-3,7.46-4.33,7.18,0-5.31.25-7.14.64-5.8.66-7.22.31-3.8.47-5.26S21-10.79,19.07-11s-2.31,1.35-2.45,2.14-.49,3.78-.69,5S15.1.91,14.7,2.84s-1.08,6.44-1.18,7.85-1.37,1.82-1.8.79S9.56,3,9.35,1.51,8.82-3.18,8.27-5.66,6.59-8.75,5.38-8.45A2.33,2.33,0,0,0,3.52-6.18c0,1,.91,5.73,1,7.72a80.43,80.43,0,0,0,1.14,8c.36,1.77.35,4.12-.36,4.41s-1.67-1.73-2.56-3.19S-.33,5.14-1.37,2.8-3.86.23-4.7.51-6.16,2-5.68,3.8A55.88,55.88,0,0,0-2.26,11.41ZM-45.79,75.62a55.34,55.34,0,0,0,7.8,3c1.69.53,6.38,2.36,6.38,2.36a19.23,19.23,0,0,0,3.1,2.79A50.73,50.73,0,0,1-23.36,88,58,58,0,0,0-17,92.26a6.22,6.22,0,0,0,3.33.94c2.48-.19,3.5-2.51,4.83-3.61s4.63-2.68,5.54-4a7.73,7.73,0,0,0,1.13-2.5c.46-1,.48-4.32.41-6.08s.26-5.13-.18-7.49c-.23-1.22-1.44-3.18-1.42-4.92s-1.07-6.15-1.28-7.79.54-3-1.24-3-3,2.28-3.47,3.68c-.74,2.36-.07,5.37,0,7.43s.23,3-2.14,1.55-5.19-8.74-6.22-10.91-3.46-7.86-4.12-9.37-1.65-4.12-4.25-3-.1,5.59.25,6.8,1.56,4,2,5.38,3.16,7.39,2,8.15-3.78-3.75-4.88-5.23-3.65-4.55-4.64-5.57-2.47-2.9-3.39-4.06-2.51-2.15-4.05-.92-.68,2.59-.22,3.24,2.33,3,3.09,4.06,2.75,3.94,3.84,5.59,3.78,5.31,4.71,6.37.32,2.27-.72,1.84-7.55-4.5-8.72-5.37-3.7-2.94-5.83-4.3-3.37-1-4,.07a2.32,2.32,0,0,0,.29,2.91c.72.69,4.7,3.4,6.18,4.73a80.2,80.2,0,0,0,6.44,4.84c1.51,1,3.16,2.66,2.87,3.37s-2.4,0-4.06-.44-6.14-1.78-8.54-2.7-3.57,0-4,.75S-47.43,74.65-45.79,75.62Zm-17.88,61.86c.87.48,5.42,2.05,7.2,3a76.06,76.06,0,0,0,7.49,3c1.71.57,3.74,1.75,3.64,2.51s-2.32.59-4,.63-6.39-.1-8.94-.36-3.47.9-3.64,1.76.53,2,2.37,2.49a56.45,56.45,0,0,0,8.3.81c1.77.07,6.78.61,6.78.61a19.29,19.29,0,0,0,3.73,1.88,48.24,48.24,0,0,1,6.09,2.8,58.09,58.09,0,0,0,7.21,2.41A6.29,6.29,0,0,0-24,159c2.35-.85,2.72-3.35,3.72-4.76s3.76-3.8,4.28-5.34a7.91,7.91,0,0,0,.44-2.71c.18-1.09-.68-4.3-1.2-6s-1.1-5-2.14-7.19c-.54-1.12-2.22-2.68-2.66-4.37s-2.65-5.66-3.28-7.18-.25-3-2-2.59-2.32,3-2.38,4.46c-.09,2.48,1.34,5.2,2,7.17s1,2.87-1.66,2.06-7.3-7.08-8.86-8.9-5.4-6.68-6.44-8-2.66-3.54-4.9-1.83,1.37,5.41,2,6.5,2.56,3.46,3.36,4.66,5,6.3,4.09,7.32-4.63-2.62-6.08-3.76-4.71-3.44-5.93-4.16-3.15-2.15-4.34-3-3-1.43-4.15.16,0,2.68.64,3.2,3,2.3,4,3.1,3.69,3.08,5.17,4.38,5,4.14,6.22,4.92.9,2.1-.21,2-8.47-2.36-9.83-2.89-4.33-1.87-6.75-2.63-3.52-.07-3.86,1.12A2.32,2.32,0,0,0-63.67,137.48ZM58.8,47.28a7.7,7.7,0,0,0,2,1.92c.78.78,3.89,1.94,5.56,2.48s4.73,2,7.1,2.42c1.22.21,3.47-.26,5.11.36s6.14,1.12,7.75,1.48,2.59,1.54,3.26-.12-1.1-3.63-2.26-4.52c-2-1.51-5-1.92-7-2.55s-2.94-.84-.73-2.55,10-1.86,12.39-2.07,8.57-.54,10.22-.64,4.43-.12,4.33-2.94-5.21-2-6.47-2.11-4.31.09-5.75.05-8,.42-8.34-.91,4.82-2.25,6.58-2.78,5.54-1.85,6.84-2.43,3.57-1.32,5-1.78,2.89-1.62,2.27-3.48-2.2-1.53-3-1.33-3.64,1.14-4.88,1.49S94.12,28.5,92.2,29s-6.3,1.72-7.62,2.23-2.23-.48-1.47-1.31,6.83-5.54,8-6.33,4-2.46,6-4,2.1-2.83,1.32-3.8A2.33,2.33,0,0,0,95.69,15c-.89.43-4.81,3.23-6.57,4.17a77.92,77.92,0,0,0-6.76,4.38c-1.46,1.07-3.59,2-4.16,1.52s.87-2.24,1.82-3.66,3.78-5.15,5.47-7.08,1.28-3.34.68-4-1.93-.72-3.4.49a54.47,54.47,0,0,0-5.47,6.3c-1.09,1.4-4.42,5.18-4.42,5.18a19.47,19.47,0,0,0-3.69,1.94,48.61,48.61,0,0,1-5.81,3.35,57.84,57.84,0,0,0-6.15,4.48,6.2,6.2,0,0,0-2,2.79c-.68,2.41,1.14,4.16,1.72,5.79S57.84,46,58.8,47.28ZM-68.73,263.14a19.27,19.27,0,0,0-.59,4.13,50.65,50.65,0,0,1-.71,6.67,56.64,56.64,0,0,0,0,7.6,6.16,6.16,0,0,0,1.06,3.3c1.55,2,4,1.51,5.69,2s4.81,2.36,6.43,2.36a7.89,7.89,0,0,0,2.71-.45c1.09-.18,3.85-2,5.28-3s4.4-2.64,6.12-4.32c.89-.87,1.84-3,3.3-3.92s4.52-4.31,5.76-5.4,2.76-1.19,1.82-2.71-3.58-1.24-5-.83c-2.38.7-4.49,2.93-6.17,4.14s-2.39,1.89-2.48-.91,4.38-9.18,5.61-11.24,4.6-7.25,5.49-8.64,2.51-3.66.17-5.23-4.69,3-5.51,4-2.47,3.54-3.34,4.68-4.38,6.74-5.65,6.21,1-5.22,1.63-7,1.76-5.56,2.05-6.95,1-3.67,1.49-5.07.39-3.29-1.49-3.88-2.53.87-2.82,1.62-1.21,3.61-1.66,4.82-1.73,4.48-2.5,6.3-2.31,6.1-2.67,7.47-1.71,1.52-1.93.42-.46-8.78-.39-10.24.39-4.71.33-7.24-1-3.36-2.29-3.3a2.33,2.33,0,0,0-2.26,1.87c-.17,1-.22,5.79-.49,7.77a77,77,0,0,0-.44,8c0,1.81-.46,4.11-1.21,4.26s-1.3-2-1.89-3.63-1.94-6.09-2.51-8.58-2-3-2.82-2.89-1.71,1.13-1.61,3a55,55,0,0,0,1.89,8.13C-69.82,258.23-68.73,263.14-68.73,263.14ZM32.39,58.43c-1.71,1-1.1,2.44-.76,3.17S33.43,65,34,66.11s2.07,4.34,2.86,6.15,2.85,5.86,3.59,7.07-.06,2.28-1,1.69-6.7-5.69-7.71-6.75-3.16-3.52-5-5.21-3.16-1.55-4-.6a2.31,2.31,0,0,0-.19,2.92c.58.8,4.06,4.14,5.3,5.7s4.23,4.6,5.55,5.84,2.67,3.15,2.26,3.8-2.36-.44-3.93-1.12-5.76-2.76-8-4.07-3.53-.64-4,.07-.35,2,1.1,3.25A55.62,55.62,0,0,0,28,89.07c1.58.81,5.9,3.39,5.9,3.39a19.07,19.07,0,0,0,2.6,3.27,49.09,49.09,0,0,1,4.36,5.1A58.4,58.4,0,0,0,46.4,106a6.23,6.23,0,0,0,3.12,1.49c2.49.22,3.87-1.9,5.37-2.76s5-1.88,6.13-3.06a7.6,7.6,0,0,0,1.53-2.28c.62-.9,1.19-4.17,1.41-5.92s1.11-5,1.08-7.42c0-1.24-.9-3.36-.59-5.08s0-6.25,0-7.9,1-2.82-.72-3.18-3.36,1.75-4,3c-1.12,2.21-1,5.28-1.22,7.33s-.28,3-2.37,1.18S52.47,72,51.82,69.69s-2.11-8.32-2.51-9.93-.93-4.33-3.68-3.71-1,5.49-.88,6.75.87,4.22,1.1,5.64,1.89,7.81.64,8.37-3.1-4.32-3.94-6-2.84-5.1-3.65-6.27S37,61.31,36.23,60,34.11,57.47,32.39,58.43Zm30.5-79.25a7.67,7.67,0,0,0,.93,2.58c.37,1,2.67,3.43,3.94,4.65s3.38,3.86,5.34,5.25c1,.72,3.25,1.28,4.45,2.54s5,3.67,6.34,4.7,1.67,2.5,3,1.3.58-3.75-.08-5c-1.11-2.22-3.69-3.9-5.18-5.33s-2.28-2,.45-2.6,9.82,2.66,12.07,3.5S102.1-6,103.63-5.43s4.05,1.81,5.18-.77-3.82-4.07-4.92-4.71-3.92-1.79-5.2-2.45-7.41-3.1-7.12-4.43,5.31.06,7.14.35,5.78.73,7.21.77,3.79.37,5.25.55,3.31-.2,3.55-2.15-1.31-2.34-2.1-2.49-3.77-.54-5-.76-4.72-.91-6.65-1.34S94.52-24,93.11-24.15s-1.81-1.4-.76-1.82,8.55-2,10-2.22,4.7-.46,7.18-1,3.11-1.63,2.83-2.85a2.3,2.3,0,0,0-2.24-1.88c-1,0-5.73.82-7.72.9a75.91,75.91,0,0,0-8,1c-1.77.33-4.12.28-4.4-.43s1.75-1.64,3.22-2.51,5.64-3,8-4,2.6-2.46,2.34-3.29-1.43-1.49-3.28-1a55.44,55.44,0,0,0-7.66,3.31c-1.59.79-6.23,2.75-6.23,2.75a19.41,19.41,0,0,0-4.17.15,49.21,49.21,0,0,1-6.68.5,57.63,57.63,0,0,0-7.48,1.38,6.2,6.2,0,0,0-3,1.63c-1.65,1.87-.76,4.24-1,6S62.6-22.42,62.89-20.82Zm-144.55,404c.87.48,5.42,2.06,7.2,2.95a77.05,77.05,0,0,0,7.49,3c1.71.57,3.75,1.75,3.65,2.51s-2.33.59-4,.63-6.39-.1-8.94-.36-3.46.9-3.63,1.76.52,2,2.36,2.49a56.58,56.58,0,0,0,8.31.81c1.77.07,6.78.61,6.78.61a19.43,19.43,0,0,0,3.72,1.88,47.6,47.6,0,0,1,6.09,2.8,59.21,59.21,0,0,0,7.21,2.41,6.29,6.29,0,0,0,3.46.05c2.35-.85,2.72-3.35,3.72-4.76s3.76-3.8,4.28-5.34a7.62,7.62,0,0,0,.44-2.71c.18-1.09-.67-4.29-1.2-6s-1.09-5-2.13-7.19c-.54-1.12-2.23-2.68-2.67-4.37s-2.64-5.66-3.28-7.18-.25-3-2-2.59-2.32,3-2.37,4.46c-.1,2.48,1.34,5.2,2,7.17s1,2.87-1.65,2.06-7.31-7.08-8.87-8.9-5.4-6.68-6.44-8-2.66-3.54-4.9-1.83,1.38,5.41,2,6.5,2.56,3.46,3.37,4.66,5,6.3,4.08,7.33-4.62-2.63-6.07-3.77-4.72-3.44-5.94-4.16-3.14-2.15-4.33-3-3-1.42-4.16.16,0,2.68.64,3.2,3,2.3,4,3.11,3.7,3.07,5.17,4.38,5.05,4.13,6.23,4.91.9,2.1-.22,2-8.46-2.36-9.82-2.89-4.34-1.87-6.76-2.63-3.51-.07-3.85,1.12A2.31,2.31,0,0,0-81.66,383.13Zm25.41,229.72a19.23,19.23,0,0,0,3.1,2.79,48.43,48.43,0,0,1,5.15,4.3,56.5,56.5,0,0,0,6.32,4.22,6.22,6.22,0,0,0,3.33,1c2.49-.2,3.5-2.51,4.84-3.61s4.62-2.69,5.53-4a7.38,7.38,0,0,0,1.13-2.5c.46-1,.48-4.32.41-6.07s.26-5.13-.18-7.5c-.22-1.22-1.44-3.17-1.42-4.92s-1.07-6.15-1.28-7.78.54-3-1.24-3-3,2.29-3.47,3.69c-.74,2.36-.07,5.36,0,7.42s.23,3.05-2.14,1.56-5.19-8.75-6.22-10.91-3.46-7.86-4.12-9.37-1.64-4.12-4.25-3-.1,5.58.25,6.8,1.57,4,2,5.38,3.16,7.39,2,8.14-3.78-3.74-4.88-5.22S-55,585.54-56,584.52s-2.46-2.9-3.39-4-2.51-2.16-4-.93-.67,2.59-.22,3.25,2.33,3,3.09,4.06,2.75,3.93,3.84,5.58,3.78,5.32,4.71,6.38.32,2.26-.71,1.83-7.56-4.49-8.73-5.36-3.69-2.95-5.83-4.31-3.37-1-4,.07A2.32,2.32,0,0,0-71,594c.71.68,4.69,3.4,6.18,4.73a74.52,74.52,0,0,0,6.44,4.83c1.5,1,3.16,2.67,2.86,3.38s-2.4,0-4.06-.45-6.14-1.77-8.53-2.69-3.58,0-4,.74,0,2.06,1.63,3a54.14,54.14,0,0,0,7.8,3C-60.94,611-56.25,612.85-56.25,612.85Zm83.37,56.39c-.28-1.21-1.59-3.1-1.65-4.84s-1.37-6.1-1.66-7.72.4-3-1.39-3-2.91,2.43-3.28,3.84c-.63,2.4.19,5.37.37,7.42s.38,3-2.06,1.66-5.61-8.48-6.75-10.6-3.83-7.68-4.57-9.16-1.84-4-4.39-2.84.18,5.58.58,6.78,1.76,3.94,2.29,5.28,3.51,7.22,2.41,8-3.95-3.56-5.13-5S-2,654.78-3,653.81s-2.6-2.78-3.58-3.88-2.61-2-4.09-.73-.55,2.62-.06,3.25,2.47,2.9,3.28,3.91,2.94,3.79,4.1,5.39,4,5.12,5,6.14.43,2.24-.63,1.86-7.76-4.12-9-4.94-3.84-2.76-6-4-3.42-.83-4,.26a2.32,2.32,0,0,0,.43,2.9c.75.65,4.85,3.17,6.4,4.43a79.08,79.08,0,0,0,6.67,4.51c1.55.93,3.28,2.51,3,3.24s-2.4.07-4.07-.25-6.22-1.47-8.66-2.28-3.57.13-3.93.93.09,2.06,1.78,2.94a54.39,54.39,0,0,0,7.94,2.58c1.71.46,6.48,2.06,6.48,2.06a18.87,18.87,0,0,0,3.24,2.63,50.58,50.58,0,0,1,5.34,4,58.67,58.67,0,0,0,6.53,3.91,6.28,6.28,0,0,0,3.36.79c2.48-.32,3.38-2.68,4.66-3.85s4.49-2.9,5.33-4.29a7.55,7.55,0,0,0,1-2.56c.41-1,.27-4.33.11-6.08S27.68,671.58,27.12,669.24ZM-30.77,708.6c1.51-1.86,5.6-6.51,6.68-7.76s3-3.26.91-5.15-5.07,2.32-6,3.16-2.95,3.15-4,4.15-5.3,6-6.48,5.34,1.76-5,2.61-6.66,2.54-5.25,3-6.59,1.55-3.47,2.19-4.8.87-3.2-.91-4.06-2.63.51-3,1.2-1.72,3.41-2.33,4.54-2.36,4.18-3.38,5.87-3.16,5.71-3.72,7-1.91,1.26-2,.14.8-8.75,1.08-10.19,1.06-4.6,1.37-7.11-.56-3.47-1.79-3.6A2.33,2.33,0,0,0-49,685.61c-.31.95-1.05,5.71-1.6,7.62a77.28,77.28,0,0,0-1.59,7.9c-.24,1.79-1,4-1.81,4s-1-2.19-1.34-3.86-1-6.3-1.26-8.86-1.5-3.24-2.38-3.26-1.85.88-2,2.78a55.23,55.23,0,0,0,.7,8.31c.24,1.76.62,6.78.62,6.78a19.63,19.63,0,0,0-1.19,4,48.23,48.23,0,0,1-1.66,6.5,58.15,58.15,0,0,0-1.07,7.52,6.18,6.18,0,0,0,.57,3.41c1.25,2.16,3.78,2.08,5.35,2.81s4.42,3,6,3.25a7.56,7.56,0,0,0,2.74-.06c1.1,0,4.1-1.43,5.66-2.25s4.74-2,6.68-3.39c1-.73,2.24-2.67,3.83-3.41s5.08-3.61,6.47-4.51,2.9-.79,2.19-2.42-3.37-1.75-4.82-1.54c-2.45.35-4.87,2.25-6.69,3.21s-2.65,1.52-2.33-1.26S-32.28,710.46-30.77,708.6Zm-43-237.23a6.24,6.24,0,0,0,1.07,3.29c1.54,2,4,1.52,5.69,2s4.8,2.35,6.43,2.36a8,8,0,0,0,2.71-.45c1.08-.18,3.85-2,5.27-3s4.41-2.64,6.13-4.32c.89-.87,1.84-3,3.3-3.92s4.51-4.31,5.76-5.4,2.76-1.19,1.82-2.71-3.59-1.24-5-.83c-2.38.7-4.5,2.93-6.17,4.14s-2.4,1.89-2.48-.91,4.38-9.18,5.61-11.24,4.6-7.25,5.49-8.64,2.5-3.66.17-5.23-4.69,3-5.51,4-2.47,3.54-3.35,4.68-4.38,6.74-5.64,6.21,1-5.22,1.63-7,1.75-5.56,2-6.95,1-3.67,1.48-5.08.4-3.28-1.48-3.88-2.53.88-2.82,1.62-1.21,3.62-1.66,4.83-1.73,4.48-2.5,6.3-2.31,6.1-2.68,7.46-1.7,1.53-1.92.43-.47-8.78-.39-10.24.39-4.71.33-7.24-1-3.36-2.29-3.3A2.31,2.31,0,0,0-65,430.22c-.18,1-.22,5.79-.5,7.76a80.1,80.1,0,0,0-.43,8c0,1.8-.46,4.1-1.21,4.25s-1.3-2-1.89-3.62-2-6.09-2.51-8.59-1.95-3-2.83-2.88-1.71,1.13-1.6,3a55.66,55.66,0,0,0,1.88,8.13c.5,1.71,1.59,6.62,1.59,6.62a19.75,19.75,0,0,0-.6,4.13,49.17,49.17,0,0,1-.71,6.67A58.36,58.36,0,0,0-73.77,471.37Zm4.94,73.42c1.42-1.13,4.68-2.58,5.62-3.91A7.79,7.79,0,0,0-62,538.41c.48-1,.57-4.31.54-6.07s.38-5.12,0-7.49c-.2-1.23-1.37-3.21-1.31-5s-.93-6.17-1.11-7.82.62-2.94-1.17-3.05-3.08,2.22-3.54,3.61c-.8,2.34-.19,5.36-.16,7.42s.16,3.05-2.17,1.51-5-8.86-6-11.05-3.28-7.93-3.91-9.46-1.55-4.15-4.18-3.15-.22,5.59.1,6.81,1.47,4,1.9,5.43,3,7.45,1.84,8.18-3.69-3.83-4.76-5.33-3.54-4.64-4.51-5.68-2.4-2.95-3.3-4.13-2.46-2.21-4-1-.74,2.57-.3,3.24,2.26,3.06,3,4.13,2.67,4,3.72,5.66,3.66,5.4,4.57,6.48.26,2.28-.76,1.82-7.45-4.66-8.6-5.56-3.63-3-5.73-4.43-3.35-1.08-4,0a2.31,2.31,0,0,0,.23,2.92c.69.71,4.61,3.51,6.07,4.88a76,76,0,0,0,6.33,5c1.48,1,3.09,2.74,2.78,3.44s-2.39-.1-4.05-.54-6.1-1.9-8.46-2.88-3.58-.12-4,.65S-107,529-105.43,530a54.06,54.06,0,0,0,7.74,3.13c1.67.58,6.32,2.51,6.32,2.51a18.81,18.81,0,0,0,3,2.86,49.05,49.05,0,0,1,5,4.42A57.57,57.57,0,0,0-77,547.27a6.14,6.14,0,0,0,3.3,1C-71.26,548.15-70.2,545.86-68.83,544.79Z"/></clipPath></defs><g class="cls-2"><g id="Layer_2" data-name="Layer 2"><g id="Layer_1-2" data-name="Layer 1"><g class="cls-3"><g class="cls-4"><path class="cls-5" d="M-108.37,742.86S46.66,611.25,48.46,609.7s6.31-4.93,9.9-6.19,13.36-4.82,17-7,11.19-6.72,14.23-7.71,8.67-5.11,8.67-5.11,12-2.08,16.23-2.54,15.53-1.76,19.87-3.26,5.87-4.31,5.31-6.36-2.94-4.69-9-3.66-17.35,2.12-21.46,2.28-9.46.93-9.82-.89,4.34-5,8.39-6.61a191.69,191.69,0,0,0,17.55-8.35c4.16-2.43,14.87-7,16.88-8.24a5.58,5.58,0,0,0,2.09-6.75c-1-2.83-3.77-4.28-9.47-2.09s-12.66,5.88-15.85,7.38-20.55,8-23.21,8.52-3.53-2.61-.82-4.68,10.85-9.45,14.21-12.83,9.47-9.25,11.76-11.36,7.86-6.78,9.25-8.12,4.07-4.15,1-7.79-7.29-2-10,.25-7.14,6-10,8-10.32,8-13.64,11-11.7,12.35-14,10,6.94-15.29,8.69-18.29,6-9,7.37-11.75,9.52-12.2,3.86-16-9.22,1.9-11.52,5.17S81.11,512.3,77.64,516.93s-13.63,20.46-20,22.83-5.49.14-4.32-4.7,4.21-11.62,3.59-17.57c-.37-3.51-2.18-9.67-6.43-10.37s-3.1,2.77-4.39,6.55-6,13.67-6.76,17.81-4.6,8.18-5.72,11c-2.17,5.38-3,13.52-4,17.64s-2.55,12-1.94,14.56-157,133.17-162,137.14l25.8,31.38" transform="translate(134.31 150.86)"/><path class="cls-6" d="M-72.29,216.35s185.89,112,187.94,113.17,7.1,3.8,10.87,4.43,14.07,2.47,18,4,12.25,4.73,15.43,5.18,9.48,3.58,9.48,3.58,12.22,0,16.51-.29,15.69-.93,20.26-.19,6.55,3.27,6.36,5.39-2.11,5.16-8.33,5.19-17.56.88-21.67,1.44-9.52.7-9.57,2.57,5.16,4.18,9.45,5.1a191,191,0,0,1,18.83,5.26c4.54,1.69,15.93,4.32,18.15,5.25a5.61,5.61,0,0,1,3.23,6.33c-.51,3-3,4.89-9,3.7s-13.56-3.65-17-4.59-21.75-4.38-24.47-4.44-3.05,3.2,0,4.78,12.38,7.49,16.29,10.26,11,7.54,13.61,9.24,8.95,5.37,10.56,6.45,4.75,3.42,2.36,7.55-6.87,3.26-10,1.47-8.12-4.74-11.25-6.17-11.6-6.15-15.4-8.52-13.73-10.22-15.64-7.51,9.51,14,11.75,16.63,7.48,7.94,9.34,10.38,11.53,10.45,6.57,15.16-9.47-.3-12.3-3.14-13.36-13.56-17.59-17.55-17-17.93-23.71-19.19-5.46.81-3.46,5.4,6.17,10.79,6.58,16.8c.24,3.53-.5,10-4.59,11.38s-3.55-2.22-5.47-5.74-8.27-12.52-9.77-16.48-6-7.31-7.56-9.88c-3.08-5-5.31-12.87-7-16.79s-4.6-11.43-4.44-14.09S-77.42,262.92-83,259.84" transform="translate(134.31 150.86)"/><path class="cls-7" d="M90.29,387.86c-2-.73-5.53-.28-8.19,5.3S73.86,408.58,71.62,412s-4.66,8.28-6.36,7.53-1.58-6.42-.6-10.67a186.68,186.68,0,0,0,3.25-19.17c.4-4.79,2.86-16.16,3-18.55a5.59,5.59,0,0,0-4.32-5.59c-2.9-.8-5.68.62-7.16,6.55s-2.46,13.75-3.06,17.22-5.27,21.43-6.37,23.9-4.16,1.39-4.3-2-1.5-14.31-2.33-19-2.14-13.07-2.55-16.16-1-10.33-1.33-12.24-1.06-5.72-5.79-5.32-5.85,4.8-5.55,8.35.82,9.31.79,12.73.62,13,1.14,17.47,3.39,16.68.13,17.25-8.53-14.47-10-17.62-4-10.08-5.39-12.79-4.51-14.8-10.86-12.34S.2,380.22,1.56,384,8.1,401.73,9.9,407.24s8.92,22.91,7.23,29.46-3,4.57-6.33.82-7.09-10.12-12.32-13c-3.09-1.71-9.18-3.77-12.19-.69s.49,4.13,2.85,7.35S-3.1,443.9-.17,446.92s4.05,8.47,5.68,11c3.16,4.87,9.34,10.23,12.14,13.42s8.34,9,10.81,10a18.34,18.34,0,0,0,6.13,2.5c3.84.85,12-1.82,16.4-2.13,4.17-.29,9.79,2.09,14.47-1.7,2.48-2,3.79-5.53,4.25-7.18,1-3.66,3.74-13.71,4.07-17.91s.93-13,1.87-16.08.8-10,.8-10,5.18-11,7.24-14.74,7.49-13.73,8.76-18.15S92.28,388.59,90.29,387.86Z" transform="translate(134.31 150.86)"/><path class="cls-7" d="M108.11-13.18c-1.44-.86-4.24-1-7.12,2.9S92.35.46,90.11,2.82s-4.83,5.73-6,4.9-.29-5.2,1.1-8.35A152.34,152.34,0,0,0,90.51-15c1-3.66,4.57-12.1,5-13.94a4.41,4.41,0,0,0-2.54-5c-2.12-1.05-4.48-.35-6.5,4S82.56-19.6,81.59-17,74.37-1.17,73.15.59s-3.43.46-3-2.2.94-11.3,1-15.06.26-10.44.4-12.89.7-8.16.76-9.68,0-4.58-3.71-5S63.31-41.35,63-38.55s-.73,7.33-1.26,10-1.43,10.19-1.67,13.7.18,13.41-2.43,13.38S53.17-13.95,52.51-16.6s-1.6-8.4-2.3-10.71-1.33-12.12-6.6-11.14-4.17,6.15-3.67,9.26S42.41-14.48,43-9.95s3.55,19.06,1.28,23.88-3,3.1-5-.29-4-8.88-7.64-11.9C29.48,0,25.07-2.52,22.28-.58s-.22,3.27,1.13,6.11,4.14,11,6,13.79,1.9,7.15,2.79,9.34c1.74,4.24,5.74,9.3,7.44,12.18s5.15,8.17,6.91,9.3A14.64,14.64,0,0,0,50.91,53c2.84,1.23,9.57.35,13,.76,3.27.39,7.28,3.05,11.46.8a11.89,11.89,0,0,0,4.35-4.94c1.33-2.68,4.9-10.07,5.77-13.27s2.63-10,3.81-12.19,2.09-7.66,2.09-7.66S97,8.71,99.17,6.11,107-3.42,108.61-6.66,109.55-12.33,108.11-13.18Z" transform="translate(134.31 150.86)"/><path class="cls-8" d="M-44.4,62c1.6-.47,3.63-2.38,2.74-7.14s-1.93-13.56-2.11-16.79-.88-7.39.54-7.71,4,3.33,5.31,6.48a149.19,149.19,0,0,0,6.81,13.63c2,3.21,5.67,11.54,6.71,13.1a4.38,4.38,0,0,0,5.32,1.54c2.2-.84,3.3-3,1.5-7.46s-4.81-9.83-6-12.31-6.58-16-7-18.06,2-2.8,3.66-.71,7.56,8.36,10.26,10.94,7.4,7.28,9.09,9,5.43,6,6.5,7.12,3.32,3.12,6.12.69,1.48-5.75-.35-7.85S-.18,41-1.75,38.84s-6.42-8-8.8-10.52-9.85-9-8.06-10.85S-6.52,22.67-4.14,24,3,28.54,5.18,29.6s9.7,7.27,12.57,2.78-1.63-7.2-4.23-9-12.35-8.2-16-10.85S-18.75,2.2-20.71-2.71-20.9-7-17.09-6.17-7.92-3-3.26-3.62c2.74-.34,7.54-1.86,8-5.2S2.55-11.2-.44-12.16s-10.8-4.47-14.06-5-6.47-3.49-8.67-4.33c-4.25-1.61-10.64-2.15-13.88-2.87s-9.43-1.82-11.44-1.3a14.16,14.16,0,0,0-5,1.25c-2.82,1.23-6.76,6.71-9.39,8.93s-7.15,3.21-8.37,7.77a11.78,11.78,0,0,0,.64,6.51c1,2.79,4,10.4,5.7,13.21s5.44,8.67,6.26,11,4.14,6.72,4.14,6.72,1.81,9.35,2.23,12.68,1.61,12.14,2.86,15.52S-46,62.47-44.4,62Z" transform="translate(134.31 150.86)"/><path class="cls-7" d="M74.15,217c-1.14,0-2.81.92-3.05,4.21s-1.12,9.25-1.57,11.4-.72,5-1.71,5-2-2.88-2.35-5.18a102.47,102.47,0,0,0-2.08-10.16c-.73-2.46-1.7-8.58-2.11-9.79a3,3,0,0,0-3.23-2c-1.59.16-2.7,1.41-2.29,4.64s1.43,7.31,1.8,9.15S59.07,236,59,237.41s-1.8,1.49-2.53-.18-3.5-6.82-4.82-9-3.58-6.09-4.38-7.54-2.51-4.94-3-5.83-1.63-2.64-3.91-1.53-2,3.52-1.15,5.22S41.4,223,42,224.74s2.83,6.36,3.94,8.46,4.9,7.64,3.39,8.55-7-5.55-8.36-6.83-3.92-4.25-5.15-5.32-5.09-6.49-7.77-4-.19,5,1.21,6.62,6.67,7.57,8.63,10,8.85,9.67,9.27,13.24-.63,2.86-3,1.64-5.48-3.67-8.64-4.11c-1.87-.25-5.29-.1-6.2,2s1.05,2,2.84,3.11,6.31,4.83,8.36,5.77,3.64,3.43,4.94,4.37c2.51,1.81,6.61,3.28,8.62,4.33s5.87,2.85,7.29,2.86a9.5,9.5,0,0,0,3.53.07c2.07-.32,5.62-3.23,7.74-4.22s5.27-.86,6.86-3.64a8,8,0,0,0,.73-4.39,73.26,73.26,0,0,0-1.43-9.68c-.64-2.15-2-6.66-2.17-8.36A24.62,24.62,0,0,0,75.15,240s.46-6.47.76-8.73,1.08-8.26.85-10.7S75.28,217,74.15,217Z" transform="translate(134.31 150.86)"/><path class="cls-7" d="M-6.09,171.63c.37,1.16,0,3.17-3.21,4.57s-9,4.37-11,5.57-4.84,2.48-4.45,3.47,3.63,1,6.09.58,8.29-1.3,11.05-1.43S1.65,183.13,3,183.12a3.2,3.2,0,0,1,3.1,2.6c.39,1.68-.49,3.24-3.91,3.95s-7.93,1.1-9.93,1.37-12.38,2.53-13.83,3.1-.89,2.35,1.06,2.51,8.16,1.18,10.83,1.76,7.43,1.52,9.19,1.83,5.89.82,7,1,3.25.73,2.91,3.43-2.88,3.24-4.9,3S-.78,207-2.74,207s-7.46-.65-10-1.05-9.47-2.31-9.87-.46,8.09,5.21,9.86,6.11,5.69,2.5,7.21,3.37,8.37,2.92,6.81,6.5-5,1.94-7.15,1.08-10-4.15-13.13-5.3-12.92-5.62-16.7-4.8-2.69,1.63-.62,3.6,5.64,4.29,7.19,7.35c.91,1.8,1.95,5.34.12,7s-2.36-.37-4.15-1.79-7.12-4.73-8.79-6.48-4.75-2.51-6.16-3.5c-2.71-1.92-5.64-5.58-7.41-7.25s-4.94-5-5.45-6.41a10.41,10.41,0,0,1-1.3-3.57c-.4-2.21,1.32-6.84,1.59-9.34s-1-5.65,1.3-8.24a8.65,8.65,0,0,1,4.21-2.28,82.69,82.69,0,0,1,10.34-1.92c2.41-.1,7.48-.24,9.25-.71a27,27,0,0,1,5.76-.23s6.42-2.72,8.61-3.81,8-4,10.58-4.61S-6.46,170.47-6.09,171.63Z" transform="translate(134.31 150.86)"/><path class="cls-7" d="M131,671.06c1.17-.66,2.43-2.53.86-6.13s-4-10.35-4.71-12.86-2-5.67-1-6.18,3.74,1.91,5.37,4.14a119.31,119.31,0,0,0,7.84,9.53c2.13,2.18,6.56,8.08,7.67,9.12a3.55,3.55,0,0,0,4.47.25c1.59-1.06,2.06-3-.17-6.15s-5.57-6.89-7-8.62-8.09-11.43-8.82-13,1.07-2.58,2.76-1.23,7.48,5.23,10.08,6.78,7.15,4.4,8.8,5.49,5.39,3.79,6.43,4.44,3.18,1.87,4.95-.57.12-4.8-1.7-6.13-4.8-3.46-6.43-4.9-6.52-5.12-8.85-6.71-9.41-5.31-8.33-7.1,10.48,1.92,12.6,2.53,6.48,2.28,8.37,2.73,9,4,10.42-.08-2.59-5.39-5-6.3-11.23-4.23-14.61-5.66-14.69-5.24-17.13-8.77-.93-3.35,2.23-3.37,7.8.8,11.37-.5c2.1-.77,5.62-2.83,5.39-5.56s-2.18-1.48-4.71-1.69-9.33-1.57-12-1.42-5.74-1.57-7.63-1.84c-3.64-.5-8.78.23-11.47.25s-7.77.27-9.26,1a11.3,11.3,0,0,0-3.75,1.9c-2,1.48-4.12,6.52-5.79,8.74s-5.06,3.83-5.19,7.65a9.51,9.51,0,0,0,1.68,5c1.32,2,5,7.49,6.89,9.39s5.86,5.85,6.93,7.57a29.41,29.41,0,0,0,4.49,4.55s3.12,7,4.06,9.6,3.47,9.29,5.06,11.73S129.84,671.71,131,671.06Z" transform="translate(134.31 150.86)"/><path class="cls-7" d="M369.62,641.94c-.81,1.16-1.13,3.52,2,6.19s8.54,8,10.4,10,4.54,4.43,3.76,5.4-4.41-.08-7-1.44A126.29,126.29,0,0,0,367,656.69c-3-1.07-9.94-4.6-11.46-5.08a3.73,3.73,0,0,0-4.35,1.83c-1,1.73-.57,3.77,3,5.74s8.45,3.94,10.59,4.93,12.92,7.06,14.33,8.2.18,2.92-2,2.43-9.49-1.49-12.66-1.75-8.8-.86-10.87-1.13-6.84-1.1-8.12-1.23-3.87-.3-4.43,2.82,2.1,4.6,4.44,5,6.15,1.06,8.35,1.67,8.53,1.84,11.47,2.26,11.34.67,11.15,2.87-10.79,3-13.07,3.43-7.19.83-9.18,1.28-10.33.38-9.82,4.89,4.93,3.9,7.59,3.66,12.58-1.18,16.44-1.4,16.31-1.82,20.25.39,2.42,2.74-.55,4.22-7.75,2.85-10.53,5.72c-1.63,1.7-4,5.28-2.53,7.75s2.75.39,5.23-.58,9.56-2.82,12-4.2,6.16-1.16,8.06-1.78c3.69-1.21,8.2-4.28,10.74-5.53s7.22-3.85,8.28-5.27a12.39,12.39,0,0,0,2.67-3.53c1.2-2.33.88-8.07,1.43-10.94s3-6,1.38-9.63a10,10,0,0,0-3.91-4c-2.18-1.29-8.2-4.76-10.85-5.69s-8.25-2.84-10.06-4-6.34-2.24-6.34-2.24-6.21-5.22-8.27-7.2-7.57-7.18-10.21-8.75S370.43,640.78,369.62,641.94Z" transform="translate(134.31 150.86)"/><path class="cls-8" d="M181.15,452.51c.08,1.35-.83,3.41-4.7,4s-10.87,2.21-13.38,2.94-5.88,1.34-5.73,2.51,3.61,2.12,6.38,2.29a121.11,121.11,0,0,1,12.24,1.5c3,.63,10.34,1.2,11.82,1.57a3.54,3.54,0,0,1,2.61,3.64c0,1.91-1.41,3.34-5.28,3.16s-8.8-1-11-1.26-14-.68-15.69-.46-1.59,2.28.45,3,8.43,3.5,11.13,4.86,7.56,3.67,9.36,4.48,6.09,2.5,7.2,3,3.28,1.68,2.19,4.48-4,2.69-6.09,1.86-5.5-2.19-7.59-2.79-7.82-2.74-10.41-3.86-9.53-5.08-10.47-3.2,7.25,7.8,8.9,9.26,5.41,4.24,6.8,5.59,8.18,5.43,5.53,8.84-5.93.7-8-.8-9.6-7.2-12.62-9.29-12.32-9.57-16.6-9.73-3.33,1-1.65,3.69,4.87,6.15,5.69,9.86c.48,2.18.63,6.26-1.79,7.53s-2.42-1-4-3.06-6.33-7-7.64-9.36-4.42-4-5.65-5.44c-2.39-2.81-4.53-7.54-6-9.81s-3.94-6.7-4.09-8.38a11.38,11.38,0,0,1-.41-4.18c.17-2.49,3.28-7,4.26-9.58s.51-6.33,3.66-8.49a9.46,9.46,0,0,1,5.14-1.28c2.41,0,9,.21,11.62.77s8.09,1.79,10.11,1.78a29.21,29.21,0,0,1,6.25,1.33s7.62-1.15,10.27-1.73,9.7-2.06,12.62-2S181.07,451.17,181.15,452.51Z" transform="translate(134.31 150.86)"/><path class="cls-8" d="M197.21,630.1c3.1.17,7.6,2.78,8,11.81s2.26,25.45,3.3,31.38,1.54,13.8,4.26,13.77,5.79-7.73,6.89-14,4.38-21,6.58-27.65,5.39-23.37,6.62-26.65a8.18,8.18,0,0,1,9-5c4.35.58,7.27,4.08,5.87,12.9s-4.54,19.9-5.72,24.92-5.15,31.83-5.08,35.79,4.81,4.25,6.94-.26,10.19-18.4,14-24.23,10.33-16.36,12.65-20.29,7.3-13.3,8.79-15.7,4.69-7.08,10.82-3.85,5.13,9.81,2.7,14.41-6.43,12-8.34,16.67-8.29,17.2-11.51,22.85S258.91,697.42,263,700s19.74-14.59,23.5-18,11.1-11.3,14.56-14.14,14.53-17.33,21.65-10.39.09,13.77-3.88,18.05-19,20.14-24.52,26.52-25.08,25.74-26.55,35.5,1.48,7.88,8,4.73,15.33-9.57,24-10.49c5.13-.55,14.49.16,16.79,6s-3,5.27-8,8.26-17.73,12.71-23.4,15.11-10.28,9.08-13.92,11.53c-7,4.74-18.41,8.43-24,11.12s-16.35,7.3-20.23,7.22a26.66,26.66,0,0,1-9.68-.13c-5.64-1.05-15.12-9.32-20.84-12.23C191,776,182.13,776,178,768.18c-2.19-4.12-1.92-9.61-1.61-12.1.7-5.51,2.81-20.57,4.76-26.4s6.18-18.06,6.67-22.7,4.66-14,4.66-14-.68-17.76-1.33-24-2.22-22.73-1.4-29.41S194.12,629.94,197.21,630.1Z" transform="translate(134.31 150.86)"/><path class="cls-5" d="M12.13,158.67c.42-1.7-.26-4.57-5.07-6.26S-6.32,147-9.36,145.46s-7.2-3.1-6.73-4.56,5.13-1.86,8.7-1.42a158,158,0,0,0,16,1c4-.1,13.52.93,15.49.8a4.61,4.61,0,0,0,4.21-4c.41-2.45-1-4.6-6-5.3s-11.5-.81-14.41-1-18-2.45-20.17-3.14-1.51-3.3,1.28-3.71S.65,121.6,4.43,120.5s10.54-2.89,13-3.5,8.39-1.76,9.93-2.17,4.6-1.37,3.86-5.21-4.46-4.38-7.34-3.83-7.57,1.49-10.38,1.76S2.88,109.2-.7,110s-13.4,4.24-14.15,1.62,11.13-8.27,13.59-9.74,7.93-4.14,10-5.54,11.75-5,9.17-10-7.42-2.32-10.39-.88-14,6.93-18.36,8.89-18,9.32-23.55,8.51-4-2.1-1.23-5.12,7.68-6.71,9.62-11.26c1.13-2.68,2.29-7.86-.5-10.07s-3.35.77-5.79,3-9.78,7.49-12,10.16-6.6,4.07-8.52,5.63c-3.72,3-7.58,8.56-10,11.13S-69.38,114-70,116.09a15,15,0,0,0-1.52,5.25c-.37,3.22,2.55,9.71,3.18,13.27.6,3.4-.85,8.22,2.66,11.74a12.48,12.48,0,0,0,6.27,2.86c3.09.53,11.58,1.86,15.05,1.77s10.78-.37,13.37.13,8.31-.23,8.31-.23,9.48,3.3,12.74,4.67S2,160.49,5.74,161.14,11.71,160.37,12.13,158.67Z" transform="translate(134.31 150.86)"/><path class="cls-5" d="M207.67,516.36c-1.24,1.24-2.15,4,1.08,8s8.61,11.58,10.41,14.47,4.54,6.4,3.38,7.4-5.35-1.08-8.17-3.31a155.09,155.09,0,0,0-13.17-9.17c-3.45-2-11.07-7.83-12.82-8.75a4.61,4.61,0,0,0-5.69,1.27c-1.62,1.88-1.54,4.45,2.37,7.64s9.4,6.68,11.78,8.35,14.14,11.48,15.6,13.17-.43,3.6-3,2.5-11.21-3.92-15-4.94-10.51-3-13-3.79-8.08-2.86-9.61-3.32-4.64-1.22-6,2.45,1.53,6.06,4.28,7.09,7.24,2.66,9.78,3.89,10,4.13,13.45,5.3,13.65,3.35,12.93,6-13.81,1.28-16.68,1.26-8.92-.59-11.45-.49-12.64-1.84-13,3.77,5.14,5.83,8.42,6.14,15.57,1.37,20.31,2,20.25,1.42,24.54,5,2.34,3.88-1.61,5-10.06,1.73-14.07,4.61c-2.37,1.7-6,5.52-4.81,8.86s3.26,1.08,6.49.46,12.25-1.31,15.55-2.43,7.74,0,10.2-.38c4.75-.64,10.93-3.37,14.29-4.33s9.64-3.07,11.24-4.57a15,15,0,0,0,4-3.7c2-2.56,2.87-9.61,4.19-13,1.25-3.21,5-6.57,3.82-11.4a12.4,12.4,0,0,0-3.87-5.71c-2.36-2.06-8.92-7.61-11.93-9.34s-9.4-5.28-11.35-7.06-7.22-4.12-7.22-4.12-6.38-7.75-8.45-10.61-7.61-10.42-10.47-12.92S208.92,515.13,207.67,516.36Z" transform="translate(134.31 150.86)"/><path class="cls-5" d="M518.07,702.12c-.9-.82-2.86-1.34-5.47,1s-7.68,6.39-9.61,7.74-4.25,3.37-5,2.61.55-3.74,2-5.77a108.91,108.91,0,0,0,5.84-9.44c1.25-2.45,5-7.94,5.57-9.18a3.2,3.2,0,0,0-1.09-3.89c-1.36-1-3.13-.89-5.19,1.93s-4.27,6.74-5.33,8.45-7.4,10.19-8.52,11.27-2.5-.17-1.84-2,2.29-7.89,2.86-10.55,1.69-7.37,2.14-9.1,1.67-5.68,1.93-6.76.67-3.25-1.92-4.06-4.13,1.28-4.73,3.22-1.57,5.1-2.33,6.91-2.48,7-3.16,9.48-1.8,9.55-3.64,9.15-1.4-9.49-1.49-11.47.07-6.18-.09-7.92.8-8.8-3.09-8.86-3.84,3.76-3.93,6-.36,10.8-.6,14.1-.22,14-2.52,17.14-2.59,1.76-3.52-.93-1.58-6.88-3.72-9.54c-1.26-1.58-4-4-6.29-3s-.63,2.29-.08,4.51,1.36,8.41,2.26,10.64.32,5.35.64,7c.62,3.26,2.73,7.43,3.53,9.72s2.47,6.54,3.57,7.59a10.46,10.46,0,0,0,2.7,2.65c1.85,1.27,6.75,1.62,9.13,2.4s4.73,3.21,8,2.22a8.54,8.54,0,0,0,3.8-2.89,80.22,80.22,0,0,0,6-8.59c1.08-2.14,3.3-6.69,4.45-8.1a26.48,26.48,0,0,0,2.58-5.14s5.11-4.7,7-6.23,6.92-5.65,8.54-7.71S519,702.93,518.07,702.12Z" transform="translate(134.31 150.86)"/><path class="cls-5" d="M145.82,314.39c-1.42-1-2.8-3.54-.36-7.95s6.35-12.77,7.59-15.9,3.29-7,2-7.79-5,2-7.37,4.65a152.05,152.05,0,0,1-11.2,11.24c-3,2.54-9.38,9.55-10.92,10.75a4.57,4.57,0,0,1-5.77-.22c-1.9-1.55-2.27-4.07,1-7.86s8-8.14,10-10.19,11.74-13.64,12.86-15.54-1-3.43-3.38-1.91-10.21,5.79-13.73,7.45-9.69,4.77-11.94,6-7.35,4.2-8.76,4.9-4.3,2-6.28-1.32.43-6.16,2.92-7.64,6.58-3.86,8.84-5.51,9-5.76,12.14-7.51,12.69-5.65,11.52-8.08-13.65,1.18-16.43,1.71-8.58,2.13-11,2.48-12,4-13.33-1.37,4-6.58,7.1-7.46,14.9-4.06,19.41-5.47,19.44-4.93,23-9.15,1.6-4.18-2.45-4.6-10.08.08-14.49-2c-2.6-1.24-6.85-4.31-6.23-7.77s3-1.63,6.23-1.59,12.14-.88,15.54-.37,7.54-1.32,10-1.42c4.73-.21,11.22,1.36,14.66,1.7s9.92,1.29,11.74,2.46a15.09,15.09,0,0,1,4.57,2.9c2.38,2.14,4.47,8.84,6.34,11.89s6,5.52,5.73,10.43a12.3,12.3,0,0,1-2.76,6.22c-1.94,2.42-7.34,9-10,11.18s-8.21,6.79-9.8,8.86-6.29,5.28-6.29,5.28-4.85,8.65-6.36,11.8-5.57,11.47-7.91,14.4S147.25,315.37,145.82,314.39Z" transform="translate(134.31 150.86)"/><path class="cls-8" d="M-6,387.94c-1.72.71-4.84.45-7.37-4.35s-7.78-13.23-9.87-16.19-4.39-7.09-5.86-6.37-1.15,5.69-.13,9.38a166.67,166.67,0,0,1,3.54,16.7c.52,4.19,3.09,14.07,3.27,16.17a4.92,4.92,0,0,1-3.6,5.06c-2.51.8-5-.35-6.51-5.49s-2.65-12-3.31-15-5.39-18.6-6.44-20.73S-46,366.05-46,369s-.79,12.61-1.36,16.76-1.4,11.54-1.65,14.27-.54,9.1-.73,10.78-.72,5-4.88,4.88-5.3-4-5.17-7.13.39-8.19.23-11.2.08-11.46.37-15.36,2.37-14.76-.51-15.14-7,13-8.12,15.82-3.12,9-4.26,11.42-3.43,13.14-9.08,11.21-3.59-7.45-2.54-10.8,5.1-15.81,6.48-20.7,7-20.43,5.28-26.1-2.83-3.9-5.58-.5-5.86,9.13-10.34,11.88c-2.65,1.61-7.91,3.64-10.67,1s.28-3.64,2.23-6.55,6.35-11.46,8.81-14.22,3.25-7.57,4.59-9.84c2.6-4.39,7.82-9.31,10.16-12.21s7-8.18,9.12-9.13a16.2,16.2,0,0,1,5.29-2.42c3.34-.88,10.61,1.17,14.46,1.28,3.67.1,8.52-2.18,12.76,1,2.25,1.67,3.52,4.72,4,6.15,1,3.17,3.77,11.89,4.21,15.56s1.29,11.39,2.22,14,1.06,8.78,1.06,8.78,4.95,9.46,6.9,12.67,7.06,11.77,8.33,15.6S-4.24,387.23-6,387.94Z" transform="translate(134.31 150.86)"/><path class="cls-8" d="M.77,685.63c1.15-1.46,4-2.76,8.56.19s13.26,7.72,16.53,9.28,7.3,4,8.22,2.69-1.77-5.52-4.47-8.25a166.32,166.32,0,0,1-11.27-12.82c-2.51-3.4-9.58-10.76-10.76-12.5a4.9,4.9,0,0,1,.66-6.17c1.79-1.93,4.52-2.15,8.36,1.6s8.18,9.13,10.23,11.45S40.64,684.68,42.6,686s3.76-.88,2.29-3.49-5.48-11.38-7-15.27S33.44,656.51,32.32,654s-4-8.2-4.65-9.76-1.84-4.76,1.88-6.65,6.58.9,8,3.68,3.68,7.34,5.28,9.88,5.55,10,7.2,13.58,5.17,14,7.86,13-.3-14.74-.66-17.77-1.69-9.36-1.88-12-3.45-13.14,2.43-14.22,6.78,4.73,7.5,8.17,3.29,16.28,4.49,21.22,3.9,21.23,8.18,25.35,4.37,2,5.11-2.31.63-10.83,3.2-15.42c1.51-2.7,5.11-7,8.78-6.13s1.54,3.31,1.27,6.8.07,13.11-.72,16.72.88,8.19.82,10.83c-.12,5.09-2.26,12-2.88,15.62s-2.1,10.55-3.48,12.42a16.35,16.35,0,0,1-3.44,4.7c-2.47,2.41-9.82,4.18-13.22,6S67,743.67,61.77,743c-2.78-.35-5.37-2.39-6.48-3.41-2.46-2.25-9.11-8.52-11.3-11.5s-6.7-9.3-8.81-11.15S30,709.81,30,709.81,21,704,17.75,702.13s-11.92-6.8-14.91-9.52S-.39,687.1.77,685.63Z" transform="translate(134.31 150.86)"/><path class="cls-8" d="M-72.2,462c2.48.66,5.67,3.56,4.43,10.94s-2.55,21-2.74,26-1.12,11.45,1.08,11.89,6-5.26,8-10.16a230.12,230.12,0,0,1,10.09-21.27c2.94-5,8.4-18,10-20.45a6.77,6.77,0,0,1,8.18-2.53c3.42,1.22,5.19,4.56,2.53,11.46s-7.11,15.34-8.93,19.21S-49.25,512-49.88,515.21s3.17,4.27,5.67,1S-32.78,503.05-28.69,499s11.2-11.47,13.75-14.25,8.21-9.52,9.83-11.21,5-4.93,9.43-1.25,2.46,8.82-.3,12.14-7.28,8.65-9.63,12.07S-15.29,509-18.88,513-33.82,527.19-31,530s18.51-8.41,22.14-10.52,10.94-7.25,14.23-8.95S20.14,499,24.71,505.86s-2.3,11.17-6.25,13.95S-.37,532.87-6,537.07s-24.76,16.53-27.63,24.19-.16,6.64,5.7,5.21,14.07-5.1,21.27-4.35c4.25.44,11.72,2.63,12.57,7.78S2.57,573.65-2,575.21s-16.55,7.24-21.57,8.21-9.89,5.58-13.26,6.94C-43.35,593-53.2,594-58.19,595.23s-14.5,3.1-17.63,2.37a22.45,22.45,0,0,1-7.82-1.79C-88,594-94.29,585.65-98.41,582.32c-3.94-3.19-11.16-4.74-13.17-11.75-1.07-3.72.09-8.12.78-10.08,1.51-4.34,5.82-16.18,8.4-20.57s8.13-13.56,9.32-17.24,6.18-10.51,6.18-10.51,2.51-14.5,3.06-19.65,2.12-18.81,3.93-24.07S-74.69,461.35-72.2,462Z" transform="translate(134.31 150.86)"/><path class="cls-8" d="M241.39-132.46S147.25,72.85,146.14,75.24s-3.38,8.23-3.64,12.44-1.14,15.74-2.34,20.26-3.81,14-4,17.53-2.86,10.81-2.86,10.81,1.38,13.43,2.16,18.11,2.79,17.13,2.49,22.23-2.85,7.57-5.21,7.59-5.9-1.74-6.63-8.56-2.94-19.19-4-23.64-1.84-10.39-3.9-10.23-4,6.14-4.55,10.95A210.78,210.78,0,0,1,110,174c-1.35,5.17-3,18-3.74,20.53a6.2,6.2,0,0,1-6.59,4.26c-3.33-.23-5.71-2.74-5.08-9.5s2.49-15.31,3.13-19.16,2.38-24.39,2.14-27.38-3.86-3-5.26.53-6.83,14.44-9.44,19.05-7,12.9-8.61,16-4.9,10.43-5.91,12.33-3.22,5.59-8,3.44-4.36-7.19-2.74-10.8,4.29-9.44,5.52-13,5.45-13.44,7.62-17.88,9.69-16.23,6.49-18-14.26,12-16.95,14.78-7.87,9.1-10.35,11.42-10.18,13.84-15.91,8.92-.74-10.43,2.07-13.87,13.39-16.19,17.31-21.29,17.77-20.73,18.41-28.2-1.5-5.91-6.32-3.2-11.16,8-17.71,9.11c-3.86.67-11,.58-13-3.76s2-4.14,5.69-6.65S55.59,91.13,59.78,89s7.35-7.37,10-9.41c5.11-3.94,13.55-7.28,17.66-9.59s12-6.33,15-6.45,95.21-207.91,98-214.44l41.3,18.16" transform="translate(134.31 150.86)"/><path class="cls-5" d="M152.71,201c1.21.06,3.07-.78,3.58-4.27s1.89-9.8,2.53-12.07,1.15-5.3,2.2-5.18,1.95,3.24,2.13,5.72a105,105,0,0,0,1.45,11c.59,2.68,1.17,9.3,1.51,10.62a3.18,3.18,0,0,0,3.31,2.32c1.71,0,3-1.29,2.8-4.78s-1-7.91-1.24-9.91-.73-12.58-.55-14.11,2-1.46,2.69.38,3.23,7.55,4.48,10,3.36,6.77,4.11,8.39,2.31,5.46,2.79,6.45,1.54,2.94,4.05,1.93,2.39-3.61,1.62-5.49-2-4.94-2.57-6.82-2.54-7-3.57-9.34-4.66-8.53-3-9.39,7.09,6.46,8.42,7.93,3.86,4.84,5.09,6.08,5,7.31,8,4.9.58-5.35-.79-7.17-6.57-8.59-8.48-11.29-8.72-11-8.91-14.85.89-3,3.32-1.52,5.58,4.33,8.92,5c2,.42,5.64.52,6.77-1.67s-1-2.17-2.8-3.54-6.38-5.64-8.49-6.8-3.63-3.93-5-5c-2.55-2.13-6.82-4-8.88-5.28s-6.07-3.49-7.58-3.61a10.09,10.09,0,0,0-3.77-.33c-2.23.18-6.25,3-8.58,3.92s-5.7.51-7.61,3.37a8.49,8.49,0,0,0-1.11,4.63,80.53,80.53,0,0,0,.79,10.46c.53,2.34,1.69,7.26,1.7,9.09a26.41,26.41,0,0,0,1.25,5.61s-1,6.87-1.47,9.26-1.77,8.75-1.72,11.38S151.5,200.89,152.71,201Z" transform="translate(134.31 150.86)"/><g class="cls-3"><g class="cls-4"><g class="cls-9"><path class="cls-10" d="M-12.72,205.91c2.52.4,8,1,10,1.05s5.24.49,7.27.74,4.57-.29,4.9-3-1.82-3.22-2.91-3.43-5.22-.74-7-1S-7,199-9.65,198.41s-8.88-1.6-10.83-1.76-2.5-1.94-1.06-2.51S-9.71,191.3-7.71,191s6.5-.66,9.93-1.37,4.3-2.27,3.91-3.95a3.2,3.2,0,0,0-3.1-2.6c-1.37,0-7.94,1.16-10.69,1.27s-8.6,1-11,1.43-5.7.41-6.09-.58,2.42-2.27,4.45-3.47,7.79-4.18,11.05-5.57,3.58-3.41,3.21-4.57-2-2-4.53-1.42-8.39,3.51-10.58,4.61-8.61,3.81-8.61,3.81a27,27,0,0,0-5.76.23c-1.77.47-6.84.61-9.25.71a82.69,82.69,0,0,0-10.34,1.92,8.65,8.65,0,0,0-4.21,2.28c-2.27,2.59-1,5.86-1.3,8.24s-2,7.13-1.59,9.34a10.41,10.41,0,0,0,1.3,3.57c.51,1.43,3.69,4.74,5.45,6.41s4.7,5.33,7.41,7.25c1.41,1,4.5,1.75,6.16,3.5s7,5.06,8.79,6.48,2.32,3.45,4.15,1.79.79-5.19-.12-7c-1.55-3.06-5.12-5.38-7.19-7.35s-3.16-2.79.62-3.6,13.59,3.64,16.7,4.8,11,4.44,13.13,5.3,5.6,2.49,7.15-1.08-5.3-5.62-6.81-6.5-5.44-2.46-7.21-3.37-10.26-4.26-9.86-6.11S-15.24,205.52-12.72,205.91Zm-52.93-59.56a12.48,12.48,0,0,0,6.27,2.86c3.09.53,11.58,1.86,15.05,1.77s10.78-.37,13.37.13,8.31-.23,8.31-.23,9.48,3.3,12.74,4.67S2,160.49,5.74,161.14s6-.77,6.39-2.47-.26-4.57-5.07-6.26S-6.32,147-9.36,145.46s-7.2-3.1-6.73-4.56,5.13-1.86,8.7-1.42a158,158,0,0,0,16,1c4-.1,13.52.93,15.49.8a4.61,4.61,0,0,0,4.21-4c.41-2.45-1-4.6-6-5.3s-11.5-.81-14.41-1-18-2.45-20.17-3.14-1.51-3.3,1.28-3.71S.65,121.6,4.43,120.5s10.54-2.89,13-3.5,8.39-1.76,9.93-2.17,4.6-1.37,3.86-5.21-4.46-4.38-7.34-3.83-7.57,1.49-10.38,1.76S2.88,109.2-.7,110s-13.4,4.24-14.15,1.62,11.13-8.27,13.59-9.74,7.93-4.14,10-5.54,11.75-5,9.17-10-7.42-2.32-10.39-.88-14,6.93-18.36,8.89-18,9.32-23.55,8.51-4-2.1-1.23-5.12,7.68-6.71,9.62-11.26c1.13-2.68,2.29-7.86-.5-10.07s-3.35.77-5.79,3-9.78,7.49-12,10.16-6.6,4.07-8.52,5.63c-3.72,3-7.58,8.56-10,11.13S-69.38,114-70,116.09a15,15,0,0,0-1.52,5.25c-.37,3.22,2.55,9.71,3.18,13.27C-67.71,138-69.16,142.83-65.65,146.35ZM44.22,257c-2.36-1.23-5.48-3.67-8.64-4.11-1.87-.25-5.29-.1-6.2,2s1.05,2,2.84,3.11,6.31,4.83,8.36,5.77,3.64,3.43,4.94,4.37c2.51,1.81,6.61,3.28,8.62,4.33s5.87,2.85,7.29,2.86a9.5,9.5,0,0,0,3.53.07c2.07-.32,5.62-3.23,7.74-4.22s5.27-.86,6.86-3.64a8,8,0,0,0,.73-4.39,73.26,73.26,0,0,0-1.43-9.68c-.64-2.15-2-6.66-2.17-8.36A24.62,24.62,0,0,0,75.15,240s.46-6.47.76-8.73,1.08-8.26.85-10.7S75.28,217,74.15,217s-2.81.92-3.05,4.21-1.12,9.25-1.57,11.4-.72,5-1.71,5-2-2.88-2.35-5.18a102.47,102.47,0,0,0-2.08-10.16c-.73-2.46-1.7-8.58-2.11-9.79a3,3,0,0,0-3.23-2c-1.59.16-2.7,1.41-2.29,4.64s1.43,7.31,1.8,9.15S59.07,236,59,237.41s-1.8,1.49-2.53-.18-3.5-6.82-4.82-9-3.58-6.09-4.38-7.54-2.51-4.94-3-5.83-1.63-2.64-3.91-1.53-2,3.52-1.15,5.22S41.4,223,42,224.74s2.83,6.36,3.94,8.46,4.9,7.64,3.39,8.55-7-5.55-8.36-6.83-3.92-4.25-5.15-5.32-5.09-6.49-7.77-4-.19,5,1.21,6.62,6.67,7.57,8.63,10,8.85,9.67,9.27,13.24S46.57,258.24,44.22,257ZM-64.95,12c1.73,2.8,5.44,8.67,6.26,11s4.14,6.72,4.14,6.72,1.81,9.35,2.23,12.68,1.61,12.14,2.86,15.52S-46,62.47-44.4,62s3.63-2.38,2.74-7.14-1.93-13.56-2.11-16.79-.88-7.39.54-7.71,4,3.33,5.31,6.48a149.19,149.19,0,0,0,6.81,13.63c2,3.21,5.67,11.54,6.71,13.1a4.38,4.38,0,0,0,5.32,1.54c2.2-.84,3.3-3,1.5-7.46s-4.81-9.83-6-12.31-6.58-16-7-18.06,2-2.8,3.66-.71,7.56,8.36,10.27,10.94,7.39,7.28,9.08,9,5.43,6,6.5,7.12,3.32,3.12,6.12.69,1.48-5.75-.35-7.85S-.18,41-1.75,38.84s-6.42-8-8.8-10.52-9.85-9-8.06-10.85S-6.52,22.67-4.14,24,3,28.54,5.18,29.6s9.7,7.27,12.57,2.78-1.63-7.2-4.23-9-12.35-8.2-16-10.85S-18.75,2.2-20.71-2.71-20.9-7-17.09-6.17-7.92-3-3.26-3.62c2.74-.34,7.54-1.86,8-5.2S2.55-11.2-.44-12.16s-10.8-4.47-14.06-5-6.47-3.49-8.67-4.33c-4.25-1.61-10.64-2.15-13.88-2.87s-9.43-1.82-11.44-1.3a14.16,14.16,0,0,0-5,1.25c-2.82,1.23-6.76,6.71-9.39,8.93s-7.15,3.21-8.37,7.77a11.78,11.78,0,0,0,.64,6.51C-69.61,1.57-66.67,9.18-64.95,12Zm94.33,7.33c1.83,2.78,1.9,7.15,2.79,9.34,1.74,4.24,5.74,9.3,7.44,12.18s5.15,8.17,6.91,9.3A14.64,14.64,0,0,0,50.91,53c2.84,1.23,9.57.35,13,.76,3.27.39,7.28,3.05,11.46.8a11.89,11.89,0,0,0,4.35-4.94c1.33-2.68,4.9-10.07,5.77-13.27s2.64-10,3.81-12.19,2.09-7.66,2.09-7.66S97,8.71,99.17,6.11,107-3.42,108.61-6.66s.94-5.67-.5-6.52-4.24-1-7.12,2.9S92.35.46,90.11,2.82s-4.83,5.73-6,4.9-.29-5.2,1.1-8.35A152.34,152.34,0,0,0,90.51-15c1-3.66,4.57-12.1,5-13.94a4.41,4.41,0,0,0-2.54-5c-2.12-1.05-4.48-.35-6.5,4S82.56-19.6,81.59-17,74.37-1.17,73.15.59s-3.43.46-3-2.2.94-11.3,1-15.06.26-10.44.4-12.89.7-8.16.76-9.68,0-4.58-3.71-5S63.31-41.35,63-38.55s-.73,7.33-1.26,10-1.43,10.19-1.67,13.7.18,13.41-2.43,13.38S53.17-13.95,52.51-16.6s-1.6-8.4-2.3-10.71-1.33-12.12-6.6-11.14-4.17,6.15-3.67,9.26S42.41-14.48,43-9.95s3.55,19.06,1.28,23.88-3,3.1-5-.29-4-8.88-7.64-11.9C29.48,0,25.07-2.52,22.28-.58s-.22,3.27,1.13,6.11S27.55,16.54,29.38,19.32ZM138.21,488.13c4.28.16,13.58,7.64,16.6,9.73s10.59,7.78,12.62,9.29,5.33,4.21,8,.8-4.14-7.48-5.53-8.84-5.15-4.13-6.8-5.59-9.83-7.39-8.9-9.26,7.87,2.09,10.47,3.2,8.32,3.26,10.41,3.86,5.49,2,7.59,2.79,5,.94,6.09-1.86-1.08-4-2.19-4.48-5.39-2.22-7.2-3-6.66-3.12-9.36-4.48-9.08-4.16-11.13-4.86-2.15-2.76-.44-3,13.46.2,15.68.46,7.15,1.08,11,1.26,5.24-1.25,5.28-3.16a3.54,3.54,0,0,0-2.61-3.64c-1.48-.37-8.83-.94-11.82-1.57a121.11,121.11,0,0,0-12.24-1.5c-2.76-.17-6.23-1.12-6.38-2.29s3.22-1.77,5.73-2.51,9.51-2.34,13.38-2.94,4.78-2.67,4.7-4-1.55-2.73-4.47-2.76-10,1.45-12.62,2-10.27,1.73-10.27,1.73a29.21,29.21,0,0,0-6.25-1.33c-2,0-7.5-1.22-10.11-1.78s-9.21-.74-11.62-.77a9.46,9.46,0,0,0-5.14,1.28c-3.15,2.16-2.73,6-3.66,8.49s-4.09,7.09-4.26,9.58a11.38,11.38,0,0,0,.41,4.18c.15,1.68,2.66,6.1,4.09,8.38s3.57,7,6,9.81c1.23,1.44,4.34,3.11,5.65,5.44s6.11,7.34,7.64,9.36,1.54,4.34,4,3.06,2.27-5.35,1.79-7.53c-.82-3.71-4-7.18-5.69-9.86S133.93,488,138.21,488.13Zm64.36-292.84c3-2.42.58-5.35-.79-7.17s-6.57-8.59-8.48-11.29-8.72-11-8.91-14.85.89-3,3.32-1.52,5.58,4.33,8.92,5c2,.42,5.64.52,6.77-1.67s-1-2.17-2.8-3.54-6.38-5.64-8.49-6.8-3.63-3.93-5-5c-2.55-2.13-6.82-4-8.88-5.28s-6.07-3.49-7.58-3.61a10.09,10.09,0,0,0-3.77-.33c-2.23.18-6.25,3-8.58,3.92s-5.7.51-7.61,3.37a8.49,8.49,0,0,0-1.11,4.63,80.53,80.53,0,0,0,.79,10.46c.53,2.34,1.69,7.26,1.7,9.09a26.41,26.41,0,0,0,1.25,5.61s-1,6.87-1.47,9.26-1.77,8.75-1.72,11.38,1.32,3.94,2.53,4,3.07-.78,3.58-4.27,1.89-9.8,2.53-12.07,1.15-5.3,2.2-5.18,1.95,3.24,2.13,5.72a105,105,0,0,0,1.45,11c.59,2.68,1.17,9.3,1.51,10.62a3.18,3.18,0,0,0,3.31,2.32c1.71,0,3-1.29,2.8-4.78s-1-7.91-1.24-9.91-.73-12.58-.55-14.11,2-1.46,2.69.38,3.23,7.55,4.48,10,3.36,6.77,4.11,8.39,2.31,5.46,2.79,6.45,1.54,2.94,4.05,1.93,2.39-3.61,1.62-5.49-2-4.94-2.57-6.82-2.54-7-3.57-9.34-4.66-8.53-3-9.39,7.09,6.46,8.42,7.93,3.86,4.84,5.09,6.08S199.52,197.7,202.57,195.29ZM233.33,541.1s-6.38-7.75-8.45-10.61-7.61-10.42-10.47-12.92-5.49-2.44-6.73-1.21-2.16,4,1.07,8,8.61,11.58,10.41,14.47,4.54,6.4,3.38,7.4-5.35-1.08-8.17-3.31a155.09,155.09,0,0,0-13.17-9.17c-3.45-2-11.07-7.83-12.82-8.75a4.61,4.61,0,0,0-5.69,1.27c-1.62,1.88-1.54,4.45,2.37,7.64s9.4,6.68,11.78,8.35,14.14,11.48,15.6,13.17-.43,3.6-3,2.5-11.21-3.92-15-4.94-10.51-3-13-3.79-8.08-2.86-9.61-3.32-4.64-1.22-6,2.45,1.53,6.06,4.28,7.09,7.24,2.66,9.78,3.89,10,4.13,13.45,5.3,13.65,3.34,12.93,6-13.81,1.28-16.68,1.26-8.92-.59-11.45-.49-12.64-1.84-13,3.77,5.14,5.83,8.42,6.14,15.57,1.37,20.31,2,20.25,1.42,24.54,5,2.34,3.88-1.61,5-10.06,1.73-14.07,4.61c-2.37,1.7-6,5.52-4.81,8.86s3.26,1.08,6.49.46,12.25-1.31,15.55-2.43,7.74,0,10.2-.38c4.75-.64,10.93-3.37,14.29-4.33s9.64-3.07,11.24-4.57a15,15,0,0,0,4-3.7c2-2.56,2.87-9.61,4.19-13,1.25-3.21,5-6.57,3.82-11.4a12.4,12.4,0,0,0-3.87-5.71c-2.36-2.06-8.92-7.61-11.93-9.34s-9.4-5.28-11.35-7.06S233.33,541.1,233.33,541.1ZM145.46,306.44c-2.44,4.41-1.06,7,.36,7.95s4,.58,6.34-2.36,6.4-11.25,7.91-14.4,6.36-11.8,6.36-11.8,4.71-3.21,6.29-5.28,7.17-6.65,9.8-8.86,8-8.76,10-11.18a12.3,12.3,0,0,0,2.76-6.22c.29-4.91-3.94-7.52-5.73-10.43s-4-9.75-6.34-11.89a15.09,15.09,0,0,0-4.57-2.9c-1.82-1.17-8.29-2.11-11.74-2.46s-9.93-1.91-14.66-1.7c-2.45.1-6.59,1.94-10,1.42s-12.28.4-15.54.37-5.62-1.87-6.23,1.59,3.63,6.53,6.23,7.77c4.41,2.09,10.45,1.6,14.49,2s6,.38,2.45,4.6-18.48,7.74-23,9.15-16.27,4.59-19.41,5.47-8.47,2.08-7.1,7.46,10.86,1.71,13.33,1.37,8.27-2,11-2.48,15.27-4.15,16.43-1.71-8.34,6.33-11.52,8.08-9.88,5.87-12.14,7.51-6.34,4-8.84,5.51-4.89,4.31-2.92,7.64,4.87,2,6.28,1.32,6.52-3.71,8.76-4.9,8.43-4.3,11.94-6,11.4-5.92,13.73-7.45,4.5,0,3.38,1.91-10.84,13.5-12.86,15.54-6.75,6.4-10,10.19-2.87,6.31-1,7.86a4.57,4.57,0,0,0,5.77.22c1.54-1.2,7.92-8.21,10.92-10.75a152.05,152.05,0,0,0,11.2-11.24c2.36-2.66,6.06-5.43,7.37-4.65s-.75,4.66-2,7.79S147.91,302,145.46,306.44ZM102.41,63.58c-2.94.12-10.88,4.14-15,6.45s-12.55,5.65-17.66,9.59c-2.64,2-5.81,7.32-10,9.41s-13.36,10.08-17,12.59-7.71,2.31-5.69,6.65,9.17,4.43,13,3.76c6.55-1.12,12.88-6.4,17.71-9.11s7-4.27,6.32,3.2-14.5,23.09-18.41,28.2-14.51,17.86-17.31,21.29-7.81,8.95-2.07,13.87,13.43-6.61,15.91-8.92,7.67-8.66,10.35-11.42,13.75-16.58,16.95-14.78-4.32,13.58-6.49,18-6.4,14.28-7.62,17.88-3.9,9.44-5.52,13-2.07,8.64,2.74,10.8,7-1.55,8-3.44,4.34-9.25,5.91-12.33,6-11.39,8.61-16,8-15.53,9.44-19.05,5-3.53,5.26-.53-1.49,23.52-2.14,27.38-2.49,12.41-3.13,19.16,1.75,9.27,5.08,9.5a6.2,6.2,0,0,0,6.59-4.26c.77-2.55,2.39-15.36,3.74-20.53a210.78,210.78,0,0,0,3.65-21.28c.53-4.81,2.49-10.79,4.55-10.95s2.82,5.78,3.9,10.23,3.29,16.81,4,23.64,4.27,8.59,6.63,8.56,4.91-2.49,5.21-7.59-1.7-17.54-2.49-22.23-2.16-18.11-2.16-18.11,2.72-7.27,2.86-10.81,2.77-13,4-17.53,2.07-16,2.34-20.26,2.52-10.05,3.64-12.44,95.25-207.7,95.25-207.7l.28-.24-41.3-18.16C197.62-144.33,105.36,63.45,102.41,63.58ZM-98.41,582.32C-94.29,585.65-88,594-83.64,595.81a22.45,22.45,0,0,0,7.82,1.79c3.13.73,12.64-1.15,17.63-2.37s14.84-2.24,21.36-4.87c3.37-1.36,8.25-6,13.26-6.94s17-6.65,21.57-8.21,8.78-.16,7.93-5.31-8.32-7.34-12.57-7.78c-7.2-.75-15.41,2.93-21.27,4.35s-8.58,2.44-5.7-5.21,22-20,27.63-24.19,20.48-14.48,24.44-17.26,10.83-7.1,6.25-13.95-16,3-19.33,4.68-10.6,6.83-14.23,8.95S-28.16,532.84-31,530s8.53-13,12.11-17,10.93-13.1,13.27-16.52S1.26,487.72,4,484.41s4.71-8.46.3-12.14-7.82-.44-9.43,1.25-7.28,8.43-9.83,11.21S-24.6,494.91-28.69,499s-13,13.93-15.52,17.22-6.3,2.23-5.67-1S-41.4,491-39.59,487.1s6.28-12.3,8.93-19.21.89-10.24-2.53-11.46A6.77,6.77,0,0,0-41.37,459c-1.56,2.45-7,15.42-10,20.45a230.12,230.12,0,0,0-10.09,21.27c-2,4.9-5.8,10.6-8,10.16s-1.26-6.9-1.08-11.89,1.5-18.61,2.74-26-2-10.28-4.43-10.94-5.89,1.17-7.71,6.43-3.38,18.92-3.93,24.07-3.06,19.65-3.06,19.65-5,6.83-6.18,10.51-6.74,12.85-9.32,17.24-6.89,16.23-8.4,20.57c-.69,2-1.85,6.36-.78,10.08C-109.57,577.58-102.35,579.13-98.41,582.32ZM301,667.91c-3.46,2.84-10.8,10.73-14.56,14.14S267,702.67,263,700s6.82-17.48,10-23.13,9.6-18.22,11.51-22.85,5.91-12.07,8.34-16.67,3.44-11.18-2.7-14.41-9.34,1.45-10.82,3.85-6.48,11.78-8.79,15.7-8.85,14.46-12.65,20.29-11.87,19.71-14,24.23-6.88,4.21-6.94.26,3.91-30.78,5.08-35.79,4.32-16.1,5.72-24.92-1.52-12.32-5.87-12.9a8.18,8.18,0,0,0-9,5c-1.23,3.28-4.42,20-6.62,26.65s-5.48,21.37-6.58,27.65-4.18,14-6.89,14-3.23-7.83-4.26-13.77-2.92-22.36-3.3-31.38-4.9-11.64-8-11.81-6.65,2.86-7.47,9.53.76,23.19,1.4,29.41,1.33,24,1.33,24-4.18,9.32-4.66,14-4.73,16.87-6.67,22.7-4.06,20.89-4.76,26.4c-.31,2.49-.58,8,1.61,12.1,4.14,7.77,13,7.79,18.5,10.56,5.72,2.91,15.2,11.18,20.84,12.23a26.66,26.66,0,0,0,9.68.13c3.88.08,14.65-4.53,20.23-7.22s17-6.38,24-11.12c3.64-2.45,8.25-9.13,13.92-11.53s18.39-12.11,23.4-15.11,10.33-2.39,8-8.26-11.66-6.58-16.79-6c-8.7.92-17.46,7.33-24,10.49s-9.51,5-8-4.73,21-29.12,26.55-35.5,20.55-22.24,24.52-26.52,11-11.11,3.88-18.05S304.47,665.08,301,667.91Zm-131.3-37.78c-2.36-.91-11.23-4.23-14.61-5.66s-14.69-5.24-17.13-8.77-.93-3.35,2.23-3.37,7.8.8,11.37-.5c2.1-.77,5.62-2.83,5.39-5.56s-2.18-1.48-4.71-1.69-9.33-1.57-12-1.42-5.74-1.57-7.63-1.84c-3.64-.5-8.78.23-11.47.25s-7.77.27-9.26,1a11.3,11.3,0,0,0-3.75,1.9c-2,1.48-4.12,6.52-5.79,8.74s-5.06,3.83-5.19,7.65a9.51,9.51,0,0,0,1.68,5c1.32,2,5,7.49,6.89,9.39s5.86,5.85,6.93,7.57a29.41,29.41,0,0,0,4.49,4.55s3.12,7,4.06,9.6,3.47,9.29,5.06,11.73,3.56,2.94,4.74,2.29,2.43-2.53.86-6.13-4-10.35-4.71-12.86-2-5.67-1-6.18,3.74,1.91,5.37,4.14a119.31,119.31,0,0,0,7.84,9.53c2.13,2.18,6.56,8.08,7.67,9.12a3.55,3.55,0,0,0,4.47.25c1.59-1.06,2.06-3-.17-6.15s-5.57-6.89-7-8.62-8.09-11.43-8.82-13,1.07-2.58,2.76-1.23,7.48,5.23,10.08,6.78,7.15,4.4,8.8,5.49,5.39,3.79,6.43,4.44,3.18,1.87,4.95-.57.12-4.8-1.7-6.13-4.8-3.46-6.43-4.9-6.52-5.12-8.85-6.71-9.41-5.31-8.33-7.1,10.48,1.92,12.6,2.53,6.48,2.28,8.37,2.73,9,4,10.42-.08S172.09,631,169.72,630.13Zm251.16,39.63c-2.18-1.29-8.2-4.76-10.85-5.69s-8.25-2.84-10.06-4-6.34-2.24-6.34-2.24-6.21-5.22-8.27-7.2-7.57-7.18-10.21-8.75-4.72-1.14-5.53,0-1.13,3.52,2,6.19,8.54,8,10.4,10,4.54,4.43,3.76,5.4-4.41-.08-7-1.44A126.29,126.29,0,0,0,367,656.69c-3-1.07-9.94-4.6-11.46-5.08a3.73,3.73,0,0,0-4.35,1.83c-1,1.73-.57,3.77,3,5.74s8.45,3.94,10.59,4.93,12.92,7.06,14.33,8.2.18,2.92-2,2.43-9.49-1.49-12.66-1.75-8.8-.86-10.87-1.13-6.84-1.1-8.12-1.23-3.87-.3-4.43,2.82,2.1,4.6,4.44,5,6.15,1.06,8.35,1.67,8.53,1.84,11.47,2.26,11.34.67,11.15,2.87-10.79,3-13.07,3.43-7.19.83-9.18,1.28-10.33.38-9.82,4.89,4.93,3.9,7.59,3.66,12.58-1.18,16.44-1.4,16.31-1.82,20.25.39,2.42,2.74-.55,4.22-7.75,2.85-10.53,5.72c-1.63,1.7-4,5.28-2.53,7.75s2.75.39,5.23-.58,9.56-2.82,12-4.2,6.16-1.16,8.06-1.78c3.69-1.21,8.2-4.28,10.74-5.53s7.22-3.85,8.28-5.27a12.39,12.39,0,0,0,2.67-3.53c1.2-2.33.88-8.07,1.43-10.94s3-6,1.38-9.63A10,10,0,0,0,420.88,669.76Zm97.19,32.36c-.9-.82-2.86-1.34-5.47,1s-7.68,6.39-9.61,7.74-4.25,3.37-5,2.61.55-3.74,2-5.77a108.91,108.91,0,0,0,5.84-9.44c1.25-2.45,5-7.94,5.57-9.18a3.2,3.2,0,0,0-1.09-3.89c-1.36-1-3.13-.89-5.19,1.93s-4.27,6.74-5.33,8.45-7.4,10.19-8.52,11.27-2.5-.17-1.84-2,2.29-7.89,2.86-10.55,1.69-7.37,2.14-9.1,1.67-5.68,1.93-6.76.67-3.25-1.92-4.06-4.13,1.28-4.73,3.22-1.57,5.1-2.33,6.91-2.48,7-3.16,9.48-1.8,9.55-3.64,9.15-1.4-9.49-1.49-11.47.07-6.18-.09-7.92.8-8.8-3.09-8.86-3.84,3.76-3.93,6-.36,10.8-.6,14.1-.22,14-2.52,17.14-2.59,1.76-3.52-.93-1.58-6.88-3.72-9.54c-1.26-1.58-4-4-6.29-3s-.63,2.29-.08,4.51,1.36,8.41,2.26,10.64.32,5.35.64,7c.62,3.26,2.73,7.43,3.53,9.72s2.47,6.54,3.57,7.59a10.46,10.46,0,0,0,2.7,2.65c1.85,1.27,6.75,1.62,9.13,2.4s4.73,3.21,8,2.22a8.54,8.54,0,0,0,3.8-2.89,80.22,80.22,0,0,0,6-8.59c1.08-2.14,3.3-6.69,4.45-8.1a26.48,26.48,0,0,0,2.58-5.14s5.11-4.7,7-6.23,6.92-5.65,8.54-7.71S519,702.93,518.07,702.12ZM96.3,671.34c.27-3.49,2.41-5.89-1.27-6.8s-7.27,3.43-8.78,6.13c-2.57,4.59-2.47,11.11-3.2,15.42s-.84,6.42-5.11,2.31-7-20.4-8.18-25.35S66,645.26,65.27,641.83s-1.63-9.25-7.5-8.17-2.62,11.54-2.43,14.22,1.51,9,1.88,12,3.35,16.7.66,17.77-6.2-9.41-7.86-13-5.59-11-7.2-13.58-3.86-7.09-5.28-9.88-4.28-5.56-8-3.68-2.54,5.09-1.88,6.65,3.53,7.26,4.65,9.76,4,9.35,5.55,13.25,5.55,12.66,7,15.27-.33,4.83-2.29,3.49-13.72-12.6-15.77-14.92-6.39-7.71-10.23-11.45-6.57-3.53-8.36-1.6a4.9,4.9,0,0,0-.66,6.17c1.18,1.74,8.25,9.1,10.76,12.5a166.32,166.32,0,0,0,11.27,12.82c2.7,2.73,5.4,6.9,4.47,8.25s-4.95-1.14-8.22-2.69-12-6.34-16.53-9.28-7.41-1.65-8.56-.19-.91,4.26,2.07,7,11.64,7.68,14.91,9.52S30,709.81,30,709.81s3.12,5.28,5.22,7.13,6.63,8.17,8.81,11.15,8.84,9.25,11.3,11.5c1.11,1,3.7,3.06,6.48,3.41,5.25.67,8.35-3.69,11.61-5.4s10.75-3.56,13.22-6a16.35,16.35,0,0,0,3.44-4.7c1.38-1.87,2.86-8.75,3.48-12.42S96.28,704,96.4,698.89c.06-2.64-1.62-7.21-.82-10.83S96,674.84,96.3,671.34ZM92.45,395.86c1.26-4.42-.17-7.27-2.16-8s-5.53-.28-8.19,5.3S73.86,408.58,71.62,412s-4.66,8.28-6.36,7.53-1.58-6.42-.6-10.67a186.68,186.68,0,0,0,3.25-19.17c.4-4.79,2.86-16.16,3-18.55a5.59,5.59,0,0,0-4.32-5.59c-2.9-.8-5.68.62-7.16,6.55s-2.46,13.75-3.06,17.22-5.27,21.43-6.37,23.9-4.16,1.39-4.3-2-1.5-14.31-2.33-19-2.14-13.07-2.55-16.16-1-10.33-1.33-12.24-1.06-5.72-5.79-5.32-5.85,4.8-5.55,8.35.82,9.31.79,12.73.62,13,1.14,17.47,3.39,16.68.13,17.25-8.53-14.47-10-17.62-4-10.08-5.39-12.79-4.51-14.8-10.86-12.34S.2,380.22,1.56,384,8.1,401.73,9.9,407.24s8.92,22.91,7.23,29.46-3,4.57-6.33.82-7.09-10.12-12.32-13c-3.09-1.71-9.18-3.77-12.19-.69s.49,4.13,2.85,7.35S-3.1,443.9-.17,446.92s4.05,8.47,5.68,11c3.16,4.87,9.34,10.23,12.14,13.42s8.34,9,10.81,10a18.34,18.34,0,0,0,6.13,2.5c3.84.85,12-1.82,16.4-2.13,4.17-.29,9.79,2.09,14.47-1.7,2.48-2,3.79-5.53,4.25-7.18,1-3.66,3.74-13.71,4.07-17.91s.93-13,1.87-16.08.8-10,.8-10,5.18-11,7.24-14.74S91.18,400.28,92.45,395.86ZM-87.82,359.13c4.48-2.75,7.59-8.48,10.34-11.88s3.87-5.18,5.58.5-3.9,21.2-5.28,26.1-5.42,17.36-6.48,20.7-3.11,8.86,2.54,10.8,7.93-8.79,9.08-11.21,3.1-8.6,4.26-11.42,5.25-16.2,8.12-15.82.81,11.24.51,15.14-.52,12.36-.37,15.36-.1,8.08-.23,11.2,1,6.95,5.17,7.13,4.7-3.19,4.88-4.88.49-8.06.73-10.78,1.08-10.12,1.65-14.27S-45.95,372-46,369s2.65-4.05,3.71-1.92,5.79,17.71,6.44,20.73,1.8,9.85,3.31,15,4,6.29,6.51,5.49a4.92,4.92,0,0,0,3.6-5.06c-.18-2.1-2.75-12-3.27-16.17a166.67,166.67,0,0,0-3.54-16.7c-1-3.69-1.33-8.66.13-9.38s3.77,3.42,5.86,6.37,7.34,11.39,9.87,16.19,5.65,5.06,7.37,4.35,2.88-3.26,1.61-7.1-6.38-12.39-8.33-15.6-6.89-12.67-6.89-12.67-.14-6.13-1.07-8.78-1.77-10.37-2.22-14S-26,317.37-27.08,314.2c-.47-1.43-1.74-4.48-4-6.15-4.24-3.15-9.09-.87-12.76-1-3.85-.11-11.12-2.16-14.46-1.28a16.2,16.2,0,0,0-5.29,2.42c-2.12.95-6.78,6.23-9.12,9.13s-7.56,7.82-10.16,12.21c-1.34,2.27-2.12,7.08-4.59,9.84s-6.86,11.31-8.81,14.22-5,4-2.23,6.55S-90.47,360.74-87.82,359.13Zm188.93,8.71c-.16,2.66,2.73,10.18,4.44,14.09s3.93,11.83,7,16.79c1.59,2.57,6.06,5.91,7.56,9.88s7.84,13,9.77,16.48,1.37,7.17,5.47,5.74,4.83-7.85,4.59-11.38c-.41-6-4.58-12.2-6.58-16.8s-3.21-6.67,3.46-5.4,19.47,15.19,23.71,19.19,14.75,14.71,17.59,17.55,7.34,7.86,12.3,3.14-4.71-12.71-6.57-15.16-7.09-7.7-9.34-10.38S160.86,397.67,162.77,395s11.84,5.15,15.64,7.51,12.27,7.09,15.4,8.52,8.15,4.38,11.25,6.17,7.59,2.66,10-1.47-.75-6.46-2.36-7.55-7.92-4.76-10.56-6.45-9.7-6.46-13.61-9.24-13.25-8.67-16.29-10.26-2.72-4.84,0-4.78,21,3.51,24.47,4.44,11,3.4,17,4.59,8.51-.72,9-3.7a5.61,5.61,0,0,0-3.23-6.33c-2.22-.93-13.61-3.56-18.15-5.25a191,191,0,0,0-18.83-5.26c-4.29-.92-9.5-3.24-9.45-5.1s5.47-2,9.57-2.57,15.46-1.42,21.67-1.44,8.13-3.06,8.33-5.19-1.8-4.65-6.36-5.39-16-.08-20.26.19-16.51.29-16.51.29-6.3-3.12-9.48-3.58-11.47-3.69-15.43-5.18-14.26-3.34-18-4-8.83-3.2-10.87-4.43S-72.29,216.35-72.29,216.35L-83,259.84C-77.42,262.92,101.27,365.18,101.11,367.84ZM58.36,603.51c3.59-1.25,13.36-4.82,17-7s11.19-6.72,14.23-7.71,8.67-5.11,8.67-5.11,12-2.08,16.23-2.54,15.53-1.76,19.87-3.26,5.87-4.31,5.31-6.36-2.94-4.69-9-3.66-17.35,2.12-21.46,2.28-9.46.93-9.82-.89,4.34-5,8.39-6.61a191.69,191.69,0,0,0,17.55-8.35c4.16-2.43,14.87-7,16.88-8.24a5.58,5.58,0,0,0,2.09-6.75c-1-2.83-3.77-4.28-9.47-2.09s-12.66,5.88-15.85,7.38-20.55,8-23.21,8.52-3.53-2.61-.82-4.68,10.85-9.45,14.21-12.83,9.47-9.25,11.76-11.36,7.86-6.78,9.25-8.12,4.07-4.15,1-7.79-7.29-2-10,.25-7.14,6-10,8-10.32,8-13.64,11-11.7,12.35-14,10,6.94-15.29,8.69-18.29,6-9,7.37-11.75,9.52-12.2,3.86-16-9.22,1.9-11.52,5.17S81.11,512.3,77.64,516.93s-13.63,20.46-20,22.83-5.49.14-4.32-4.7,4.21-11.62,3.59-17.57c-.37-3.51-2.18-9.67-6.43-10.37s-3.1,2.77-4.39,6.55-6,13.67-6.76,17.81-4.6,8.18-5.72,11c-2.17,5.38-3,13.52-4,17.64s-2.55,12-1.94,14.56-157,133.17-162,137.14l25.8,31.38.14-.3S46.66,611.25,48.46,609.7,54.77,604.77,58.36,603.51Z" transform="translate(134.31 150.86)"/></g></g></g></g></g></g></g></g></svg>