<svg xmlns="http://www.w3.org/2000/svg" xmlns:xlink="http://www.w3.org/1999/xlink" viewBox="0 0 153.6 31.77"><defs><style>.cls-1{fill:none;}.cls-2{fill:#4299f7;}.cls-3{fill:url(#New_Pattern_Swatch_1);}</style><pattern id="New_Pattern_Swatch_1" data-name="New Pattern Swatch 1" width="84" height="84" patternTransform="translate(-201.94 -130.46) scale(3.73)" patternUnits="userSpaceOnUse" viewBox="0 0 84 84"><rect class="cls-1" width="84" height="84"/><rect class="cls-2" width="84" height="84"/></pattern></defs><g id="Layer_2" data-name="Layer 2"><g id="Layer_1-2" data-name="Layer 1"><path class="cls-3" d="M5.42,1.79v0c-.09,0-.36-.05-.36-.18a.4.4,0,0,1,.09-.23l-.22-.09c.13-.49.36-.85.89-.89L8,.09A18.65,18.65,0,0,1,10.26,0c3.58,0,2.06,1.25,3.18,1.93a5.7,5.7,0,0,1-2.28.18,3.46,3.46,0,0,0-.72.09,6,6,0,0,1,0,.85A10.81,10.81,0,0,1,10,6.18c-.68,2.2-1.26,4.44-1.75,6.68-.27,1.21-.45,2.42-.72,3.63l-.8,3.8c-.23,1-.32,2.06-.45,3.1A30.11,30.11,0,0,0,5.78,28v1.56H7c.5.32.59,1.08,1.21,1.12a1,1,0,0,1-.76.63,16.51,16.51,0,0,1-5.33.49,2.44,2.44,0,0,1-1.88-1A4.12,4.12,0,0,1,0,30c0-.23.31-.23.49-.23H3.23a10.11,10.11,0,0,1-.9-4.16c0-.27,0-.59,0-.86A64.74,64.74,0,0,1,4.3,13.17C5.24,9.59,6.09,6,7.17,2.46H5.51l0-.35-.23,0,.14-.22Zm.18-.71L5.51,1c-.09,0-.13.13-.22.22Z"/><path d="M19,26.74a3.13,3.13,0,0,1-.7-.33,3.53,3.53,0,0,1-.62-.49,3.48,3.48,0,0,1-.59-.92c-.06-.14-.12-.27-.18-.38a3.57,3.57,0,0,1-.15-.33,6.13,6.13,0,0,1-.27-1.35c0-.11,0-.28-.05-.54s0-.49,0-.72v-.87a1.16,1.16,0,0,1,0-.38s0-.1,0-.24,0-.3,0-.48c.07-.87.16-1.64.26-2.32,0-.08,0-.17.05-.26s.05-.42.07-.54,0-.18,0-.3a2.34,2.34,0,0,1,0-.3c0-.11,0-.26.07-.45a2.36,2.36,0,0,0,0-.28c0-.18.07-.42.11-.72l.06-.33c0-.3.1-.62.15-1s.11-.63.15-.88a4.29,4.29,0,0,0,.06-.46c.05-.33.1-.62.15-.85,0-.06,0-.15,0-.25s0-.19,0-.28a4.46,4.46,0,0,1,.18-1c.08-.29.16-.43.23-.43l0,0a.08.08,0,0,0,0-.05s0,0,0,0a0,0,0,0,1,0,0l0,0,0,0a.07.07,0,0,0,0,0,.8.8,0,0,1,.28-.15l.42-.1a2,2,0,0,1,.39,0c.11,0,.17,0,.17.07s0,.05,0,.05h0l0,0,0,0a0,0,0,0,1,0,0s0,0,0,0h0l0,0,0,0,0,.05s0,.05,0,.05h.11a.07.07,0,0,1,0,0,.12.12,0,0,0,0,.08.28.28,0,0,0,.09.1,1.14,1.14,0,0,1,.4.82.84.84,0,0,1,0,.27,10,10,0,0,0-.24,1c-.07.41-.13.78-.16,1.12,0,.09,0,.19-.05.31s0,.21,0,.28-.06.38-.1.64S20,14,20,14.15l0,.12a.46.46,0,0,1,0,.09,2.19,2.19,0,0,0-.06.34c0,.16,0,.33-.05.51s0,.16,0,.25,0,.17,0,.23a2.07,2.07,0,0,0-.08.35c0,.17-.06.35-.09.55s0,.38-.07.6-.07.4-.09.54,0,.26-.05.37,0,.19,0,.23,0,.12,0,.27,0,.33-.07.52,0,.34-.05.45,0,.17,0,.22v.28c0,.15,0,.32,0,.53s0,.67,0,1a6.27,6.27,0,0,0,.36,2.28l.09.22.32-.3.34-.37.32-.4a.64.64,0,0,0,.14-.21,2,2,0,0,1,.15-.24c.1-.16.22-.34.37-.55s.26-.39.35-.55a1.16,1.16,0,0,0,.15-.26,1.67,1.67,0,0,1,.14-.27l.35-.55c.93-1.45,1.39-2.19,1.39-2.22a1.06,1.06,0,0,1,.13-.26c.09-.15.2-.32.34-.52l.2-.32.08-.15a.13.13,0,0,1,0-.07l.06-.07.05-.07a.13.13,0,0,0,0-.07.37.37,0,0,1,.08-.17l.17-.29.19-.27a.55.55,0,0,0,.07-.13l.07-.14.17-.29.2-.34.14-.26a2,2,0,0,1,.18-.27l.24-.34c.08-.12.14-.19.17-.23l.06-.08.1-.17a7.14,7.14,0,0,1,.61-1.07.55.55,0,0,0,.09-.14.44.44,0,0,0,0-.08.09.09,0,0,1,0-.07l.06,0s.07-.06.14-.16l.21-.36.24-.41c.08-.14.14-.25.17-.32a1.48,1.48,0,0,1,.13-.21.59.59,0,0,1,.1-.11.7.7,0,0,0,.14-.21,1.86,1.86,0,0,1,.23-.41c.12-.2.26-.41.42-.64s.3-.41.42-.55a1.48,1.48,0,0,1,1.14-.62,2.21,2.21,0,0,1,.35,0,1.17,1.17,0,0,1,.3.12l.29.16c.09.06.13.1.13.13s0,0,0,.08l.07.09a.18.18,0,0,1,.07.11.32.32,0,0,1,0,.14.59.59,0,0,0,0,.13s0,.07.05.08,0,.06,0,.13a.71.71,0,0,1,0,.14,2.37,2.37,0,0,1-.18.5,2.66,2.66,0,0,1-.34.53c-.12.18-.25.38-.41.59s-.28.41-.39.58a1.82,1.82,0,0,0-.17.28l-.14.24c-.09.15-.21.32-.35.53l-.33.53a1.48,1.48,0,0,0-.14.23.66.66,0,0,1-.09.18,3.35,3.35,0,0,1-.2.35l-.25.38-.19.29-.19.35-.18.33c-.07.1-.12.18-.17.24l-.09.14A.26.26,0,0,0,28,16l-.07.12-.17.26-.22.33a3.08,3.08,0,0,0-.16.28c0,.07-.1.18-.19.33l-.28.45-.22.36a1.51,1.51,0,0,0-.12.2l-.08.13,0,.07a0,0,0,0,0,0,0v0a.11.11,0,0,1,0,.06l-.07.06a.73.73,0,0,0-.11.15L26.1,19a2.22,2.22,0,0,1-.18.33,1.19,1.19,0,0,1-.1.16s0,0-.05,0a.31.31,0,0,0-.05.09l-.08.19a2.54,2.54,0,0,1-.19.38c-.1.18-.22.37-.35.57l-.31.5-.13.23a1,1,0,0,1-.12.23q-.12.21-.3.48l-.34.53-.2.35c0,.08-.13.21-.26.42l-.43.67a6.07,6.07,0,0,1-2.56,2.42,1.58,1.58,0,0,1-.54.15l-.29,0A3,3,0,0,1,19,26.74Z"/><path d="M34,26.78a2.85,2.85,0,0,1-.79-.32,2.47,2.47,0,0,1-.67-.52A3.81,3.81,0,0,1,32,25.2a3.5,3.5,0,0,1-.36-.87,6.81,6.81,0,0,1-.18-1.62,14.52,14.52,0,0,1,.89-4.56,36.49,36.49,0,0,1,4-7.7l.28-.45c.11-.18.18-.28.21-.32a3.83,3.83,0,0,1,1.26-1.32,1.15,1.15,0,0,1,.59-.13,2.52,2.52,0,0,1,.52.06,5.72,5.72,0,0,1,1.53.51,5.49,5.49,0,0,1,.84.51,6.13,6.13,0,0,1,.78.72,6.44,6.44,0,0,1,1.67,4.51c0,.19,0,.4,0,.61a13.36,13.36,0,0,1-1.8,5.49l-.3.54c-.08.13-.13.22-.17.27a11.12,11.12,0,0,1-1.16,1.6,15.29,15.29,0,0,1-1.53,1.61,10,10,0,0,1-1.1.89,11.17,11.17,0,0,1-1.29.73,4.66,4.66,0,0,1-2.09.55A2.92,2.92,0,0,1,34,26.78Zm1.5-2.84a8.62,8.62,0,0,0,2.55-2,14,14,0,0,0,2.16-3.05,9.62,9.62,0,0,0,1.09-3.07q.09-1,.09-1.35a3.93,3.93,0,0,0-.58-2.21,3.42,3.42,0,0,0-.73-.79,2.08,2.08,0,0,0-.8-.44l-.17,0-.65,1a31.48,31.48,0,0,0-3.65,7.27,13.24,13.24,0,0,0-.47,1.66,8,8,0,0,0-.16,1.48c0,.19,0,.36,0,.52s0,.41,0,.56a1.13,1.13,0,0,0,.21.54.45.45,0,0,0,.09.1l.11,0h.23a2.68,2.68,0,0,0,.67-.19Z"/><path d="M48.54,26.82l-.38-.1h-.07a2.19,2.19,0,0,1-.53-.25,3.18,3.18,0,0,1-.53-.38,3.11,3.11,0,0,1-.44-.63,3.61,3.61,0,0,1-.32-.8,1.05,1.05,0,0,1-.06-.33,2.11,2.11,0,0,1,0-.23c0-.12,0-.27,0-.44,0-.34,0-.6,0-.8a4.34,4.34,0,0,1,.09-.54c0-.17.09-.37.15-.61s.1-.37.15-.51a2.17,2.17,0,0,0,.06-.25,2,2,0,0,1,.1-.28c.06-.17.14-.38.22-.62l.26-.64a3.64,3.64,0,0,0,.12-.35,2.72,2.72,0,0,1,.13-.31l.24-.52c.08-.2.16-.37.22-.51a1.55,1.55,0,0,0,.1-.22,1,1,0,0,1,.09-.2q.07-.18.18-.39l.19-.37.08-.15c.07-.13.13-.27.2-.41a3.61,3.61,0,0,0,.19-.39c.09-.17.18-.36.28-.57a2.39,2.39,0,0,0,.13-.28c0-.11.11-.21.15-.32s.15-.3.2-.41a1.42,1.42,0,0,0,.08-.2s0-.11.13-.26l.26-.57.3-.64a3.21,3.21,0,0,0,.17-.44c0-.07.08-.17.14-.3a3.73,3.73,0,0,1,.16-.35,1.27,1.27,0,0,0,.15-.47.56.56,0,0,0-.13-.34.81.81,0,0,1-.1-.18.58.58,0,0,1,0-.13.25.25,0,0,0,0-.08.07.07,0,0,0,0,0s0-.09,0-.2a2.62,2.62,0,0,1,0-.37c0-.13,0-.24.08-.33a2.31,2.31,0,0,1,.34-.45,1.43,1.43,0,0,1,.41-.34l.27-.06.34-.06.23,0,.15,0A1.27,1.27,0,0,1,53,8.3a2.05,2.05,0,0,1,.9,1A2.49,2.49,0,0,1,54,10v.37a3.06,3.06,0,0,1-.12.9,2.56,2.56,0,0,1-.12.32c0,.11-.09.21-.13.28s-.05.12-.07.19a1,1,0,0,0-.05.17c0,.09-.16.39-.38.9s-.51,1.1-.85,1.79c-.12.24-.23.48-.34.72s-.2.41-.27.53-.1.24-.15.34a2.12,2.12,0,0,1-.13.22l-.07.12a.17.17,0,0,0,0,.07.27.27,0,0,1,0,.1,1.4,1.4,0,0,1-.09.17,1.74,1.74,0,0,0-.1.19.31.31,0,0,0,0,.12l-.08.2-.17.36c-.06.12-.11.23-.14.31a3.21,3.21,0,0,0-.18.34c-.08.15-.14.29-.2.42a2.19,2.19,0,0,0-.1.26.89.89,0,0,1-.07.18l-.07.18q-.37.9-.69,1.89A10.78,10.78,0,0,0,49,23c0,.07,0,.16,0,.28l0,.34a2,2,0,0,0,0,.23.49.49,0,0,0,0,.24c.05.08.16.13.35.13a3.89,3.89,0,0,0,.49,0,1.16,1.16,0,0,0,.37-.09l.32-.12.63-.19.61-.21.34-.13.3-.12c.17-.06.36-.13.57-.19l.55-.18.26-.1.3-.12.61-.21.64-.23.37-.14.17-.06L56,22h.17l.16,0,.13,0a1.51,1.51,0,0,1,.26,0,1.83,1.83,0,0,1,.46.24.55.55,0,0,0,.14.09l.1,0h0s0,0,0,0a.31.31,0,0,0,0,.11l.11.2a1.28,1.28,0,0,1,.13.35,1.74,1.74,0,0,1,0,.39.4.4,0,0,1-.06.25s0,0,0,0l-.09.12-.11.16a.55.55,0,0,1-.14.17l-.16.12-.16.08-.11.06-.25.08-.08,0-.46.14-.49.15a1,1,0,0,0-.25.1l-.2.09-.37.15-.42.14-.32.12a.56.56,0,0,1-.19.09l-.17.07a.5.5,0,0,0-.19.07l-.26.12a4,4,0,0,1-.41.17l-.55.19-.46.16a.72.72,0,0,0-.22.09,3,3,0,0,1-.61.19l-1,.22a5.25,5.25,0,0,1-.78.09,2.12,2.12,0,0,1-.34,0Z"/><path d="M63.87,26.74a4.31,4.31,0,0,1-1.21-.43A3.69,3.69,0,0,1,61,24.41a6.81,6.81,0,0,1-.56-2.78c0-.17,0-.34,0-.5a18.77,18.77,0,0,1,.89-4.46c.13-.38.25-.74.37-1.08a6.36,6.36,0,0,1,.29-.74l.15-.35c.06-.17.14-.35.21-.53.22-.53.5-1.14.83-1.83s.65-1.32,1-1.9.55-1,.7-1.2a1.52,1.52,0,0,1,1-.71,1.76,1.76,0,0,1,.33.05,2,2,0,0,1,.41.13l.29.15a1.36,1.36,0,0,1,.37,1,1.55,1.55,0,0,1,0,.23c0,.07,0,.1,0,.1s0,0,0,.1,0,.15-.07.25a2.82,2.82,0,0,0-.07.31,1.22,1.22,0,0,0,0,.22A.27.27,0,0,1,67,11a.35.35,0,0,1-.07.12l-.07.07a.05.05,0,0,0,0,.05v0a.21.21,0,0,1,0,.06l0,.1a.18.18,0,0,1-.19.13l-.09,0,0,0v.06s0,0,0,.08a.43.43,0,0,1-.09.1,5.94,5.94,0,0,0-.75,1.33c-.37.77-.71,1.58-1,2.46-.17.42-.34.89-.51,1.4s-.29.85-.34,1.05a.4.4,0,0,1,0,.13s0,.05,0,.05h0a0,0,0,0,0,0,0,1.88,1.88,0,0,1,0,.19c0,.1,0,.24-.08.39a12.61,12.61,0,0,0-.28,1.43,9.05,9.05,0,0,0-.07,1.14v.37c0,.27,0,.49,0,.64a3.15,3.15,0,0,0,0,.39c0,.09,0,.19.08.3a1.72,1.72,0,0,0,.63.89,1.06,1.06,0,0,0,.4.08c.71,0,1.67-.69,2.89-2.07a29.53,29.53,0,0,0,4.45-7.87c.31-.79.59-1.61.84-2.45A7.8,7.8,0,0,0,72.86,10a.31.31,0,0,1,0-.13.19.19,0,0,1,0-.08.1.1,0,0,0,0-.06s0,0,0-.06a.38.38,0,0,1,.06-.17,1.1,1.1,0,0,1,.14-.21q.07-.09.12-.09l0,0a.05.05,0,0,0,0,0A.25.25,0,0,1,73.43,9a.3.3,0,0,1,.09-.1l.07,0h.1l.14,0a.34.34,0,0,1,.15,0,.13.13,0,0,1,.1,0,.05.05,0,0,0,0,0h0a.34.34,0,0,0,0-.09V8.73h0a.13.13,0,0,0,.1,0l.15,0,.15,0s.06,0,.06,0l0,0,.06,0a.13.13,0,0,1,.08,0s0,0,.06.06a.15.15,0,0,0,.07.06s0,0,0,0l.16.14.15.18a.94.94,0,0,1,.17.55c0,.2,0,.32,0,.34a4.19,4.19,0,0,1-.13,1.05.25.25,0,0,1,0,.07c0,.14-.08.28-.11.43s-.1.37-.17.67a1.55,1.55,0,0,0-.08.23c-.05.16-.1.32-.15.46a2.55,2.55,0,0,1-.12.31s-.06.17-.12.36-.1.28-.16.43-.13.36-.19.5a1.05,1.05,0,0,0-.07.23l-.13.24-.21.48c-.34.83-.73,1.69-1.18,2.57s-.86,1.66-1.25,2.31l-.17.27c-.13.23-.22.39-.28.48s-.28.43-.54.81-.53.72-.81,1.07-.69.8-1.14,1.26a11.91,11.91,0,0,1-1.12,1c-.16.11-.39.25-.66.41s-.56.3-.83.42a3.13,3.13,0,0,1-.62.23,3.49,3.49,0,0,1-.6.08l-.52,0Z"/><path d="M77.29,26.89l-.08,0L77,26.81a.92.92,0,0,1-.7-.59,2.57,2.57,0,0,1-.18-.9,3.55,3.55,0,0,1,.06-.64c0-.15.06-.3.08-.45s0-.26.06-.33.15-.51.32-1l.51-1.56c.17-.52.29-.86.35-1s0-.09.06-.17l.08-.22a1.91,1.91,0,0,1,.1-.27c0-.11.09-.2.13-.27a2.18,2.18,0,0,0,.09-.23A.49.49,0,0,0,78,19a.58.58,0,0,1,0-.13,1.42,1.42,0,0,1,.08-.18c0-.07.06-.15.1-.26l.12-.31.12-.32a1.78,1.78,0,0,1,.12-.27l.07-.19c0-.07,0-.11,0-.13a.25.25,0,0,1,0-.07.17.17,0,0,0,0-.05,1.34,1.34,0,0,0,.15-.29c.07-.16.14-.35.22-.56l.21-.56c0-.07.07-.17.12-.29l.2-.5a8.06,8.06,0,0,0,.39-1,.26.26,0,0,1,0-.11.33.33,0,0,1,0-.12.32.32,0,0,1,0-.09.43.43,0,0,1,0-.07v0a.55.55,0,0,1,0-.1c0-.06.06-.13.09-.22s.09-.2.14-.34a2.22,2.22,0,0,0,.14-.38c0-.12.11-.27.18-.46s.13-.36.2-.53c.14-.34.24-.62.31-.83a2.64,2.64,0,0,0,.11-.53,1.5,1.5,0,0,0,0-.22.43.43,0,0,1,0-.17.28.28,0,0,1,0-.09l0-.14a1.64,1.64,0,0,0,0-.18.44.44,0,0,1,0-.18,2.6,2.6,0,0,1,.15-.28,1.28,1.28,0,0,1,1-.68l.13,0a1.42,1.42,0,0,1,1.31,1.4c0,.1,0,.24,0,.41a4.54,4.54,0,0,0,.09.51c0,.17,0,.35.08.55a3.44,3.44,0,0,1,0,.51c0,.14,0,.29.05.47s0,.32,0,.45c0,.44.1,1.85.15,4.23,0,.45,0,.87,0,1.28s0,.69,0,.87,0,.33,0,.51,0,.31,0,.4l0,.28c0,.08,0,.2.06.34s.06.33.11.58a2.33,2.33,0,0,1,0,.28,4.7,4.7,0,0,0,.22.79c.09.23.16.34.22.34s.31-.21.65-.61.42-.53.59-.76.28-.41.34-.52l.09-.17a1,1,0,0,1,.11-.21l.13-.21.09-.18a1.08,1.08,0,0,1,.11-.21,2.26,2.26,0,0,1,.16-.26c.14-.23.32-.58.55-1.06s.46-1,.68-1.48.38-.9.48-1.2c0-.11.08-.25.15-.41s.12-.32.18-.46.12-.31.19-.5.13-.36.17-.51.1-.32.17-.49.11-.31.16-.43.08-.25.13-.39.09-.28.12-.4.08-.24.13-.4.1-.31.14-.45a3.07,3.07,0,0,0,.14-.34l.06-.21a5.37,5.37,0,0,1,.25-1l.08-.19a.86.86,0,0,1,.13-.17A2,2,0,0,1,92,8.91l.21-.19c.07-.06.11-.08.13-.08a.22.22,0,0,0,.16-.09.26.26,0,0,1,.12-.07l.09,0,.09,0H93l.23.06a1.21,1.21,0,0,1,.87.87,1.83,1.83,0,0,0,.06.25.53.53,0,0,0,.06.16.25.25,0,0,1,0,.07s0,0,0,0a.87.87,0,0,0-.13.3,3.8,3.8,0,0,0-.13.51,1.16,1.16,0,0,1,0,.16.36.36,0,0,1,0,.11.83.83,0,0,0,0,.12.41.41,0,0,0,0,.09c0,.07-.05.13-.07.19a1.15,1.15,0,0,0,0,.14.31.31,0,0,1,0,.08s0,.05,0,.05,0,0,0,.07a.5.5,0,0,0,0,.12.31.31,0,0,1,0,.2.08.08,0,0,0,0,.06.31.31,0,0,0,0,.08,0,0,0,0,0,0,0,2.47,2.47,0,0,1-.11.38c-.06.17-.12.36-.19.55s-.06.19-.11.33l-.15.43a5.11,5.11,0,0,1-.17.52c-.07.2-.14.38-.21.55a4.5,4.5,0,0,1-.16.44c0,.14-.08.24-.1.28s-.15.42-.31.84-.32.83-.49,1.25-.3.7-.38.85h0l-.18.37c-.1.17-.2.37-.3.58-.21.45-.38.79-.51,1s-.26.47-.39.69-.29.49-.5.82a11.38,11.38,0,0,1-.89,1.22,7.07,7.07,0,0,1-.91.95,2.09,2.09,0,0,1-.4.28c-.17.1-.33.2-.49.28l-.59.29-.58,0a2.64,2.64,0,0,1-.81-.13,2.42,2.42,0,0,1-.67-.38,3.61,3.61,0,0,1-.73-.9,4.34,4.34,0,0,1-.49-1.12c0-.11-.06-.21-.09-.29a.34.34,0,0,0-.07-.16s0,0,0-.08a.51.51,0,0,1,0-.13.45.45,0,0,0,0-.11l0-.08a.77.77,0,0,1-.07-.23c0-.13,0-.29-.08-.47s0-.34-.07-.5,0-.28,0-.33a.45.45,0,0,0,0-.11.5.5,0,0,0,0-.16,4,4,0,0,1-.06-.61c0-.34,0-.75,0-1.21s0-.9,0-1.31v-.44c0-.1,0-.16,0-.16l-.12.3c-.05.14-.12.28-.19.43a.24.24,0,0,0,0,.07l-.1.25c0,.09-.06.17-.08.25l-.12.31c0,.11-.07.2-.1.27s-.06.15-.09.24-.07.17-.09.23,0,.15-.07.21l-.07.13a.2.2,0,0,0-.07.1.59.59,0,0,0,0,.14.37.37,0,0,1,0,.11s0,.05,0,.05,0,0,0,.06a.46.46,0,0,0,0,.14l0,.14s0,.05,0,.05a2.43,2.43,0,0,0-.31.75c0,.14-.1.32-.18.53s-.14.41-.21.6-.14.4-.2.61-.12.38-.16.51-.08.25-.12.39-.1.27-.14.36a8,8,0,0,0-.26,1c-.1.46-.18.92-.24,1.39a1.15,1.15,0,0,1-.09.26,2.82,2.82,0,0,1-.18.29.46.46,0,0,1-.15.16l-.08,0-.1,0-.08.06-.1,0-.17,0a.71.71,0,0,1-.2,0h-.36Z"/><path d="M97.44,27a1.72,1.72,0,0,1-.56-.67,1.94,1.94,0,0,1-.12-.79v-.11a4.75,4.75,0,0,1,.17-1.28,3.47,3.47,0,0,1,.11-.48l.07-.26a1.31,1.31,0,0,0,0-.15l.06-.19c.08-.28.23-.73.45-1.34s.43-1.16.64-1.66.27-.71.38-1,.1-.21.12-.26a2.26,2.26,0,0,1,.14-.35c.06-.16.13-.31.2-.47a4.84,4.84,0,0,0,.21-.47c.07-.15.11-.27.14-.35s.08-.19.15-.34.14-.3.21-.47a3.85,3.85,0,0,0,.24-.5c.08-.17.13-.3.17-.39s.2-.51.37-.91.32-.74.45-1,.15-.34.22-.53.17-.43.27-.71c0-.12.1-.26.16-.43a2.31,2.31,0,0,0,.14-.35l.09-.18.07-.17a.17.17,0,0,0,0-.08H102l-.26,0-.29,0-.18,0-.22,0-.37,0h-.08l-.5,0-.44.07a4.22,4.22,0,0,1-.92.09c-.25,0-.51,0-.79,0l-.11-.05-.1-.08-.08-.08-.08,0a.26.26,0,0,1-.14-.09,1.46,1.46,0,0,1-.2-.22,2.2,2.2,0,0,1-.17-.25,1.4,1.4,0,0,1-.09-.53V10a1.28,1.28,0,0,1,.18-.6A1.62,1.62,0,0,1,97.57,9,.88.88,0,0,1,98,8.75l.13,0a.2.2,0,0,0,.08,0,.24.24,0,0,1,.13,0h.22a.29.29,0,0,1,.14,0,.42.42,0,0,0,.17.05l.33,0,.33,0a.51.51,0,0,0,.2,0,1.14,1.14,0,0,1,.42-.08c.26,0,.72-.07,1.38-.11l.38-.05.17,0s0,0,.11,0h.23a.79.79,0,0,0,.28,0,1.09,1.09,0,0,0,.27-.13,1.26,1.26,0,0,1,.64-.2,1.12,1.12,0,0,1,.44.09.8.8,0,0,0,.21.05l.23,0h.14l.64,0q1-.06,1.77-.06.53,0,.93,0a7,7,0,0,1,1.81.34,1.52,1.52,0,0,1,.76.53,1.32,1.32,0,0,1,.27.79v.12a2.45,2.45,0,0,1,0,.27l0,.21a1.43,1.43,0,0,1-.39.48,1.26,1.26,0,0,1-.55.26l-.18,0-.2,0a.65.65,0,0,1-.29.07.6.6,0,0,1-.42-.16.79.79,0,0,0-.24-.15,1,1,0,0,0-.31-.07l-.59,0-.73,0h-1.64l-.33,0a.15.15,0,0,0,0,.07s0,.08,0,.14a3.54,3.54,0,0,1-.12.6c-.07.2-.13.38-.2.54l-.11.26-.07.2c0,.07-.07.22-.15.44a3.38,3.38,0,0,0-.11.34l-.39,1-.27.61q-.08.16-.15.36c-.06.13-.1.24-.13.32a2.83,2.83,0,0,1-.17.42c-.08.18-.17.36-.26.53s-.15.32-.21.47l-.12.28s0,.11-.07.21l-.13.3a1.8,1.8,0,0,0-.12.25.43.43,0,0,0,0,.14h0s0,0-.06,0l0,0a.17.17,0,0,0,0,.05.23.23,0,0,1,0,.11.49.49,0,0,1-.06.13c0,.09-.09.19-.14.3s-.08.2-.12.29a1.07,1.07,0,0,0-.05.16.17.17,0,0,1,0,.05s0,.05-.06.06a.19.19,0,0,0-.06.07.12.12,0,0,0,0,.07s0,.07,0,.15l-.1.24-.1.23a.41.41,0,0,0,0,.15.39.39,0,0,1,0,.06.59.59,0,0,1,0,.08c-.11.21-.22.47-.35.79s-.2.55-.26.73l-.07.23c-.06.22-.13.43-.19.63q-.23.61-.51,1.59a3.46,3.46,0,0,0-.08.85v.16c0,.22,0,.37,0,.47a.75.75,0,0,1,0,.2s0,.06-.08.06a.12.12,0,0,0-.07,0,.09.09,0,0,0,0,.06.41.41,0,0,1,0,.21.29.29,0,0,1-.17.12l-.15.1-.08.08,0,.06a.13.13,0,0,1-.08,0h-.09l0,0-.17,0-.34,0a3,3,0,0,1-.42,0A.64.64,0,0,1,97.44,27Z"/><path d="M111.32,26.92a2.64,2.64,0,0,1-.51-.09A3.27,3.27,0,0,1,109,25.36l-.24-.51c0-.12-.09-.21-.11-.27a1.72,1.72,0,0,1-.07-.21c0-.13,0-.32-.07-.58s0-.47,0-.62v-.3a1.28,1.28,0,0,1,0-.28s0-.12,0-.25a3.86,3.86,0,0,0,.07-.41,3.33,3.33,0,0,1,.05-.37,1.57,1.57,0,0,1,0-.2.82.82,0,0,0,.07-.2l.1-.37c0-.14.07-.27.11-.4a2.35,2.35,0,0,1,.1-.27.81.81,0,0,0,.08-.18c.06-.15.12-.3.18-.47s.1-.28.16-.41a2.77,2.77,0,0,1,.12-.27,1.54,1.54,0,0,0,.13-.26c.06-.12.11-.24.16-.37l.15-.33.11-.23.14-.23a3.13,3.13,0,0,0,.2-.41c.57-1.08,1-1.82,1.21-2.2a3,3,0,0,0,.21-.32l.17-.3.13-.24a.41.41,0,0,1,.11-.15l.14-.22.21-.38c.07-.14.14-.28.22-.41a.93.93,0,0,1,.18-.26c0-.05.09-.14.17-.27s.16-.28.23-.43l.24-.44c.1-.2.19-.36.26-.49a2.18,2.18,0,0,0,.19-.39,2.08,2.08,0,0,0,0-.43,1.82,1.82,0,0,1,.08-.59,1.36,1.36,0,0,1,.35-.47,1.14,1.14,0,0,1,.25-.22,2.1,2.1,0,0,1,.28-.18,1.11,1.11,0,0,1,.26-.06,2.58,2.58,0,0,1,.42,0l.47,0,.38,0,.22,0h.3l.34,0,.44-.06.43-.05h.19l.92-.06,1.34,0h1a5.91,5.91,0,0,1,1.5.19l.15.07.1,0a.36.36,0,0,1,.15.08,1.29,1.29,0,0,1,.21.2,1.5,1.5,0,0,1,.45,1,1.06,1.06,0,0,1-.06.29,3.68,3.68,0,0,1-.15.35,1.16,1.16,0,0,1-.15.21.33.33,0,0,0-.08.11.51.51,0,0,0,0,.09s0,.07,0,.07l-.06,0a.21.21,0,0,0-.08.06.15.15,0,0,1-.11.05h-.07a.16.16,0,0,0-.09,0h0l-.12,0a.62.62,0,0,1-.32.06H123a1.4,1.4,0,0,1-.54-.1,1.07,1.07,0,0,0-.27-.07,3.52,3.52,0,0,0-.45,0h-.86l-.53,0-.48,0a4.32,4.32,0,0,0-.64,0l-.33,0-.3,0a5.49,5.49,0,0,0-.57,0l-.7.1-.4.06s-.06.09-.13.2l-.21.41a20.64,20.64,0,0,1-1.12,2,6.07,6.07,0,0,0-.62,1.1s0,0,0,0l0,0a6.64,6.64,0,0,1,.88-.07c.46,0,1,0,1.55,0s1.09,0,1.55,0,.77,0,1,.07a1.73,1.73,0,0,1,.53.14,1.23,1.23,0,0,1,.33.28,1.28,1.28,0,0,1,.28.47,1.3,1.3,0,0,1,.11.5.9.9,0,0,1-.09.35,2,2,0,0,1-.23.38c-.09.11-.17.17-.23.17a.05.05,0,0,0,0,0,.22.22,0,0,0,0,.08.11.11,0,0,1-.07.08h-.22a.63.63,0,0,0-.19,0l-.13,0a.17.17,0,0,1-.1,0l-.14,0c-.2,0-.79-.05-1.78-.05H116a9.82,9.82,0,0,0-1,.07l-.57.06-.67,0h-.16a.86.86,0,0,0-.25,0s-.1.06-.15.14A2.13,2.13,0,0,0,113,18a2,2,0,0,0-.09.2l-.17.35c0,.1-.09.16-.1.19a1,1,0,0,0-.1.19c-.05.1-.09.21-.14.33l-.17.39a2.69,2.69,0,0,1-.14.32l-.12.26c0,.11-.08.23-.13.35a.3.3,0,0,0,0,.1c0,.13-.09.25-.13.37a1.62,1.62,0,0,1-.11.25,5,5,0,0,0-.22.81,6,6,0,0,0-.1,1v.21a2.07,2.07,0,0,0,.05.53.31.31,0,0,0,.2.26.32.32,0,0,1,.13.07s0,0,0,.05.06,0,.17,0h.12c.2,0,.44,0,.73-.07a8,8,0,0,0,.92-.15L114,24l.23,0h0a.77.77,0,0,0,.18,0l.39-.11.42-.1.21,0,.23-.06.48-.13c.35-.13.62-.21.82-.27l.44-.12.28,0h.2a.23.23,0,0,1,.11,0,.1.1,0,0,0,.08,0h.14a.45.45,0,0,1,.22.05l.26.21a1.59,1.59,0,0,1,.23.29A.84.84,0,0,1,119,24c0,.12,0,.23,0,.34a1.55,1.55,0,0,1,0,.33,1.24,1.24,0,0,1-.31.5c-.07.08-.13.13-.18.18l-.08.06v0l0,0s0,0,0,0a17,17,0,0,1-2.23.72l-.57.17-.45.14-.36.08-.35.06-.51.09-.21.05-.58.1-.65.08a4.5,4.5,0,0,1-.46,0,1.46,1.46,0,0,1-.25,0Z"/><path d="M126.34,26.92a2.62,2.62,0,0,1-.52-.09A3.27,3.27,0,0,1,124,25.36l-.23-.51a2.31,2.31,0,0,1-.12-.27,1.72,1.72,0,0,1-.07-.21,4.73,4.73,0,0,1-.06-.58c0-.26,0-.47,0-.62v-.3a.74.74,0,0,1,0-.28s0-.12,0-.25a3.86,3.86,0,0,0,.07-.41c0-.14,0-.26,0-.37a1.57,1.57,0,0,1,0-.2.53.53,0,0,0,.07-.2l.1-.37c0-.14.08-.27.11-.4a2.35,2.35,0,0,1,.1-.27.81.81,0,0,0,.08-.18c.06-.15.12-.3.18-.47s.1-.28.16-.41l.12-.27a2.62,2.62,0,0,0,.14-.26l.16-.37c0-.11.09-.22.14-.33l.11-.23.14-.23a3.13,3.13,0,0,0,.2-.41c.57-1.08,1-1.82,1.22-2.2l.2-.32.17-.3.13-.24a.56.56,0,0,1,.11-.15l.14-.22.21-.38.22-.41a.93.93,0,0,1,.18-.26,1.9,1.9,0,0,0,.17-.27c.08-.14.16-.28.23-.43l.24-.44c.1-.2.19-.36.27-.49a2.85,2.85,0,0,0,.18-.39,2.08,2.08,0,0,0,0-.43,1.82,1.82,0,0,1,.08-.59,1.36,1.36,0,0,1,.35-.47,1.44,1.44,0,0,1,.25-.22,2.1,2.1,0,0,1,.28-.18l.26-.06a2.58,2.58,0,0,1,.42,0l.48,0,.37,0,.22,0h.3l.34,0,.44-.06.43-.05h.19l.92-.06,1.34,0h1a5.91,5.91,0,0,1,1.5.19l.15.07.1,0a.36.36,0,0,1,.15.08,1.29,1.29,0,0,1,.21.2,1.5,1.5,0,0,1,.45,1,1.06,1.06,0,0,1-.06.29,3.68,3.68,0,0,1-.15.35,1.16,1.16,0,0,1-.15.21.33.33,0,0,0-.08.11.51.51,0,0,0,0,.09s0,.07,0,.07l-.06,0a.21.21,0,0,0-.08.06.15.15,0,0,1-.11.05h-.07a.16.16,0,0,0-.09,0h0a.3.3,0,0,0-.11,0,.69.69,0,0,1-.33.06H138a1.44,1.44,0,0,1-.54-.1,1,1,0,0,0-.27-.07,3.52,3.52,0,0,0-.45,0h-.85l-.53,0-.49,0a4.32,4.32,0,0,0-.64,0l-.33,0-.3,0a5.49,5.49,0,0,0-.57,0l-.7.1-.4.06s-.06.09-.13.2-.13.25-.2.41a21.26,21.26,0,0,1-1.13,2,5.64,5.64,0,0,0-.61,1.1s0,0,0,0l0,0a6.64,6.64,0,0,1,.88-.07c.46,0,1,0,1.55,0s1.09,0,1.55,0,.77,0,1,.07a1.73,1.73,0,0,1,.53.14,1.44,1.44,0,0,1,.34.28,1.42,1.42,0,0,1,.27.47,1.33,1.33,0,0,1,.12.5.94.94,0,0,1-.1.35,2,2,0,0,1-.23.38c-.09.11-.17.17-.23.17a.05.05,0,0,0,0,0,.22.22,0,0,0-.05.08.11.11,0,0,1-.07.08h-.22a.63.63,0,0,0-.19,0l-.13,0a.17.17,0,0,1-.1,0l-.13,0c-.21,0-.8-.05-1.79-.05H131a9.82,9.82,0,0,0-1,.07l-.57.06-.67,0h-.16a.86.86,0,0,0-.25,0c-.05,0-.1.06-.15.14A2.13,2.13,0,0,0,128,18a.93.93,0,0,0-.08.2c-.07.13-.13.24-.18.35l-.1.19-.1.19c0,.1-.09.21-.14.33l-.17.39a2.69,2.69,0,0,1-.14.32,2.54,2.54,0,0,0-.11.26c0,.11-.09.23-.14.35a.3.3,0,0,0,0,.1c0,.13-.09.25-.13.37a1.62,1.62,0,0,1-.11.25,5,5,0,0,0-.22.81,6,6,0,0,0-.1,1v.21a2.07,2.07,0,0,0,0,.53.3.3,0,0,0,.21.26.35.35,0,0,1,.12.07s0,0,0,.05.06,0,.17,0h.13c.19,0,.43,0,.73-.07a8.2,8.2,0,0,0,.91-.15L129,24l.23,0h0a.77.77,0,0,0,.18,0l.39-.11.42-.1.21,0,.23-.06.48-.13c.35-.13.62-.21.82-.27l.45-.12.27,0h.2a.23.23,0,0,1,.11,0,.12.12,0,0,0,.08,0h.14a.49.49,0,0,1,.23.05l.25.21a1.59,1.59,0,0,1,.23.29A.84.84,0,0,1,134,24c0,.12,0,.23,0,.34a1.55,1.55,0,0,1,0,.33,1.24,1.24,0,0,1-.31.5l-.18.18-.08.06v0l0,0,0,0a17,17,0,0,1-2.23.72l-.56.17-.46.14-.36.08-.35.06-.51.09-.21.05-.58.1-.65.08a4.5,4.5,0,0,1-.46,0,1.46,1.46,0,0,1-.25,0Z"/><path d="M138.77,26.71h-.1l-.21,0a.67.67,0,0,1-.22,0,.61.61,0,0,1-.16-.13.93.93,0,0,0-.13-.15l-.07-.1a1.05,1.05,0,0,1-.21-.67,2.29,2.29,0,0,1,.13-.72c.13-.37.29-.8.48-1.27s.36-.87.51-1.2.34-.75.52-1.19c.05-.11.1-.22.15-.35a2.26,2.26,0,0,1,.15-.31c.1-.22.25-.57.46-1l.63-1.45c.22-.5.39-.91.52-1.24.25-.57.45-1,.58-1.35s.22-.56.27-.72a1.15,1.15,0,0,0,.07-.32,2,2,0,0,1,.16-.67,3.94,3.94,0,0,1,.31-.67,1.74,1.74,0,0,0,.18-.22,2,2,0,0,0,.1-.18,4.93,4.93,0,0,0,.27-.69c.11-.33.21-.67.31-1a6,6,0,0,0,.18-.72,2.1,2.1,0,0,1,.14-.54,1.31,1.31,0,0,1,.26-.37,1.29,1.29,0,0,1,.79-.37L145,9l.1,0h0a.05.05,0,0,1,0,0l.09,0,.19.07a.73.73,0,0,1,.17.07s.06,0,.06,0v0a.06.06,0,0,0,0,0,.18.18,0,0,0,.07.05.44.44,0,0,1,.11.09.23.23,0,0,1,.08.12l.1.16.82-.41a9,9,0,0,1,1.76-.71c.33-.07.61-.12.83-.15a5.41,5.41,0,0,1,.74,0h.17a4.15,4.15,0,0,1,.83.07,2.89,2.89,0,0,1,.85.3,2.61,2.61,0,0,1,1.45,1.88,2,2,0,0,1,.07.56,7.17,7.17,0,0,1-1.21,3.33,18.59,18.59,0,0,1-5.29,5.37l-.68.48.32.16A16.66,16.66,0,0,1,148.82,22a5.68,5.68,0,0,1,1.3,1.33.3.3,0,0,0,0,.08,1.47,1.47,0,0,1,.09.17l.06.1s.06.11.06.23a2.77,2.77,0,0,1,0,.39,2.56,2.56,0,0,1-.07.36c0,.11-.07.16-.09.16a.05.05,0,0,0-.05,0s0,0,0,.07a.69.69,0,0,1-.23.22,1.39,1.39,0,0,1-.38.17l-.25,0a1.17,1.17,0,0,1-.29,0l-.18,0h-.17a.52.52,0,0,1-.25-.08,1,1,0,0,1-.27-.24,6.1,6.1,0,0,0-.57-.61,6.54,6.54,0,0,0-.61-.53c-.33-.24-.71-.5-1.16-.78s-.86-.51-1.25-.71a2.67,2.67,0,0,0-.74-.29l-.14,0a.28.28,0,0,1-.12,0h-.06a1.91,1.91,0,0,0-.48.1l-.43.12-.42.09-.31,0a.42.42,0,0,0-.15.07.24.24,0,0,0-.07.12l-.16.36a2,2,0,0,0-.11.28c0,.1-.1.22-.15.37l-.08.2-.1.25-.07.17-.21.5-.22.57c-.11.25-.19.46-.27.63l-.12.28h0v.07a.15.15,0,0,1,0,.06.65.65,0,0,1-.12.11l-.14.11a.45.45,0,0,0-.14.13s-.05,0-.07,0h-.06l-.07,0a.16.16,0,0,1-.11.07h-.17l-.09,0H139l-.13,0,0,0h0Zm5.42-8.16c.35-.2.68-.39,1-.59s.64-.44,1-.72a18,18,0,0,0,2.91-2.7,9.11,9.11,0,0,0,1.69-2.73,1.63,1.63,0,0,0,.11-.49.24.24,0,0,0,0-.16c-.07-.1-.25-.14-.56-.14h-.08a6,6,0,0,0-3.44,1.38,4.82,4.82,0,0,0-.6.51c-.22.21-.43.42-.61.62a4.08,4.08,0,0,0-.35.42c-.07.15-.15.35-.26.61s-.21.49-.3.72c0,.07,0,.15-.08.23s-.08.21-.1.27a1.91,1.91,0,0,0-.1.23c0,.1-.08.2-.12.3l-.13.3a.68.68,0,0,1-.08.17l-.35.83c-.14.33-.26.63-.38.9a3.54,3.54,0,0,0-.16.43s0,0,.05,0a.93.93,0,0,0,.24-.05A5.26,5.26,0,0,0,144.19,18.55Z"/></g></g></svg>